<svg width="146" height="48" viewBox="0 0 146 48" fill="none" xmlns="http://www.w3.org/2000/svg">
<path d="M72.4881 20.6855V20.0553C72.4881 19.9293 72.3831 19.8242 72.257 19.8242H71.4693C71.3433 19.8242 71.2382 19.9293 71.2382 20.0553V20.6855C68.0138 20.696 67.7617 22.9962 67.7617 23.6999C67.7617 24.4036 68.0138 26.7037 71.2382 26.7142V27.4915C71.2382 27.6175 71.3433 27.7225 71.4693 27.7225H72.257C72.3831 27.7225 72.4881 27.6175 72.4881 27.4915V26.7142C75.7126 26.7037 75.9646 24.4036 75.9646 23.6999C75.9646 23.0067 75.7126 20.7065 72.4881 20.6855ZM72.4881 25.5169V21.8933C74.4102 21.8933 74.6938 23.0277 74.6938 23.7104C74.6938 24.3826 74.3997 25.5169 72.4881 25.5169ZM71.2382 21.8933V25.5169C69.3162 25.5169 69.0326 24.3826 69.0326 23.7104C69.0326 23.0277 69.3162 21.9038 71.2382 21.8933Z" fill="#333435"/>
<path d="M85.7316 20.1182H82.024C81.898 20.1182 81.793 20.2232 81.793 20.3492V27.5018C81.793 27.6279 81.898 27.7329 82.024 27.7329H85.7316C85.8577 27.7329 85.9627 27.6279 85.9627 27.5018V26.7561C85.9627 26.6301 85.8577 26.525 85.7316 26.525H83.0428V24.2039H85.6476C85.7736 24.2039 85.8787 24.0988 85.8787 23.9728V23.2271C85.8787 23.101 85.7736 22.996 85.6476 22.996H83.0428V21.326H85.7316C85.8577 21.326 85.9627 21.221 85.9627 21.095V20.3492C85.9522 20.2232 85.8577 20.1182 85.7316 20.1182Z" fill="#333435"/>
<path d="M97.2756 20.1182H96.4879C96.3618 20.1182 96.2568 20.2232 96.2568 20.3492V23.0275H93.0428V20.3492C93.0428 20.2232 92.9378 20.1182 92.8118 20.1182H92.024C91.898 20.1182 91.793 20.2232 91.793 20.3492V27.5018C91.793 27.6279 91.898 27.7329 92.024 27.7329H92.8118C92.9378 27.7329 93.0428 27.6279 93.0428 27.5018V24.2354H96.2568V27.5018C96.2568 27.6279 96.3618 27.7329 96.4879 27.7329H97.2756C97.4016 27.7329 97.5066 27.6279 97.5066 27.5018V20.3492C97.4961 20.2232 97.4016 20.1182 97.2756 20.1182Z" fill="#333435"/>
<path d="M109.54 19.8976L104.961 25.2122V20.3388C104.961 20.2127 104.856 20.1077 104.73 20.1077H103.942C103.816 20.1077 103.711 20.2127 103.711 20.3388V27.817C103.711 27.9115 103.774 27.9955 103.858 28.027C103.879 28.0375 103.91 28.0375 103.932 28.0375C103.995 28.0375 104.058 28.006 104.1 27.964L108.679 22.6495V27.5019C108.679 27.6279 108.784 27.7329 108.91 27.7329H109.708C109.834 27.7329 109.939 27.6279 109.939 27.5019V20.0447C109.939 19.9502 109.876 19.8661 109.792 19.8346C109.698 19.8031 109.603 19.8346 109.54 19.8976Z" fill="#333435"/>
<path d="M118.263 23.6895L121.456 20.507C121.519 20.444 121.54 20.3495 121.509 20.255C121.477 20.1709 121.393 20.1184 121.299 20.1184H120.228C120.165 20.1184 120.112 20.1394 120.07 20.1814L117.413 22.8597V20.339C117.413 20.2129 117.308 20.1079 117.182 20.1079H116.383C116.257 20.1079 116.152 20.2129 116.152 20.339V27.4916C116.152 27.6176 116.257 27.7227 116.383 27.7227H117.182C117.308 27.7227 117.413 27.6176 117.413 27.4916V24.5822L120.144 27.6491C120.186 27.6911 120.249 27.7227 120.312 27.7227H121.404C121.498 27.7227 121.572 27.6701 121.614 27.5861C121.645 27.5021 121.635 27.4076 121.572 27.3445L118.263 23.6895Z" fill="#333435"/>
<path d="M130.665 20.0024C128.407 20.0024 126.695 21.7039 126.695 23.9516C126.695 26.1783 128.386 27.8588 130.623 27.8588C131.096 27.8588 132.01 27.7642 132.913 27.1235C132.976 27.0815 133.008 27.008 133.008 26.9345V25.9472C133.008 25.8527 132.955 25.7686 132.871 25.7371C132.787 25.6951 132.682 25.7266 132.619 25.7896C132.462 25.9472 132.199 26.1783 131.852 26.3463C131.464 26.5459 131.033 26.6509 130.623 26.6509C129.521 26.6509 127.966 25.8107 127.966 23.9621C127.966 22.4182 129.132 21.2103 130.613 21.2103C130.981 21.2103 131.39 21.3048 131.747 21.4729C132.041 21.6094 132.367 21.8405 132.619 22.0926C132.682 22.1556 132.777 22.1766 132.871 22.1451C132.955 22.1136 133.008 22.0295 133.008 21.935V20.9477C133.008 20.8742 132.976 20.8112 132.924 20.7692C132.251 20.2545 131.506 20.0024 130.665 20.0024Z" fill="#333435"/>
<path d="M145.771 23.3104H142.673V20.212C142.673 20.086 142.568 19.981 142.442 19.981H141.686C141.56 19.981 141.454 20.086 141.454 20.212V23.3104H138.356C138.23 23.3104 138.125 23.4155 138.125 23.5415V24.2977C138.125 24.4238 138.23 24.5288 138.356 24.5288H141.454V27.6272C141.454 27.7532 141.56 27.8583 141.686 27.8583H142.442C142.568 27.8583 142.673 27.7532 142.673 27.6272V24.5288H145.771C145.897 24.5288 146.002 24.4238 146.002 24.2977V23.5415C145.992 23.405 145.897 23.3104 145.771 23.3104Z" fill="#333435"/>
<path fill-rule="evenodd" clip-rule="evenodd" d="M40.8997 34.6078C44.7985 36.4014 52.2776 35.5219 52.2776 35.5219V15.2313C52.2776 15.2313 52.2984 14.0264 51.8067 12.6621L38.2266 32.0524C38.7529 33.0289 39.5839 33.9984 40.8997 34.6078Z" fill="#343176"/>
<path fill-rule="evenodd" clip-rule="evenodd" d="M48.922 9.37306C44.9539 7.55175 37.3086 8.34814 37.3086 8.34814V28.6387C37.3086 28.6387 37.3224 30.3561 38.2227 32.0389L51.8028 12.6486C51.3735 11.4506 50.5563 10.1279 48.922 9.37306Z" fill="#EE7656"/>
<path fill-rule="evenodd" clip-rule="evenodd" d="M18.6406 43.036L31.1681 25.1416L18.6406 7.24707V43.036Z" fill="#89CAC0"/>
<path fill-rule="evenodd" clip-rule="evenodd" d="M18.6406 43.0359V47.4818C18.6406 47.4818 26.1197 48.3613 30.0186 46.5677C33.5919 44.9265 33.6058 40.6052 33.6058 40.6052V21.665L18.6406 43.0359Z" fill="#EE7656"/>
<path fill-rule="evenodd" clip-rule="evenodd" d="M31.1688 25.1415L33.6064 21.6651V0.176461C33.6064 0.176461 25.9611 -0.626851 21.993 1.19445C18.5097 2.79415 18.6413 7.04617 18.6413 7.04617V7.24007L31.1688 25.1415Z" fill="#343176"/>
<path fill-rule="evenodd" clip-rule="evenodd" d="M11.8355 34.345L0.0351562 17.4893V35.5153C0.0351562 35.5153 8.06828 36.4571 11.8217 34.3934C11.8286 34.3727 11.8286 34.3657 11.8355 34.345Z" fill="#E14142"/>
<path fill-rule="evenodd" clip-rule="evenodd" d="M4.82812 24.3798L11.8017 34.345C14.9111 32.5653 14.9665 28.6457 14.9665 28.6457V9.89941L4.82812 24.3798Z" fill="#89CAC0"/>
<path fill-rule="evenodd" clip-rule="evenodd" d="M4.82745 24.3797L14.9658 9.89925V8.35495C14.9658 8.35495 7.32049 7.55164 3.3524 9.37987C-0.130928 10.9726 0.000649162 15.2247 0.000649162 15.2247V17.4892L4.82745 24.3797Z" fill="#343176"/>
</svg>
