<svg width="18" height="18" viewBox="0 0 18 18" fill="none" xmlns="http://www.w3.org/2000/svg">
<rect width="18" height="18" fill="white"/>
<mask id="path-1-inside-1_8885_43355" fill="white">
<path fill-rule="evenodd" clip-rule="evenodd" d="M6.27907 4.34884C6.27907 2.49932 7.77839 1 9.62791 1H11.7209V13.9767C11.7209 15.8263 10.2216 17.3256 8.37209 17.3256H6.27907V4.34884ZM0 8.11628C0 6.26677 1.49932 4.76744 3.34884 4.76744H5.44186V11.8837C5.44186 13.7332 3.94254 15.2326 2.09302 15.2326H0V8.11628ZM14.6512 4.76744C16.5007 4.76744 18 6.26677 18 8.11628V15.2326H15.907C14.0575 15.2326 12.5581 13.7332 12.5581 11.8837V4.76744H14.6512Z"/>
</mask>
<path d="M11.7209 1H12.7209V0H11.7209V1ZM6.27907 17.3256H5.27907V18.3256H6.27907V17.3256ZM5.44186 4.76744H6.44186V3.76744H5.44186V4.76744ZM0 15.2326H-1V16.2326H0V15.2326ZM18 15.2326V16.2326H19V15.2326H18ZM12.5581 4.76744V3.76744H11.5581V4.76744H12.5581ZM9.62791 0C7.22611 0 5.27907 1.94704 5.27907 4.34884H7.27907C7.27907 3.05161 8.33068 2 9.62791 2V0ZM11.7209 0H9.62791V2H11.7209V0ZM12.7209 13.9767V1H10.7209V13.9767H12.7209ZM8.37209 18.3256C10.7739 18.3256 12.7209 16.3785 12.7209 13.9767H10.7209C10.7209 15.274 9.66932 16.3256 8.37209 16.3256V18.3256ZM6.27907 18.3256H8.37209V16.3256H6.27907V18.3256ZM5.27907 4.34884V17.3256H7.27907V4.34884H5.27907ZM3.34884 3.76744C0.94704 3.76744 -1 5.71448 -1 8.11628H1C1 6.81905 2.05161 5.76744 3.34884 5.76744V3.76744ZM5.44186 3.76744H3.34884V5.76744H5.44186V3.76744ZM6.44186 11.8837V4.76744H4.44186V11.8837H6.44186ZM2.09302 16.2326C4.49482 16.2326 6.44186 14.2855 6.44186 11.8837H4.44186C4.44186 13.1809 3.39025 14.2326 2.09302 14.2326V16.2326ZM0 16.2326H2.09302V14.2326H0V16.2326ZM-1 8.11628V15.2326H1V8.11628H-1ZM19 8.11628C19 5.71448 17.053 3.76744 14.6512 3.76744V5.76744C15.9484 5.76744 17 6.81905 17 8.11628H19ZM19 15.2326V8.11628H17V15.2326H19ZM15.907 16.2326H18V14.2326H15.907V16.2326ZM11.5581 11.8837C11.5581 14.2855 13.5052 16.2326 15.907 16.2326V14.2326C14.6097 14.2326 13.5581 13.1809 13.5581 11.8837H11.5581ZM11.5581 4.76744V11.8837H13.5581V4.76744H11.5581ZM14.6512 3.76744H12.5581V5.76744H14.6512V3.76744Z" fill="#A8A9B0" mask="url(#path-1-inside-1_8885_43355)"/>
</svg>
