<svg width="18" height="18" viewBox="0 0 18 18" fill="none" xmlns="http://www.w3.org/2000/svg">
<g clip-path="url(#clip0_8885_43365)">
<rect width="18" height="18" fill="white"/>
<path d="M7.86219 6.34523C7.86219 7.13565 7.22145 7.77639 6.4311 7.77639C5.64074 7.77639 5 7.13565 5 6.34523C5 5.5548 5.64074 4.91406 6.4311 4.91406C7.22145 4.91406 7.86219 5.5548 7.86219 6.34523Z" stroke="#A8A9B0"/>
<path d="M12.9989 11.6548C12.9989 12.4452 12.3582 13.086 11.5678 13.086C10.7775 13.086 10.1367 12.4452 10.1367 11.6548C10.1367 10.8644 10.7775 10.2236 11.5678 10.2236C12.3582 10.2236 12.9989 10.8644 12.9989 11.6548Z" stroke="#A8A9B0"/>
<path d="M13.0706 4.98877L5.01758 12.6675" stroke="#A8A9B0"/>
<circle cx="9" cy="9" r="8.5" stroke="#A8A9B0"/>
</g>
<defs>
<clipPath id="clip0_8885_43365">
<rect width="18" height="18" fill="white"/>
</clipPath>
</defs>
</svg>
