<svg width="18" height="18" viewBox="0 0 18 18" fill="none" xmlns="http://www.w3.org/2000/svg">
<g clip-path="url(#clip0_8885_43403)">
<rect width="18" height="18" fill="white"/>
<rect x="0.5" y="3.5" width="17" height="14" fill="white" stroke="#A8A9B0"/>
<line x1="3.5" y1="5.78125" x2="3.5" y2="2.18557e-08" stroke="#A8A9B0"/>
<line x1="14.5" y1="5.78125" x2="14.5" y2="2.18557e-08" stroke="#A8A9B0"/>
<line x1="8.78125" y1="8.5" x2="3" y2="8.5" stroke="#A8A9B0"/>
<path d="M6.34375 11L3 11" stroke="#A8A9B0"/>
<path fill-rule="evenodd" clip-rule="evenodd" d="M12.8949 8.89473C12.8949 9.38888 12.4943 9.78947 12.0002 9.78947C11.5061 9.78947 11.1055 9.38888 11.1055 8.89473C11.1055 8.40059 11.5061 8 12.0002 8C12.4943 8 12.8949 8.40059 12.8949 8.89473ZM13.0102 10.4981C13.5418 10.1625 13.8949 9.56986 13.8949 8.89473C13.8949 7.8483 13.0466 7 12.0002 7C10.9538 7 10.1055 7.8483 10.1055 8.89473C10.1055 9.56981 10.4585 10.1624 10.9901 10.498C10.813 10.5442 10.639 10.6026 10.4693 10.6729C9.98396 10.8739 9.543 11.1686 9.17157 11.54C8.80014 11.9114 8.5055 12.3524 8.30448 12.8377C8.10346 13.323 8 13.8431 8 14.3684H9C9 13.9745 9.0776 13.5844 9.22836 13.2204C9.37912 12.8564 9.6001 12.5257 9.87868 12.2471C10.1573 11.9685 10.488 11.7476 10.8519 11.5968C11.2159 11.446 11.606 11.3684 12 11.3684C12.394 11.3684 12.7841 11.446 13.148 11.5968C13.512 11.7476 13.8427 11.9685 14.1213 12.2471C14.3999 12.5257 14.6209 12.8564 14.7716 13.2204C14.9224 13.5844 15 13.9745 15 14.3684H16C16 13.8431 15.8965 13.323 15.6955 12.8377C15.4945 12.3524 15.1998 11.9114 14.8284 11.54C14.457 11.1686 14.016 10.8739 13.5307 10.6729C13.3611 10.6026 13.1871 10.5443 13.0102 10.4981Z" fill="#A8A9B0"/>
</g>
<defs>
<clipPath id="clip0_8885_43403">
<rect width="18" height="18" fill="white"/>
</clipPath>
</defs>
</svg>
