<svg width="18" height="18" viewBox="0 0 18 18" fill="none" xmlns="http://www.w3.org/2000/svg">
<g clip-path="url(#clip0_8885_43417)">
<rect width="18" height="18" fill="white"/>
<path d="M6.32548 17.2338C6.16609 17.0447 5.96212 16.7986 5.72639 16.5054C5.13954 15.7756 4.35794 14.756 3.57733 13.5959C2.79573 12.4343 2.02135 11.141 1.44394 9.86289C0.863144 8.57734 0.5 7.34682 0.5 6.3C0.5 3.10243 3.09985 0.5 6.325 0.5C9.52257 0.5 12.125 3.09985 12.125 6.325C12.125 7.37871 11.763 8.61116 11.1847 9.89506C10.6097 11.1718 9.83854 12.461 9.06017 13.6177C8.28278 14.773 7.50441 15.787 6.91999 16.5125C6.68626 16.8027 6.4839 17.0462 6.32548 17.2338ZM3.225 6.325C3.225 8.023 4.59573 9.425 6.325 9.425C8.06043 9.425 9.425 7.99176 9.425 6.3C9.425 4.60199 8.05427 3.2 6.325 3.2C4.58957 3.2 3.225 4.63324 3.225 6.325Z" stroke="#A8A9B0"/>
<path d="M13.5002 7C11.5558 7 9.98633 8.56944 9.98633 10.5C9.98633 13.0556 13.5002 17 13.5002 17C13.5002 17 17.0002 13.0833 17.0002 10.5139C17.0002 8.56944 15.4308 7 13.5002 7ZM13.5002 11.9583C12.6947 11.9583 12.0558 11.3056 12.0558 10.5139C12.0558 9.72222 12.6947 9.05556 13.5002 9.05556C14.3058 9.05556 14.9447 9.70833 14.9447 10.5C14.9447 11.2917 14.3058 11.9583 13.5002 11.9583Z" fill="white" stroke="#A8A9B0"/>
</g>
<defs>
<clipPath id="clip0_8885_43417">
<rect width="18" height="18" fill="white"/>
</clipPath>
</defs>
</svg>
