<svg width="309" height="122" viewBox="0 0 309 122" fill="none" xmlns="http://www.w3.org/2000/svg">
<path d="M237.953 61.9535L238.43 61.8045L237.953 61.9535ZM170 73L170.485 73.1202L170 73ZM306.374 62.4374C306.641 62.5069 306.914 62.3466 306.984 62.0794L308.117 57.7243C308.186 57.4571 308.026 57.184 307.759 57.1145C307.491 57.045 307.218 57.2053 307.149 57.4726L306.142 61.3437L302.271 60.3368C302.004 60.2672 301.731 60.4275 301.661 60.6948C301.592 60.962 301.752 61.235 302.019 61.3045L306.374 62.4374ZM0.92302 59.2667C1.18996 58.8431 1.45955 58.422 1.73178 58.0035L0.893544 57.4582C0.618688 57.8808 0.346489 58.3059 0.0769802 58.7336L0.92302 59.2667ZM3.3965 55.5235C3.96176 54.707 4.53731 53.9007 5.12288 53.1046L4.31732 52.5121C3.72611 53.3159 3.14503 54.1299 2.57431 54.9542L3.3965 55.5235ZM6.92721 50.7238C7.54001 49.9388 8.16282 49.1642 8.79538 48.3998L8.02497 47.7622C7.38638 48.5339 6.75763 49.3159 6.13896 50.1084L6.92721 50.7238ZM10.7248 46.1342C11.3818 45.3844 12.0484 44.6449 12.7244 43.9157L11.9911 43.2358C11.3087 43.9718 10.6358 44.7183 9.97262 45.4752L10.7248 46.1342ZM14.7804 41.7588C15.4766 41.0484 16.182 40.3482 16.8963 39.6582L16.2015 38.939C15.4807 39.6352 14.7689 40.3419 14.0662 41.0589L14.7804 41.7588ZM19.07 37.6147C19.8033 36.9437 20.5453 36.2829 21.2957 35.6322L20.6406 34.8767C19.8835 35.5332 19.1349 36.1999 18.395 36.8769L19.07 37.6147ZM23.5752 33.7075C24.3433 33.076 25.1196 32.4545 25.9038 31.843L25.2889 31.0544C24.498 31.6711 23.715 32.298 22.9401 32.9351L23.5752 33.7075ZM28.2793 30.0389C29.0784 29.4477 29.8852 28.8665 30.6993 28.2951L30.1248 27.4766C29.304 28.0527 28.4905 28.6388 27.6846 29.2349L28.2793 30.0389ZM33.1634 26.6105C33.9905 26.0596 34.8247 25.5185 35.6657 24.9871L35.1315 24.1418C34.2839 24.6774 33.4429 25.2228 32.6091 25.7781L33.1634 26.6105ZM38.2069 23.423C39.0603 22.9114 39.9203 22.4095 40.7864 21.917L40.2921 21.0477C39.4194 21.5439 38.5528 22.0498 37.6928 22.5653L38.2069 23.423ZM43.395 20.4727C44.2706 20.0007 45.1521 19.5381 46.0392 19.0849L45.5842 18.1943C44.6906 18.6509 43.8026 19.1169 42.9205 19.5924L43.395 20.4727ZM48.7124 17.7555C49.607 17.3226 50.507 16.8989 51.412 16.4844L50.9956 15.5752C50.0842 15.9927 49.1779 16.4194 48.2769 16.8554L48.7124 17.7555ZM54.1421 15.2682C55.054 14.8733 55.9707 14.4874 56.8919 14.1104L56.5132 13.1849C55.5858 13.5644 54.6629 13.9529 53.7447 14.3506L54.1421 15.2682ZM59.6668 13.0072C60.5956 12.6486 61.5285 12.2988 62.4655 11.9579L62.1236 11.0182C61.1806 11.3613 60.2415 11.7133 59.3066 12.0743L59.6668 13.0072ZM65.2793 10.9647C66.221 10.6423 67.1664 10.3286 68.1153 10.0236L67.8093 9.07158C66.8545 9.3785 65.9031 9.69413 64.9554 10.0185L65.2793 10.9647ZM70.9675 9.13575C71.9201 8.84881 72.8758 8.5704 73.8345 8.30046L73.5634 7.33789C72.599 7.60946 71.6375 7.88956 70.6791 8.17825L70.9675 9.13575ZM76.7189 7.51597C77.6814 7.26334 78.6465 7.0191 79.614 6.78316L79.3771 5.81163C78.404 6.04894 77.4332 6.29461 76.465 6.54873L76.7189 7.51597ZM82.5226 6.10047C83.4942 5.8812 84.4679 5.67018 85.4435 5.46734L85.2399 4.48828C84.2588 4.69226 83.2796 4.90448 82.3024 5.125L82.5226 6.10047ZM88.3735 4.88373C89.3518 4.69732 90.3318 4.51902 91.3132 4.34877L91.1422 3.36349C90.1555 3.53467 89.1701 3.71395 88.1863 3.9014L88.3735 4.88373ZM94.2619 3.86197C95.2463 3.70768 96.2317 3.56138 97.2181 3.42301L97.0792 2.4327C96.0875 2.57181 95.0967 2.7189 94.107 2.87404L94.2619 3.86197ZM100.179 3.03164C101.169 2.90886 102.159 2.79397 103.15 2.68693L103.042 1.69272C102.047 1.80032 101.051 1.91581 100.056 2.03925L100.179 3.03164ZM106.123 2.38913C107.115 2.29761 108.107 2.21389 109.099 2.13789L109.023 1.14081C108.026 1.2172 107.029 1.30137 106.031 1.39336L106.123 2.38913ZM112.084 1.9324C113.079 1.87164 114.073 1.8186 115.067 1.77321L115.021 0.774256C114.022 0.819875 113.023 0.873188 112.023 0.934258L112.084 1.9324ZM118.054 1.65969C119.052 1.62942 120.048 1.60682 121.044 1.59185L121.029 0.591958C120.028 0.607011 119.026 0.62972 118.023 0.660151L118.054 1.65969ZM124.027 1.5697C125.027 1.5699 126.025 1.57775 127.022 1.59319L127.037 0.59331C126.035 0.577789 125.032 0.569898 124.027 0.569703L124.027 1.5697ZM130.009 1.66233C131.005 1.69301 131.999 1.73127 132.991 1.77705L133.037 0.778111C132.04 0.732103 131.041 0.693644 130.04 0.662803L130.009 1.66233ZM135.982 1.93828C136.977 1.9996 137.969 2.06849 138.958 2.14487L139.035 1.14784C138.041 1.07106 137.044 1.00182 136.044 0.940171L135.982 1.93828ZM141.94 2.39864C142.935 2.49121 143.927 2.5914 144.915 2.69913L145.023 1.70502C144.03 1.59672 143.033 1.496 142.032 1.40294L141.94 2.39864ZM147.872 3.04529C148.868 3.1699 149.86 3.30221 150.847 3.44214L150.987 2.45203C149.995 2.31134 148.998 2.17831 147.997 2.05303L147.872 3.04529ZM153.796 3.88471C154.784 4.04132 155.767 4.20563 156.746 4.37755L156.919 3.39264C155.935 3.21975 154.946 3.05452 153.953 2.89704L153.796 3.88471ZM159.688 4.92048C160.665 5.10942 161.636 5.30604 162.602 5.51025L162.809 4.53189C161.837 4.32647 160.86 4.1287 159.878 3.93867L159.688 4.92048ZM165.535 6.15799C166.507 6.38174 167.472 6.61329 168.431 6.85255L168.673 5.88231C167.708 5.64156 166.737 5.4086 165.76 5.1835L165.535 6.15799ZM171.328 7.6047C172.295 7.8654 173.254 8.13408 174.205 8.41066L174.484 7.4504C173.527 7.172 172.561 6.90157 171.589 6.63921L171.328 7.6047ZM177.056 9.27001C178.015 9.56991 178.967 9.87801 179.909 10.1942L180.227 9.24618C179.278 8.92772 178.32 8.61747 177.354 8.31552L177.056 9.27001ZM182.709 11.1671C183.658 11.5084 184.598 11.8582 185.527 12.2163L185.887 11.2832C184.95 10.9223 184.004 10.5699 183.047 10.2261L182.709 11.1671ZM188.287 13.317C189.217 13.7004 190.135 14.0923 191.042 14.4928L191.446 13.578C190.531 13.1742 189.606 12.779 188.669 12.3926L188.287 13.317ZM193.751 15.7309C194.657 16.1595 195.551 16.5969 196.431 17.043L196.883 16.151C195.995 15.7007 195.093 15.2593 194.178 14.8269L193.751 15.7309ZM199.074 18.4294C199.953 18.9072 200.817 19.394 201.667 19.8898L202.171 19.0262C201.313 18.5251 200.439 18.0333 199.551 17.5507L199.074 18.4294ZM204.222 21.4363C205.068 21.9681 205.898 22.5093 206.711 23.0597L207.272 22.2318C206.449 21.6747 205.61 21.1272 204.753 20.5895L204.222 21.4363ZM209.151 24.7786C209.957 25.3699 210.745 25.9709 211.512 26.5816L212.135 25.7992C211.357 25.1801 210.559 24.571 209.742 23.9721L209.151 24.7786ZM213.802 28.485C214.173 28.8073 214.539 29.132 214.899 29.4591L215.571 28.7189C215.206 28.3867 214.834 28.057 214.458 27.73L213.802 28.485ZM215.112 28.6044C214.62 28.7292 214.13 28.8587 213.642 28.9927L213.907 29.9569C214.388 29.8247 214.872 29.6969 215.358 29.5737L215.112 28.6044ZM210.73 29.8568C209.76 30.1663 208.801 30.4945 207.854 30.8414L208.198 31.7804C209.132 31.4384 210.077 31.1147 211.034 30.8095L210.73 29.8568ZM205.024 31.9471C204.084 32.3381 203.157 32.7483 202.242 33.1776L202.667 34.0828C203.568 33.6599 204.482 33.2557 205.408 32.8703L205.024 31.9471ZM199.521 34.5324C198.621 35.0066 197.735 35.5004 196.863 36.0137L197.371 36.8753C198.228 36.3702 199.101 35.884 199.987 35.417L199.521 34.5324ZM194.281 37.6206C193.431 38.1785 192.597 38.7562 191.779 39.3535L192.369 40.161C193.173 39.5736 193.993 39.0054 194.829 38.4565L194.281 37.6206ZM189.368 41.2102C188.58 41.8501 187.808 42.5097 187.055 43.1889L187.725 43.9316C188.465 43.2641 189.223 42.6157 189.998 41.9866L189.368 41.2102ZM184.848 45.2861C184.132 46.0037 183.434 46.7408 182.756 47.4972L183.5 48.1649C184.167 47.4218 184.852 46.6976 185.556 45.9925L184.848 45.2861ZM180.784 49.8175C180.15 50.6061 179.535 51.4135 178.94 52.2398L179.752 52.8239C180.336 52.0122 180.94 51.219 181.563 50.4444L180.784 49.8175ZM177.229 54.758C176.683 55.6084 176.158 56.4768 175.654 57.3632L176.523 57.8576C177.019 56.9866 177.535 56.1333 178.07 55.2979L177.229 54.758ZM174.219 60.0479C173.767 60.9496 173.336 61.8682 172.926 62.8038L173.842 63.2052C174.245 62.2853 174.669 61.3822 175.113 60.496L174.219 60.0479ZM171.776 65.6197C171.419 66.5614 171.082 67.519 170.766 68.4923L171.717 68.8008C172.028 67.8429 172.359 66.9008 172.711 65.9744L171.776 65.6197ZM169.898 71.4049C169.765 71.8928 169.637 72.3845 169.515 72.8798L170.485 73.1202C170.606 72.6324 170.732 72.1482 170.863 71.6677L169.898 71.4049ZM169.515 72.8798C169.387 73.3936 169.268 73.9036 169.155 74.4096L170.131 74.6268C170.242 74.1286 170.36 73.6264 170.485 73.1202L169.515 72.8798ZM168.566 77.3992C168.391 78.4192 168.247 79.4224 168.132 80.4086L169.126 80.5241C169.238 79.5561 169.38 78.5707 169.551 77.568L168.566 77.3992ZM167.868 83.4435C167.809 84.4829 167.784 85.502 167.791 86.5007L168.791 86.4935C168.784 85.5166 168.808 84.5189 168.867 83.5005L167.868 83.4435ZM167.916 89.5257C167.996 90.5713 168.113 91.5925 168.266 92.5891L169.254 92.4375C169.105 91.4663 168.991 90.4703 168.913 89.4495L167.916 89.5257ZM168.845 95.5719C169.085 96.5844 169.363 97.5686 169.678 98.5243L170.628 98.2114C170.322 97.2832 170.051 96.3266 169.818 95.3416L168.845 95.5719ZM170.768 101.394C171.178 102.341 171.626 103.256 172.109 104.138L172.986 103.658C172.518 102.802 172.083 101.915 171.686 100.997L170.768 101.394ZM173.709 106.755C174.289 107.609 174.905 108.428 175.554 109.21L176.324 108.572C175.695 107.814 175.098 107.021 174.536 106.193L173.709 106.755ZM177.619 111.474C178.345 112.198 179.102 112.884 179.887 113.533L180.524 112.762C179.763 112.133 179.029 111.467 178.325 110.766L177.619 111.474ZM182.337 115.378C183.18 115.955 184.049 116.494 184.939 116.995L185.429 116.124C184.564 115.637 183.721 115.113 182.902 114.553L182.337 115.378ZM187.669 118.383C188.597 118.807 189.543 119.192 190.505 119.539L190.844 118.599C189.908 118.261 188.987 117.885 188.084 117.473L187.669 118.383ZM193.421 120.463C194.403 120.732 195.397 120.964 196.4 121.157L196.589 120.175C195.612 119.986 194.642 119.761 193.685 119.499L193.421 120.463ZM199.424 121.622C200.436 121.739 201.453 121.818 202.473 121.86L202.514 120.861C201.519 120.82 200.526 120.743 199.539 120.629L199.424 121.622ZM205.531 121.871C206.549 121.837 207.567 121.765 208.581 121.656L208.474 120.662C207.484 120.768 206.491 120.838 205.497 120.871L205.531 121.871ZM211.608 121.214C212.61 121.029 213.606 120.807 214.593 120.546L214.337 119.579C213.376 119.833 212.404 120.05 211.426 120.231L211.608 121.214ZM217.518 119.65C218.48 119.313 219.43 118.939 220.364 118.526L219.96 117.611C219.051 118.013 218.126 118.378 217.188 118.706L217.518 119.65ZM223.112 117.175C224.007 116.688 224.884 116.163 225.738 115.6L225.188 114.765C224.357 115.312 223.505 115.823 222.635 116.296L223.112 117.175ZM228.219 113.808C229.017 113.177 229.791 112.509 230.538 111.804L229.851 111.077C229.126 111.762 228.374 112.411 227.599 113.023L228.219 113.808ZM232.672 109.599C233.342 108.842 233.983 108.05 234.593 107.223L233.788 106.63C233.196 107.433 232.573 108.201 231.923 108.936L232.672 109.599ZM236.3 104.681C236.828 103.815 237.324 102.916 237.786 101.985L236.891 101.54C236.441 102.446 235.959 103.319 235.446 104.161L236.3 104.681ZM239.023 99.2088C239.394 98.2747 239.733 97.3116 240.038 96.3195L239.082 96.0256C238.785 96.9925 238.454 97.9306 238.093 98.8398L239.023 99.2088ZM240.827 93.3569C241.046 92.3887 241.235 91.3958 241.392 90.3782L240.404 90.2257C240.251 91.2206 240.066 92.1906 239.852 93.1357L240.827 93.3569ZM241.761 87.303C241.846 86.3257 241.903 85.3276 241.93 84.3087L240.931 84.2819C240.904 85.2812 240.848 86.2594 240.765 87.2165L241.761 87.303ZM241.924 81.2207C241.895 80.24 241.839 79.2415 241.756 78.2253L240.76 78.3062C240.841 79.3059 240.895 80.2874 240.924 81.2508L241.924 81.2207ZM241.43 75.1483C241.304 74.1799 241.154 73.1964 240.98 72.1978L239.995 72.3696C240.167 73.3544 240.314 74.3237 240.439 75.2775L241.43 75.1483ZM240.384 69.1564C240.176 68.2033 239.948 67.2372 239.697 66.258L238.728 66.5061C238.976 67.4737 239.202 68.4279 239.406 69.3688L240.384 69.1564ZM238.886 63.3083C238.74 62.8102 238.588 62.309 238.43 61.8045L237.476 62.1025C237.631 62.6016 237.782 63.0975 237.926 63.59L238.886 63.3083ZM238.43 61.8045C238.286 61.3407 238.135 60.8791 237.977 60.4196L237.031 60.7432C237.185 61.1942 237.334 61.6474 237.476 62.1025L238.43 61.8045ZM236.963 57.689C236.601 56.7889 236.217 55.8975 235.81 55.0147L234.902 55.4329C235.302 56.301 235.68 57.1772 236.035 58.0615L236.963 57.689ZM234.531 52.4006C234.085 51.5415 233.618 50.691 233.133 49.8491L232.267 50.3488C232.745 51.1781 233.204 52.0156 233.643 52.8612L234.531 52.4006ZM231.627 47.3614C231.109 46.5449 230.573 45.7371 230.021 44.9379L229.198 45.5064C229.743 46.2951 230.272 47.0919 230.782 47.8969L231.627 47.3614ZM228.325 42.5789C227.747 41.805 227.154 41.0397 226.546 40.2829L225.766 40.9089C226.367 41.6569 226.953 42.4131 227.524 43.1774L228.325 42.5789ZM224.691 38.0488C224.062 37.3158 223.421 36.5914 222.767 35.8754L222.029 36.5495C222.675 37.2581 223.31 37.9749 223.932 38.6999L224.691 38.0488ZM220.781 33.7608C220.109 33.0664 219.427 32.3804 218.736 31.703L218.036 32.4173C218.721 33.0886 219.397 33.7681 220.062 34.4558L220.781 33.7608ZM216.638 29.7002C216.285 29.371 215.929 29.0439 215.571 28.7189L214.899 29.4591C215.254 29.7814 215.606 30.1057 215.957 30.4322L216.638 29.7002ZM215.358 29.5737C215.859 29.4467 216.359 29.3233 216.857 29.2035L216.623 28.2312C216.121 28.352 215.617 28.4763 215.112 28.6044L215.358 29.5737ZM219.843 28.5253C220.85 28.31 221.851 28.1096 222.846 27.924L222.662 26.9409C221.659 27.1282 220.649 27.3303 219.634 27.5474L219.843 28.5253ZM225.872 27.4019C226.891 27.2406 227.902 27.095 228.908 26.9648L228.78 25.9731C227.765 26.1045 226.743 26.2515 225.716 26.4142L225.872 27.4019ZM231.952 26.6159C232.976 26.5138 233.993 26.428 235.003 26.3583L234.934 25.3606C233.914 25.431 232.887 25.5177 231.853 25.6208L231.952 26.6159ZM238.059 26.1954C239.087 26.157 240.107 26.1355 241.119 26.1308L241.115 25.1308C240.091 25.1356 239.06 25.1573 238.021 25.1961L238.059 26.1954ZM244.184 26.1681C245.213 26.1982 246.233 26.2459 247.244 26.3109L247.308 25.313C246.285 25.2472 245.254 25.199 244.213 25.1686L244.184 26.1681ZM250.296 26.5624C251.318 26.6653 252.331 26.7865 253.335 26.9255L253.472 25.9349C252.456 25.7942 251.43 25.6716 250.396 25.5674L250.296 26.5624ZM256.357 27.4029C257.368 27.5826 258.368 27.7808 259.358 27.9973L259.572 27.0203C258.569 26.801 257.555 26.6003 256.532 26.4184L256.357 27.4029ZM262.332 28.7105C263.324 28.9697 264.305 29.2477 265.274 29.5443L265.567 28.588C264.584 28.2874 263.59 28.0056 262.585 27.743L262.332 28.7105ZM268.179 30.4996C269.145 30.8399 270.098 31.1991 271.04 31.5771L271.413 30.649C270.458 30.2657 269.49 29.9015 268.511 29.5565L268.179 30.4996ZM273.852 32.7765C274.784 33.1979 275.703 33.6383 276.609 34.0972L277.061 33.205C276.142 32.7395 275.209 32.2928 274.265 31.8654L273.852 32.7765ZM279.306 35.5376C280.195 36.0385 281.072 36.558 281.935 37.0958L282.464 36.2469C281.588 35.7014 280.699 35.1743 279.796 34.6662L279.306 35.5376ZM284.493 38.7689C285.334 39.3458 286.161 39.9409 286.975 40.5538L287.577 39.7551C286.751 39.1334 285.912 38.5297 285.059 37.9444L284.493 38.7689ZM289.375 42.4465C290.161 43.0946 290.933 43.7601 291.69 44.4428L292.36 43.6999C291.591 43.0075 290.809 42.3324 290.012 41.6751L289.375 42.4465ZM293.917 46.5379C294.643 47.2511 295.354 47.9809 296.052 48.7269L296.782 48.0441C296.075 47.2877 295.354 46.5478 294.618 45.8246L293.917 46.5379ZM298.092 51.0045C298.755 51.7758 299.403 52.5629 300.036 53.3653L300.821 52.7455C300.179 51.9324 299.522 51.1348 298.851 50.353L298.092 51.0045ZM301.883 55.8037C302.48 56.626 303.063 57.463 303.631 58.3143L304.463 57.7592C303.887 56.897 303.297 56.0492 302.692 55.2161L301.883 55.8037ZM305.28 60.8917C305.546 61.3266 305.809 61.7649 306.069 62.2067L306.931 61.7003C306.669 61.2532 306.402 60.8094 306.132 60.3691L305.28 60.8917Z" fill="#343176"/>
</svg>
