<svg width="342" height="103" viewBox="0 0 342 103" fill="none" xmlns="http://www.w3.org/2000/svg">
<path d="M186 16.9999L185.661 17.3677L186 16.9999ZM244 80L243.935 79.5042L244 80ZM341.514 102.5C341.79 102.492 342.007 102.263 342 101.986L341.878 97.4881C341.871 97.2121 341.641 96.9944 341.365 97.0018C341.089 97.0093 340.871 97.2391 340.879 97.5152L340.987 101.514L336.988 101.622C336.712 101.629 336.494 101.859 336.502 102.135C336.509 102.411 336.739 102.629 337.015 102.621L341.514 102.5ZM0.853554 41.3535C1.20086 41.0062 1.55257 40.6611 1.90861 40.3183L1.21494 39.598C0.854433 39.9452 0.498243 40.2946 0.146446 40.6464L0.853554 41.3535ZM4.09614 38.2876C4.83212 37.6286 5.58433 36.9782 6.35221 36.3365L5.71097 35.5692C4.93457 36.218 4.17373 36.8758 3.42908 37.5426L4.09614 38.2876ZM8.67591 34.458C9.4546 33.8488 10.2476 33.2479 11.0545 32.6552L10.4624 31.8492C9.64764 32.4478 8.84655 33.0549 8.05972 33.6705L8.67591 34.458ZM13.4888 30.9206C14.3032 30.3574 15.1303 29.8022 15.9696 29.255L15.4234 28.4173C14.5767 28.9694 13.7421 29.5297 12.9201 30.098L13.4888 30.9206ZM18.4936 27.6552C19.3383 27.1347 20.1942 26.6218 21.0608 26.1166L20.5571 25.2527C19.6837 25.762 18.8208 26.279 17.969 26.8039L18.4936 27.6552ZM23.6577 24.6426C24.5283 24.1615 25.4086 23.6878 26.2983 23.2215L25.8341 22.3358C24.938 22.8055 24.0512 23.2826 23.1741 23.7673L23.6577 24.6426ZM28.955 21.8645C29.8477 21.4202 30.7489 20.983 31.6584 20.5529L31.2309 19.6489C30.3155 20.0818 29.4082 20.5219 28.5094 20.9693L28.955 21.8645ZM34.3647 19.3049C35.2744 18.8957 36.1916 18.4935 37.1159 18.0983L36.7227 17.1788C35.7928 17.5765 34.8699 17.9812 33.9545 18.3928L34.3647 19.3049ZM39.8695 16.9495C40.7921 16.574 41.7212 16.2053 42.6563 15.8433L42.2953 14.9107C41.3549 15.2748 40.4205 15.6456 39.4926 16.0232L39.8695 16.9495ZM45.4553 14.7862C46.389 14.4423 47.3282 14.1049 48.2725 13.7741L47.9419 12.8303C46.9926 13.1629 46.0484 13.5021 45.1097 13.8478L45.4553 14.7862ZM51.1101 12.8047C52.0536 12.4904 53.0016 12.1826 53.954 11.8812L53.6522 10.9278C52.6952 11.2307 51.7424 11.5401 50.7941 11.8559L51.1101 12.8047ZM56.8235 10.9962C57.7757 10.7101 58.7318 10.4303 59.6914 10.1568L59.4173 9.19508C58.4532 9.46987 57.4926 9.75101 56.5357 10.0385L56.8235 10.9962ZM62.5803 9.35519C63.5428 9.09532 64.5083 8.84171 65.4766 8.59437L65.2291 7.62548C64.2564 7.87393 63.2865 8.1287 62.3196 8.38976L62.5803 9.35519ZM68.3835 7.87256C69.3541 7.63843 70.327 7.41053 71.302 7.18887L71.0803 6.21375C70.1011 6.43638 69.1239 6.66528 68.149 6.90045L68.3835 7.87256ZM74.2263 6.54397C75.2029 6.33521 76.1811 6.13268 77.1607 5.93636L76.9642 4.95586C75.9804 5.15301 74.998 5.35641 74.0173 5.56606L74.2263 6.54397ZM80.1023 5.36622C81.0839 5.1824 82.0666 5.00479 83.0498 4.83342L82.8781 3.84827C81.8907 4.02036 80.904 4.19871 79.9183 4.38331L80.1023 5.36622ZM86.0057 4.33722C86.9925 4.1779 87.9795 4.02484 88.9665 3.87804L88.8194 2.88892C87.8283 3.03632 86.8372 3.19002 85.8463 3.35001L86.0057 4.33722ZM91.9308 3.45593C92.923 3.32093 93.9147 3.19227 94.9056 3.06995L94.7831 2.07749C93.788 2.20031 92.7922 2.3295 91.796 2.46507L91.9308 3.45593ZM97.8757 2.72205C98.8724 2.61157 99.8679 2.50755 100.862 2.40998L100.764 1.41476C99.7661 1.51274 98.7664 1.6172 97.7655 1.72813L97.8757 2.72205ZM103.842 2.13637C104.84 2.05106 105.837 1.97231 106.831 1.90012L106.758 0.902744C105.76 0.975246 104.759 1.05433 103.757 1.14L103.842 2.13637ZM109.821 1.7023C110.82 1.64275 111.815 1.58988 112.808 1.5437L112.761 0.54478C111.764 0.591164 110.764 0.644264 109.762 0.704075L109.821 1.7023ZM115.809 1.42414C116.806 1.39112 117.799 1.36494 118.789 1.34561L118.769 0.345801C117.775 0.36522 116.777 0.391516 115.776 0.424684L115.809 1.42414ZM121.8 1.30786C122.799 1.30238 123.794 1.304 124.783 1.31274L124.792 0.312776C123.798 0.303998 122.798 0.302365 121.794 0.307871L121.8 1.30786ZM127.789 1.36149C128.79 1.38521 129.786 1.41637 130.775 1.45496L130.814 0.455723C129.82 0.416929 128.819 0.385614 127.813 0.361771L127.789 1.36149ZM133.772 1.59564C134.775 1.65074 135.77 1.71368 136.758 1.78445L136.829 0.787001C135.836 0.715832 134.835 0.652548 133.827 0.597145L133.772 1.59564ZM139.743 2.02417C140.745 2.11344 141.738 2.21102 142.723 2.31692L142.83 1.32266C141.839 1.21609 140.84 1.11792 139.832 1.02811L139.743 2.02417ZM145.694 2.66519C146.693 2.79216 147.682 2.92802 148.66 3.07277L148.806 2.08354C147.821 1.93777 146.825 1.80098 145.82 1.67317L145.694 2.66519ZM151.614 3.54237C152.606 3.71148 153.587 3.89017 154.555 4.07844L154.746 3.09684C153.77 2.90703 152.782 2.72695 151.782 2.55657L151.614 3.54237ZM157.487 4.68668C158.468 4.90347 159.435 5.13068 160.386 5.36831L160.629 4.39811C159.668 4.15821 158.692 3.92892 157.702 3.71022L157.487 4.68668ZM163.287 6.13866C164.25 6.41006 165.194 6.69286 166.12 6.98705L166.423 6.03399C165.486 5.73637 164.531 5.45045 163.559 5.1762L163.287 6.13866ZM168.975 7.95123C169.922 8.29132 170.847 8.6444 171.749 9.01045L172.125 8.08386C171.21 7.71246 170.272 7.35453 169.312 7.01003L168.975 7.95123ZM174.482 10.1927C175.405 10.618 176.299 11.0584 177.163 11.514L177.629 10.6294C176.749 10.1652 175.839 9.71689 174.901 9.2845L174.482 10.1927ZM179.736 12.9693C180.599 13.4934 181.426 14.0347 182.215 14.5934L182.793 13.7773C181.984 13.2043 181.137 12.6501 180.255 12.1146L179.736 12.9693ZM184.57 16.4083C184.945 16.7233 185.309 17.0431 185.661 17.3677L186.339 16.6322C185.975 16.297 185.6 15.9673 185.214 15.6428L184.57 16.4083ZM185.661 17.3677C186.035 17.7123 186.403 18.0568 186.764 18.4012L187.454 17.6772C187.089 17.3289 186.717 16.9806 186.339 16.6322L185.661 17.3677ZM188.858 20.4654C189.568 21.1898 190.251 21.9132 190.908 22.6353L191.648 21.9621C190.982 21.2309 190.291 20.4986 189.573 19.7656L188.858 20.4654ZM192.857 24.8586C193.5 25.6217 194.117 26.3829 194.707 27.1418L195.496 26.5276C194.898 25.7584 194.273 24.987 193.621 24.214L192.857 24.8586ZM196.487 29.528C197.072 30.3471 197.629 31.163 198.159 31.9752L198.997 31.4284C198.459 30.6047 197.894 29.7772 197.301 28.9467L196.487 29.528ZM199.723 34.483C200.235 35.344 200.719 36.2003 201.177 37.051L202.057 36.5766C201.592 35.7138 201.101 34.8454 200.582 33.972L199.723 34.483ZM202.523 39.6771C202.964 40.5821 203.378 41.48 203.768 42.3699L204.684 41.9684C204.288 41.0668 203.869 40.1568 203.422 39.2394L202.523 39.6771ZM204.907 45.1073C205.276 46.0431 205.622 46.9688 205.948 47.8834L206.89 47.5478C206.56 46.6235 206.211 45.6872 205.837 44.7402L204.907 45.1073ZM206.901 50.692C207.212 51.6512 207.504 52.5964 207.782 53.5264L208.74 53.2397C208.46 52.3038 208.166 51.3514 207.853 50.3838L206.901 50.692ZM208.611 56.3792C208.888 57.3539 209.153 58.308 209.414 59.2422L210.377 58.973C210.117 58.0403 209.85 57.0834 209.573 56.1064L208.611 56.3792ZM210.23 62.1198C210.516 63.105 210.805 64.063 211.104 64.9905L212.056 64.6836C211.761 63.7683 211.475 62.8202 211.19 61.8408L210.23 62.1198ZM212.098 67.8274C212.468 68.7916 212.863 69.7161 213.295 70.5966L214.193 70.1562C213.776 69.3074 213.393 68.4109 213.031 67.4689L212.098 67.8274ZM214.807 73.2444C215.379 74.1003 216.01 74.899 216.717 75.6347L217.438 74.942C216.776 74.2527 216.181 73.5007 215.638 72.6887L214.807 73.2444ZM219.049 77.6271C219.863 78.1937 220.754 78.698 221.733 79.1368L222.142 78.2243C221.218 77.81 220.382 77.336 219.62 76.8061L219.049 77.6271ZM224.59 80.1578C225.511 80.4139 226.495 80.6259 227.547 80.7924L227.704 79.8046C226.685 79.6436 225.739 79.4394 224.858 79.1943L224.59 80.1578ZM230.546 81.129C231.499 81.1967 232.501 81.234 233.556 81.2402L233.561 80.2402C232.527 80.2341 231.547 80.1976 230.617 80.1315L230.546 81.129ZM236.573 81.1786C237.538 81.1356 238.543 81.0701 239.588 80.9818L239.504 79.9854C238.471 80.0727 237.479 80.1372 236.528 80.1796L236.573 81.1786ZM242.527 80.6855C243.031 80.627 243.543 80.5637 244.065 80.4958L243.935 79.5042C243.419 79.5715 242.911 79.6342 242.412 79.6921L242.527 80.6855ZM244.065 80.4958C244.571 80.4298 245.075 80.3657 245.577 80.3036L245.455 79.3112C244.95 79.3736 244.443 79.4379 243.935 79.5042L244.065 80.4958ZM248.579 79.9534C249.591 79.8423 250.598 79.7391 251.597 79.6437L251.502 78.6483C250.498 78.744 249.487 78.8477 248.469 78.9594L248.579 79.9534ZM254.617 79.3778C255.63 79.2961 256.636 79.2226 257.635 79.1572L257.569 78.1594C256.566 78.2251 255.555 78.2989 254.537 78.381L254.617 79.3778ZM260.65 78.9833C261.669 78.9326 262.68 78.8904 263.683 78.8568L263.649 77.8573C262.641 77.8912 261.624 77.9335 260.6 77.9845L260.65 78.9833ZM266.712 78.7803C267.729 78.7633 268.738 78.7551 269.738 78.7556L269.739 77.7556C268.733 77.7551 267.718 77.7633 266.695 77.7805L266.712 78.7803ZM272.761 78.7843C273.777 78.8032 274.785 78.8312 275.784 78.8683L275.821 77.869C274.816 77.8317 273.802 77.8035 272.78 77.7845L272.761 78.7843ZM278.811 79.0101C279.828 79.0676 280.835 79.1348 281.833 79.2114L281.909 78.2143C280.905 78.1372 279.891 78.0696 278.868 78.0117L278.811 79.0101ZM284.848 79.4743C285.86 79.5733 286.862 79.6823 287.854 79.801L287.973 78.8081C286.974 78.6885 285.964 78.5787 284.945 78.479L284.848 79.4743ZM290.852 80.1939C291.858 80.3374 292.854 80.4913 293.839 80.6553L294.003 79.6689C293.011 79.5036 292.007 79.3485 290.993 79.2039L290.852 80.1939ZM296.814 81.1878C297.812 81.3792 298.799 81.5813 299.774 81.7939L299.987 80.8168C299.003 80.6024 298.008 80.3986 297.002 80.2057L296.814 81.1878ZM302.718 82.4763C303.706 82.7191 304.681 82.973 305.644 83.2378L305.909 82.2736C304.937 82.0063 303.953 81.7502 302.957 81.5052L302.718 82.4763ZM308.546 84.0804C309.518 84.3779 310.476 84.6867 311.421 85.0068L311.742 84.0597C310.788 83.7364 309.82 83.4245 308.838 83.1242L308.546 84.0804ZM314.266 86.0195C315.218 86.3752 316.156 86.7427 317.079 87.1217L317.459 86.1966C316.526 85.8135 315.578 85.4421 314.616 85.0827L314.266 86.0195ZM319.854 88.3151C320.78 88.7321 321.691 89.1612 322.586 89.6019L323.028 88.7048C322.122 88.2589 321.201 87.8249 320.264 87.4033L319.854 88.3151ZM325.27 90.9839C326.164 91.4647 327.041 91.9577 327.901 92.4626L328.407 91.6002C327.536 91.089 326.648 90.5899 325.744 90.1033L325.27 90.9839ZM330.472 94.0392C331.325 94.5855 332.161 95.144 332.978 95.7145L333.551 94.8944C332.722 94.3163 331.876 93.7504 331.011 93.197L330.472 94.0392ZM335.413 97.4889C336.22 98.1022 337.007 98.7278 337.775 99.3653L338.414 98.5957C337.634 97.9492 336.836 97.3148 336.019 96.693L335.413 97.4889ZM340.053 101.341C340.426 101.679 340.793 102.019 341.156 102.363L341.844 101.637C341.476 101.288 341.103 100.943 340.724 100.6L340.053 101.341Z" fill="#343176"/>
</svg>
