<svg width="39" height="36" viewBox="0 0 39 36" fill="none" xmlns="http://www.w3.org/2000/svg">
<path d="M16.4487 0.901618C19.3486 -0.466056 24.9225 0.127011 24.979 0.133063V16.3518L24.8393 16.5549L24.9936 16.3518V30.6477C24.9935 30.6803 24.9703 33.9152 22.3589 35.1477C19.495 36.5013 14.0014 35.8381 14.0014 35.8381V5.99049L13.9868 5.96998V5.31861C13.9868 5.31861 13.8904 2.10911 16.4487 0.901618ZM27.7026 6.30103C27.7571 6.29524 33.3325 5.70655 36.2329 7.07447C37.4257 7.64069 38.0244 8.63081 38.3413 9.53052L38.3452 9.52662C38.7062 10.5561 38.7026 11.4963 38.7026 11.4963V26.8108C38.6495 26.8172 33.195 27.4675 30.3452 26.1204C29.4369 25.6879 28.7853 24.8664 28.3891 24.1575L28.3735 24.1819C27.7137 22.9145 27.7027 21.6211 27.7026 21.6155V6.30103ZM2.76414 7.07935C5.67893 5.69978 11.2944 6.30591 11.2944 6.30591V7.47193L11.2885 7.47974V21.6204C11.2885 21.6204 11.2467 24.5581 8.98484 25.9075L8.99363 25.9221C8.98854 25.9378 8.98895 25.9436 8.98386 25.9592C6.23818 27.5104 0.374727 26.8117 0.326635 26.8059V13.2376L0.301245 13.2004V11.4915C0.301245 11.4915 0.205549 8.28152 2.76414 7.07935Z" fill="#DCDDE1"/>
</svg>
