<svg width="15" height="16" viewBox="0 0 15 16" fill="none" xmlns="http://www.w3.org/2000/svg">
<path d="M5.34111 12.0969C8.55052 15.3063 11.0172 16.1119 13.9247 13.2045C14.3797 12.7373 14.8053 12.1469 14.2015 11.5432L11.848 9.74348C11.1052 9.34387 10.8151 9.62808 10.4635 10.0203C9.17869 11.4545 7.79251 10.9785 6.8642 10.0203L5.47977 8.63588C4.5216 7.70747 4.04562 6.32115 5.47977 5.03654C5.87215 4.68499 6.15621 4.39481 5.7566 3.65211L3.95685 1.2986C3.35306 0.694804 2.76269 1.12037 2.29546 1.57543C-0.611852 4.48274 0.19364 6.94945 3.40305 10.159L5.34111 12.0969Z" stroke="#343176"/>
</svg>
