<svg width="80" height="80" viewBox="0 0 80 80" fill="none" xmlns="http://www.w3.org/2000/svg">
<mask id="mask0_7956_67865" style="mask-type:alpha" maskUnits="userSpaceOnUse" x="2" y="2" width="76" height="76">
<path fill-rule="evenodd" clip-rule="evenodd" d="M28.6 2H66C72.6274 2 78 7.37258 78 14V66.6H55.2V25.5999C55.2 16.7634 48.0365 9.59995 39.2 9.59995H28.6V2ZM39.4 13.4001H2V66.0001C2 72.6275 7.37258 78 14 78H51.4V25.4001C51.4 18.7726 46.0274 13.4001 39.4 13.4001Z" fill="#D9D9D9"/>
</mask>
<g mask="url(#mask0_7956_67865)">
<path fill-rule="evenodd" clip-rule="evenodd" d="M28.6 2H66C72.6274 2 78 7.37258 78 14V66.6H55.2V25.5999C55.2 16.7634 48.0365 9.59995 39.2 9.59995H28.6V2ZM39.4 13.4001H2V66.0001C2 72.6275 7.37258 78 14 78H51.4V25.4001C51.4 18.7726 46.0274 13.4001 39.4 13.4001Z" fill="#343176"/>
<path d="M100.8 59L54.2498 0.0999756H27.1748V10.075L43.3248 12.45L51.3998 17.2L54.2498 29.55V59H100.8Z" fill="#4DB6A5"/>
<path d="M48.5498 78L1.99981 13.4V78H48.5498Z" fill="#E14142"/>
<path d="M31.4502 78L78.0002 19.1V78H31.4502Z" fill="#EE7656"/>
</g>
</svg>
