<svg width="80" height="80" viewBox="0 0 80 80" fill="none" xmlns="http://www.w3.org/2000/svg">
<mask id="mask0_7956_67851" style="mask-type:alpha" maskUnits="userSpaceOnUse" x="0" y="0" width="80" height="80">
<path fill-rule="evenodd" clip-rule="evenodd" d="M48.5714 8.53846C48.5714 13.2541 44.7339 17.0769 40 17.0769C35.2661 17.0769 31.4286 13.2541 31.4286 8.53846C31.4286 3.8228 35.2661 0 40 0C44.7339 0 48.5714 3.8228 48.5714 8.53846ZM40 17.0769C45.3043 17.0769 50.3914 19.176 54.1421 22.9123C57.8929 26.6486 60 31.7161 60 37L20 37C20 31.7161 22.1071 26.6486 25.8579 22.9123C29.6086 19.176 34.6957 17.0769 40 17.0769ZM68 50C68 54.9706 63.9706 59 59 59C54.0294 59 50 54.9706 50 50C50 45.0294 54.0294 41 59 41C63.9706 41 68 45.0294 68 50ZM42 80H80C80 74.4305 77.7875 69.089 73.8492 65.1508C69.911 61.2125 64.5695 59 59 59C53.4305 59 48.089 61.2125 44.1508 65.1508C42.4202 66.8814 41.0228 68.8829 40 71.0557C38.9772 68.8829 37.5798 66.8814 35.8492 65.1508C31.911 61.2125 26.5695 59 21 59C25.9706 59 30 54.9706 30 50C30 45.0294 25.9706 41 21 41C16.0294 41 12 45.0294 12 50C12 54.9706 16.0294 59 21 59C15.4305 59 10.089 61.2125 6.15076 65.1508C2.2125 69.089 0 74.4305 0 80H38H42Z" fill="#D9D9D9"/>
</mask>
<g mask="url(#mask0_7956_67851)">
<path fill-rule="evenodd" clip-rule="evenodd" d="M48.5714 8.53846C48.5714 13.2541 44.7339 17.0769 40 17.0769C35.2661 17.0769 31.4286 13.2541 31.4286 8.53846C31.4286 3.8228 35.2661 0 40 0C44.7339 0 48.5714 3.8228 48.5714 8.53846ZM40 17.0769C45.3043 17.0769 50.3914 19.176 54.1421 22.9123C57.8929 26.6486 60 31.7161 60 37L20 37C20 31.7161 22.1071 26.6486 25.8579 22.9123C29.6086 19.176 34.6957 17.0769 40 17.0769ZM68 50C68 54.9706 63.9706 59 59 59C54.0294 59 50 54.9706 50 50C50 45.0294 54.0294 41 59 41C63.9706 41 68 45.0294 68 50ZM42 80H80C80 74.4305 77.7875 69.089 73.8492 65.1508C69.911 61.2125 64.5695 59 59 59C53.4305 59 48.089 61.2125 44.1508 65.1508C42.4202 66.8814 41.0228 68.8829 40 71.0557C38.9772 68.8829 37.5798 66.8814 35.8492 65.1508C31.911 61.2125 26.5695 59 21 59C25.9706 59 30 54.9706 30 50C30 45.0294 25.9706 41 21 41C16.0294 41 12 45.0294 12 50C12 54.9706 16.0294 59 21 59C15.4305 59 10.089 61.2125 6.15076 65.1508C2.2125 69.089 0 74.4305 0 80H38H42Z" fill="#343176"/>
<path d="M12 80L80 -32V80H12Z" fill="#E14142"/>
<path d="M67 80L0 -19V80H67Z" fill="#4DB6A5"/>
<path d="M31 80L80 25V80H31Z" fill="#EE7656"/>
<path d="M40 80L-6 46V80H40Z" fill="#343176"/>
</g>
</svg>
