<svg width="80" height="80" viewBox="0 0 80 80" fill="none" xmlns="http://www.w3.org/2000/svg">
<path fill-rule="evenodd" clip-rule="evenodd" d="M62.5889 56.958C68.555 59.7026 79.9997 58.3568 79.9997 58.3568V27.3078C79.9997 27.3078 80.0315 25.4639 79.2791 23.3763L58.4985 53.0477C59.3039 54.5419 60.5755 56.0255 62.5889 56.958Z" fill="#343176"/>
<path fill-rule="evenodd" clip-rule="evenodd" d="M74.8531 18.3424C68.781 15.5554 57.082 16.7741 57.082 16.7741V47.8231C57.082 47.8231 57.1032 50.4511 58.4808 53.0262L79.2614 23.3548C78.6044 21.5215 77.3539 19.4975 74.8531 18.3424Z" fill="#EE7656"/>
<path fill-rule="evenodd" clip-rule="evenodd" d="M28.5278 69.8544L47.6977 42.472L28.5278 15.0895V69.8544Z" fill="#4DB6A5"/>
<path fill-rule="evenodd" clip-rule="evenodd" d="M28.5278 69.8545V76.6577C28.5278 76.6577 39.9725 78.0035 45.9386 75.2589C51.4066 72.7475 51.4278 66.135 51.4278 66.135V37.1524L28.5278 69.8545Z" fill="#EE7656"/>
<path fill-rule="evenodd" clip-rule="evenodd" d="M47.6987 42.4719L51.4288 37.1523V4.27002C51.4288 4.27002 39.7298 3.04078 33.6577 5.82777C28.3275 8.27566 28.5288 14.7822 28.5288 14.7822V15.0789L47.6987 42.4719Z" fill="#343176"/>
<path fill-rule="evenodd" clip-rule="evenodd" d="M18.1104 56.5552L0.0532227 30.7623V58.3461C0.0532227 58.3461 12.3457 59.7873 18.0892 56.6294C18.0998 56.5976 18.0998 56.587 18.1104 56.5552Z" fill="#E14142"/>
<path fill-rule="evenodd" clip-rule="evenodd" d="M7.3833 41.3068L18.0544 56.5558C22.8124 53.8324 22.8972 47.8345 22.8972 47.8345V19.1486L7.3833 41.3068Z" fill="#4DB6A5"/>
<path fill-rule="evenodd" clip-rule="evenodd" d="M7.38705 41.3066L22.9009 19.1484V16.7853C22.9009 16.7853 11.2019 15.5561 5.1299 18.3536C-0.200348 20.7909 0.000993359 27.2974 0.000993359 27.2974V30.7626L7.38705 41.3066Z" fill="#343176"/>
</svg>
