<svg width="80" height="80" viewBox="0 0 80 80" fill="none" xmlns="http://www.w3.org/2000/svg">
<mask id="mask0_7956_67835" style="mask-type:alpha" maskUnits="userSpaceOnUse" x="16" y="0" width="48" height="68">
<path d="M39.8944 0C26.6722 0 16 10.6722 16 23.8C16 41.1778 39.8944 68 39.8944 68C39.8944 68 63.6944 41.3667 63.6944 23.8944C63.6944 10.6722 53.0222 0 39.8944 0ZM39.8944 33.7167C34.4167 33.7167 30.0722 29.2778 30.0722 23.8944C30.0722 18.5111 34.4167 13.9778 39.8944 13.9778C45.3722 13.9778 49.7167 18.4167 49.7167 23.8C49.7167 29.1833 45.3722 33.7167 39.8944 33.7167Z" fill="#343176"/>
</mask>
<g mask="url(#mask0_7956_67835)">
<path d="M39.8944 0C26.6722 0 16 10.6722 16 23.8C16 41.1778 39.8944 68 39.8944 68C39.8944 68 63.6944 41.3667 63.6944 23.8944C63.6944 10.6722 53.0222 0 39.8944 0ZM39.8944 33.7167C34.4167 33.7167 30.0722 29.2778 30.0722 23.8944C30.0722 18.5111 34.4167 13.9778 39.8944 13.9778C45.3722 13.9778 49.7167 18.4167 49.7167 23.8C49.7167 29.1833 45.3722 33.7167 39.8944 33.7167Z" fill="#343176"/>
<path fill-rule="evenodd" clip-rule="evenodd" d="M21.9502 57.397V70.7523C21.9502 70.7523 44.04 73.3943 55.5553 68.0064C66.1093 63.0762 66.1502 50.0953 66.1502 50.0953V-6.79999L21.9502 57.397Z" fill="#EE7656"/>
<path fill-rule="evenodd" clip-rule="evenodd" d="M12.6001 101.15L58.5001 62.05L12.6001 22.95V101.15Z" fill="#4DB6A5"/>
</g>
<mask id="mask1_7956_67835" style="mask-type:alpha" maskUnits="userSpaceOnUse" x="54" y="43" width="26" height="37">
<path d="M66.9986 43C74.1931 43 80 48.8069 80 55.95C80 65.4056 66.9986 80 66.9986 80C66.9986 80 54.0486 65.5083 54.0486 56.0014C54.0486 48.8069 59.8556 43 66.9986 43ZM66.9986 61.3458C69.9792 61.3458 72.3431 58.9306 72.3431 56.0014C72.3431 53.0722 69.9792 50.6056 66.9986 50.6056C64.0181 50.6056 61.6542 53.0208 61.6542 55.95C61.6542 58.8792 64.0181 61.3458 66.9986 61.3458Z" fill="#343176"/>
</mask>
<g mask="url(#mask1_7956_67835)">
<path d="M66.9986 43C74.1931 43 80 48.8069 80 55.95C80 65.4056 66.9986 80 66.9986 80C66.9986 80 54.0486 65.5083 54.0486 56.0014C54.0486 48.8069 59.8556 43 66.9986 43ZM66.9986 61.3458C69.9792 61.3458 72.3431 58.9306 72.3431 56.0014C72.3431 53.0722 69.9792 50.6056 66.9986 50.6056C64.0181 50.6056 61.6542 53.0208 61.6542 55.95C61.6542 58.8792 64.0181 61.3458 66.9986 61.3458Z" fill="#343176"/>
<path fill-rule="evenodd" clip-rule="evenodd" d="M86 74.3002V81.6439C86 81.6439 69.5076 83.0966 60.9102 80.1339C53.0305 77.4229 53 70.2851 53 70.2851V39L86 74.3002Z" fill="#E14142"/>
<path fill-rule="evenodd" clip-rule="evenodd" d="M82 98L50 76.5L82 55V98Z" fill="#4DB6A5"/>
</g>
<mask id="mask2_7956_67835" style="mask-type:alpha" maskUnits="userSpaceOnUse" x="0" y="43" width="26" height="37">
<path d="M13.0502 43C5.85577 43 0.0488281 48.8069 0.0488281 55.95C0.0488281 65.4056 13.0502 80 13.0502 80C13.0502 80 26.0002 65.5083 26.0002 56.0014C26.0002 48.8069 20.1933 43 13.0502 43ZM13.0502 61.3458C10.0697 61.3458 7.70577 58.9306 7.70577 56.0014C7.70577 53.0722 10.0697 50.6056 13.0502 50.6056C16.0308 50.6056 18.3947 53.0208 18.3947 55.95C18.3947 58.8792 16.0308 61.3458 13.0502 61.3458Z" fill="#343176"/>
</mask>
<g mask="url(#mask2_7956_67835)">
<path d="M13.0502 43C5.85577 43 0.0488281 48.8069 0.0488281 55.95C0.0488281 65.4056 13.0502 80 13.0502 80C13.0502 80 26.0002 65.5083 26.0002 56.0014C26.0002 48.8069 20.1933 43 13.0502 43ZM13.0502 61.3458C10.0697 61.3458 7.70577 58.9306 7.70577 56.0014C7.70577 53.0722 10.0697 50.6056 13.0502 50.6056C16.0308 50.6056 18.3947 53.0208 18.3947 55.95C18.3947 58.8792 16.0308 61.3458 13.0502 61.3458Z" fill="#343176"/>
<path fill-rule="evenodd" clip-rule="evenodd" d="M3.28613 74.2307V81.4976C3.28613 81.4976 15.3056 82.9351 21.5713 80.0035C27.3139 77.3208 27.3361 70.2577 27.3361 70.2577V39.3L3.28613 74.2307Z" fill="#4DB6A5"/>
<path fill-rule="evenodd" clip-rule="evenodd" d="M-1.80127 98.0375L23.1737 76.7625L-1.80127 55.4875V98.0375Z" fill="#E14142"/>
</g>
</svg>
