<svg width="32" height="64" viewBox="0 0 32 64" fill="none" xmlns="http://www.w3.org/2000/svg">
<path d="M21.1484 47.0301H19.7064C28.9585 35.3938 25.5942 27.7573 24.7531 26.3028L23.1911 16.4849L29.1991 10.5456C31.2418 15.7577 37.2501 33.3334 21.1484 47.0301ZM22.7104 27.6363C23.4313 28.9697 26.195 35.9997 16.5822 47.0301H14.4193C19.466 36.8483 18.1443 28.727 16.5822 24.4852L22.7104 27.6363ZM1.32233 9.33325L9.4932 8.12114C9.85368 8.12114 10.2142 7.7575 10.3344 7.51508L14.0593 0L17.7843 7.51508C17.9045 7.87872 18.265 8.12114 18.6255 8.12114L26.7964 9.33325L20.9086 15.1514C20.6683 15.3938 20.5481 15.8786 20.5481 16.2422L21.8699 24.4846L14.5402 20.6058C14.42 20.4846 14.1797 20.4846 13.9394 20.4846C13.6991 20.4846 13.5789 20.4846 13.3386 20.6058L6.00887 24.4846L7.57091 16.2422C7.69107 15.8786 7.45075 15.3937 7.21043 15.1514L1.32233 9.33325ZM6.36905 27.1515L13.5786 23.3939C14.9004 26.3029 18.0245 35.2722 11.6561 47.0302H8.2916C12.4972 38.6669 8.2916 30.1815 6.36905 27.1515ZM6.84969 49.4543H21.2689C21.9898 49.4543 22.4705 49.9391 22.4705 50.6664V52.4846H5.64809V50.6664C5.64809 49.9391 6.24889 49.4543 6.84969 49.4543ZM28.2377 62.7879C28.2377 63.5152 27.7571 64 27.0361 64H1.2016C0.480639 64 0 63.5152 0 62.7879V56.1212C0 55.394 0.480639 54.9091 1.2016 54.9091H27.0361C27.7571 54.9091 28.2377 55.394 28.2377 56.1212V62.7879Z" fill="#343176"/>
</svg>
