<svg width="89" height="100" viewBox="0 0 89 100" fill="none" xmlns="http://www.w3.org/2000/svg">
<path d="M5.84632 91.8179V91.1166C5.84632 90.9763 5.72942 90.8594 5.58915 90.8594H4.71242C4.57214 90.8594 4.45524 90.9763 4.45524 91.1166V91.8179C0.866491 91.8296 0.585938 94.3897 0.585938 95.1729C0.585938 95.9561 0.866491 98.5162 4.45524 98.5278V99.3929C4.45524 99.5332 4.57214 99.6501 4.71242 99.6501H5.58915C5.72942 99.6501 5.84632 99.5332 5.84632 99.3929V98.5278C9.43507 98.5162 9.71563 95.9561 9.71563 95.1729C9.71563 94.4014 9.43507 91.8413 5.84632 91.8179ZM5.84632 97.1952V93.1623C7.98554 93.1623 8.30117 94.4247 8.30117 95.1846C8.30117 95.9327 7.97386 97.1952 5.84632 97.1952ZM4.45524 93.1623V97.1952C2.31602 97.1952 2.0004 95.9327 2.0004 95.1846C2.0004 94.4247 2.31602 93.1739 4.45524 93.1623Z" fill="#333435"/>
<path d="M20.5848 91.1875H16.4583C16.3181 91.1875 16.2012 91.3044 16.2012 91.4447V99.4054C16.2012 99.5457 16.3181 99.6626 16.4583 99.6626H20.5848C20.7251 99.6626 20.842 99.5457 20.842 99.4054V98.5754C20.842 98.4351 20.7251 98.3182 20.5848 98.3182H17.5923V95.7348H20.4913C20.6316 95.7348 20.7485 95.6179 20.7485 95.4776V94.6477C20.7485 94.5074 20.6316 94.3905 20.4913 94.3905H17.5923V92.5318H20.5848C20.7251 92.5318 20.842 92.4149 20.842 92.2746V91.4447C20.8303 91.3044 20.7251 91.1875 20.5848 91.1875Z" fill="#333435"/>
<path d="M33.436 91.1875H32.5593C32.419 91.1875 32.3021 91.3044 32.3021 91.4447V94.4256H28.7251V91.4447C28.7251 91.3044 28.6082 91.1875 28.4679 91.1875H27.5912C27.4509 91.1875 27.334 91.3044 27.334 91.4447V99.4054C27.334 99.5457 27.4509 99.6626 27.5912 99.6626H28.4679C28.6082 99.6626 28.7251 99.5457 28.7251 99.4054V95.7699H32.3021V99.4054C32.3021 99.5457 32.419 99.6626 32.5593 99.6626H33.436C33.5763 99.6626 33.6932 99.5457 33.6932 99.4054V91.4447C33.6815 91.3044 33.5763 91.1875 33.436 91.1875Z" fill="#333435"/>
<path d="M47.0835 90.9413L41.9868 96.8563V91.4323C41.9868 91.292 41.8699 91.1751 41.7296 91.1751H40.8529C40.7126 91.1751 40.5957 91.292 40.5957 91.4323V99.7554C40.5957 99.8606 40.6658 99.9541 40.7594 99.9892C40.7827 100.001 40.8178 100.001 40.8412 100.001C40.9113 100.001 40.9815 99.9658 41.0282 99.919L46.125 94.004V99.4047C46.125 99.545 46.2418 99.6619 46.3821 99.6619H47.2705C47.4108 99.6619 47.5277 99.545 47.5277 99.4047V91.105C47.5277 90.9998 47.4576 90.9062 47.3641 90.8712C47.2589 90.8361 47.1536 90.8712 47.0835 90.9413Z" fill="#333435"/>
<path d="M56.793 95.162L60.3467 91.62C60.4168 91.5499 60.4402 91.4446 60.4051 91.3394C60.3701 91.2459 60.2765 91.1875 60.1713 91.1875H58.979C58.9088 91.1875 58.8504 91.2109 58.8036 91.2576L55.8461 94.2385V91.433C55.8461 91.2927 55.7292 91.1758 55.589 91.1758H54.7005C54.5603 91.1758 54.4434 91.2927 54.4434 91.433V99.3937C54.4434 99.534 54.5603 99.6508 54.7005 99.6508H55.589C55.7292 99.6508 55.8461 99.534 55.8461 99.3937V96.1556L58.8855 99.569C58.9322 99.6158 59.0024 99.6508 59.0725 99.6508H60.2882C60.3934 99.6508 60.4753 99.5924 60.522 99.4989C60.5571 99.4054 60.5454 99.3002 60.4753 99.23L56.793 95.162Z" fill="#333435"/>
<path d="M70.5906 91.0586C68.0773 91.0586 66.1719 92.9523 66.1719 95.4539C66.1719 97.9322 68.0539 99.8025 70.5438 99.8025C71.0699 99.8025 72.0869 99.6973 73.0922 98.9842C73.1623 98.9375 73.1974 98.8557 73.1974 98.7738V97.675C73.1974 97.5698 73.139 97.4763 73.0454 97.4412C72.9519 97.3944 72.835 97.4295 72.7649 97.4996C72.5895 97.675 72.2973 97.9322 71.9115 98.1192C71.479 98.3413 70.9997 98.4582 70.5438 98.4582C69.3164 98.4582 67.5863 97.523 67.5863 95.4656C67.5863 93.7472 68.8839 92.4029 70.5321 92.4029C70.9413 92.4029 71.3972 92.5081 71.7946 92.6952C72.122 92.8471 72.4843 93.1043 72.7649 93.3849C72.835 93.455 72.9402 93.4784 73.0454 93.4433C73.139 93.4082 73.1974 93.3147 73.1974 93.2095V92.1107C73.1974 92.0288 73.1623 91.9587 73.1039 91.9119C72.3557 91.3392 71.5258 91.0586 70.5906 91.0586Z" fill="#333435"/>
<path d="M87.4066 94.7408H83.9581V91.2923C83.9581 91.1521 83.8412 91.0352 83.701 91.0352H82.8593C82.719 91.0352 82.6021 91.1521 82.6021 91.2923V94.7408H79.1537C79.0134 94.7408 78.8965 94.8577 78.8965 94.998V95.8396C78.8965 95.9799 79.0134 96.0968 79.1537 96.0968H82.6021V99.5453C82.6021 99.6856 82.719 99.8025 82.8593 99.8025H83.701C83.8412 99.8025 83.9581 99.6856 83.9581 99.5453V96.0968H87.4066C87.5469 96.0968 87.6638 95.9799 87.6638 95.8396V94.998C87.6521 94.846 87.5469 94.7408 87.4066 94.7408Z" fill="#333435"/>
<path fill-rule="evenodd" clip-rule="evenodd" d="M69.0435 58.4198C75.6248 61.4474 88.2497 59.9628 88.2497 59.9628V25.7119C88.2497 25.7119 88.2848 23.6779 87.4548 21.375L64.5312 54.1063C65.4197 55.7545 66.8224 57.3911 69.0435 58.4198Z" fill="#343176"/>
<path fill-rule="evenodd" clip-rule="evenodd" d="M82.5724 15.8215C75.8742 12.7471 62.9688 14.0915 62.9688 14.0915V48.3424C62.9688 48.3424 62.9921 51.2415 64.5118 54.0821L87.4354 21.3508C86.7106 19.3285 85.3312 17.0957 82.5724 15.8215Z" fill="#EE7656"/>
<path fill-rule="evenodd" clip-rule="evenodd" d="M31.4707 72.645L52.6174 42.4387L31.4707 12.2324V72.645Z" fill="#4DB6A5"/>
<path fill-rule="evenodd" clip-rule="evenodd" d="M31.4707 72.6449V80.1497C31.4707 80.1497 44.0956 81.6343 50.6769 78.6066C56.7089 75.8362 56.7322 68.5418 56.7322 68.5418V36.5703L31.4707 72.6449Z" fill="#EE7656"/>
<path fill-rule="evenodd" clip-rule="evenodd" d="M52.6185 42.4394L56.7333 36.5712V0.297871C56.7333 0.297871 43.8279 -1.05814 37.1296 2.01626C31.2497 4.7166 31.4718 11.8941 31.4718 11.8941V12.2214L52.6185 42.4394Z" fill="#343176"/>
<path fill-rule="evenodd" clip-rule="evenodd" d="M19.9779 57.9743L0.0585938 29.5215V59.9499C0.0585938 59.9499 13.6187 61.5397 19.9545 58.0562C19.9662 58.0211 19.9662 58.0094 19.9779 57.9743Z" fill="#E14142"/>
<path fill-rule="evenodd" clip-rule="evenodd" d="M8.14453 41.1541L19.9161 57.9756C25.1648 54.9714 25.2583 48.355 25.2583 48.355V16.7108L8.14453 41.1541Z" fill="#4DB6A5"/>
<path fill-rule="evenodd" clip-rule="evenodd" d="M8.14885 41.1534L25.2626 16.7101V14.1033C25.2626 14.1033 12.3572 12.7473 5.65893 15.8334C-0.221009 18.522 0.0010958 25.6995 0.0010958 25.6995V29.5221L8.14885 41.1534Z" fill="#343176"/>
</svg>
