<svg width="24" height="18" viewBox="0 0 24 18" fill="none" xmlns="http://www.w3.org/2000/svg">
<path d="M1.00586 14.85H21.0059" stroke="white" stroke-linecap="round"/>
<path d="M1.00586 7.85001H21.0059" stroke="white" stroke-linecap="round"/>
<path d="M1.00586 0.850014H21.0059" stroke="white" stroke-linecap="round"/>
<path d="M22.3058 10.7499C22.3058 14.0084 19.6643 16.65 16.4058 16.65C13.1474 16.65 10.5059 14.0084 10.5059 10.7499C10.5059 7.4913 13.1474 4.84973 16.4058 4.84973C19.6643 4.84973 22.3058 7.4913 22.3058 10.7499Z" fill="#49454C" stroke="white"/>
<path d="M22.6693 17.3801C22.8793 17.5595 23.1949 17.5347 23.3743 17.3248C23.5537 17.1149 23.5289 16.7992 23.3189 16.6199L22.6693 17.3801ZM20.3481 15.3968L22.6693 17.3801L23.3189 16.6199L20.9977 14.6365L20.3481 15.3968Z" fill="white"/>
</svg>
