<svg width="28" height="28" viewBox="0 0 28 28" fill="none" xmlns="http://www.w3.org/2000/svg">
<path d="M4.61397 7.35581L2.07484 25.5H25.9298L23.3907 7.35581H4.61397Z" stroke="white"/>
<path d="M8.63281 7.93548C8.63281 7.22169 8.77341 6.51488 9.04656 5.85541C9.31972 5.19595 9.7201 4.59675 10.2248 4.09202C10.7296 3.58729 11.3288 3.18691 11.9882 2.91375C12.6477 2.64059 13.3545 2.5 14.0683 2.5C14.7821 2.5 15.4889 2.64059 16.1484 2.91375C16.8078 3.18691 17.407 3.58728 17.9118 4.09202C18.4165 4.59675 18.8169 5.19595 19.09 5.85541C19.3632 6.51488 19.5038 7.22169 19.5038 7.93548" stroke="white"/>
<path d="M19.5 7.61279L19.5 11.2902" stroke="white"/>
<path d="M8.65625 7.55029L8.65625 11.2277" stroke="white"/>
</svg>
