<svg width="28" height="28" viewBox="0 0 28 28" fill="none" xmlns="http://www.w3.org/2000/svg">
<path d="M14 25.4666V1.99997" stroke="white" stroke-linecap="round" stroke-linejoin="round"/>
<path d="M9.59844 25.4663L18.3984 25.4663" stroke="white" stroke-linecap="round" stroke-linejoin="round"/>
<path d="M3 4.19997L25 4.19997" stroke="white" stroke-linecap="round" stroke-linejoin="round"/>
<path d="M17.5046 14.207L21.5 5.22967L25.4954 14.2069C25.4512 14.6687 25.0906 15.2138 24.3836 15.6797C23.6457 16.1659 22.6169 16.5 21.5 16.5C20.3705 16.5 19.3421 16.1655 18.6081 15.6801C17.9056 15.2155 17.5483 14.6705 17.5046 14.207Z" stroke="white"/>
<path d="M2.50458 14.207L6.5 5.22967L10.4954 14.2069C10.4512 14.6687 10.0906 15.2138 9.38362 15.6797C8.64572 16.1659 7.61691 16.5 6.5 16.5C5.37047 16.5 4.34212 16.1655 3.60814 15.6801C2.90558 15.2155 2.54827 14.6705 2.50458 14.207Z" stroke="white"/>
</svg>
