<svg width="56" height="72" viewBox="0 0 56 72" fill="none" xmlns="http://www.w3.org/2000/svg">
<rect x="0.5" y="0.5" width="55" height="71" rx="5.5" fill="#F4F4F4" stroke="#343176"/>
<path d="M17.9404 59V51.7246H20.5479C21.3063 51.7246 21.9069 51.9232 22.3496 52.3203C22.7956 52.7142 23.0186 53.2513 23.0186 53.9316C23.0186 54.3841 22.9144 54.7764 22.7061 55.1084C22.501 55.4372 22.2096 55.6927 21.832 55.875C21.4577 56.054 21.0166 56.1436 20.5088 56.1436H18.8193V59H17.9404ZM18.8193 55.3623H20.5186C21.0231 55.3623 21.4202 55.2354 21.71 54.9814C22.0029 54.7243 22.1494 54.3743 22.1494 53.9316C22.1494 53.4889 22.0029 53.1406 21.71 52.8867C21.4202 52.6328 21.0231 52.5059 20.5186 52.5059H18.8193V55.3623ZM27.3096 59H25.0635V51.7246H27.4072C28.1136 51.7246 28.7191 51.8695 29.2236 52.1592C29.7314 52.4489 30.1204 52.8656 30.3906 53.4092C30.6608 53.9495 30.7959 54.5957 30.7959 55.3477C30.7959 56.1061 30.6592 56.7588 30.3857 57.3057C30.1123 57.8493 29.7152 58.2676 29.1943 58.5605C28.6768 58.8535 28.0485 59 27.3096 59ZM25.9424 58.2188H27.251C28.1559 58.2188 28.8265 57.9632 29.2627 57.4521C29.6989 56.9378 29.917 56.2363 29.917 55.3477C29.917 54.4688 29.7021 53.7754 29.2725 53.2676C28.846 52.7598 28.2048 52.5059 27.3486 52.5059H25.9424V58.2188ZM32.958 59V51.7246H37.5332V52.5059H33.8369V54.8838H37.2402V55.665H33.8369V59H32.958Z" fill="#343176"/>
<path d="M13.5803 40.4345C11.9837 38.8441 13.7111 36.6586 18.3991 34.3379L21.3488 32.8777L22.498 30.3731C23.13 28.9956 24.0733 26.748 24.5942 25.3784L25.5413 22.8882L24.8887 21.0453C24.0862 18.7793 23.8 15.3741 24.3091 14.1497C24.9988 12.4911 27.2578 12.6613 28.1522 14.4392C28.8507 15.8277 28.7793 18.3422 27.9513 21.5134L27.2725 24.1132L27.8704 25.1243C28.1993 25.6804 29.1598 27.0007 30.005 28.0584L31.5934 30.0266L33.57 29.7697C39.8493 28.9535 42 30.3407 42 32.3297C42 34.84 37.0694 35.0472 32.929 32.1504C31.9974 31.4986 31.3576 30.8511 31.3576 30.8511C31.3576 30.8511 28.7638 31.3771 27.4867 31.72C26.1685 32.0739 25.5108 32.2956 23.5798 32.9449C23.5798 32.9449 22.9023 33.9249 22.4608 34.6374C20.8183 37.2882 18.9005 39.485 17.5308 40.2845C15.9973 41.1797 14.3897 41.2407 13.5803 40.4345ZM16.0859 39.5428C16.9834 38.9903 18.7999 36.8502 20.0574 34.8639L20.5665 34.0597L18.2484 35.2207C14.6681 37.0139 13.0301 38.7039 13.8818 39.7262C14.3603 40.3004 14.9327 40.2528 16.0859 39.5428ZM39.3421 33.0403C40.2199 32.4278 40.0924 31.1936 39.1 30.696C38.3277 30.3087 37.7052 30.2292 35.6988 30.2587C34.4659 30.3424 32.4832 30.5899 32.1472 30.6652C32.1472 30.6652 33.2364 31.415 33.7199 31.6907C34.3637 32.0569 35.928 32.7367 37.07 33.0849C38.1966 33.4284 38.8483 33.3922 39.3421 33.0403ZM29.9911 29.1689C29.4598 28.6126 28.5565 27.4515 27.9836 26.5887C27.2344 25.61 26.8588 24.9195 26.8588 24.9195C26.8588 24.9195 26.3112 26.674 25.8619 27.7297L24.4603 31.1806L24.054 31.9634C24.054 31.9634 26.2143 31.2578 27.3135 30.9718C28.4777 30.6689 30.8405 30.2061 30.8405 30.2061L29.9911 29.1689ZM26.9776 17.131C27.1131 15.9983 27.1706 14.8672 26.8053 14.2968C25.7919 13.1933 24.5687 14.1136 24.7759 16.7372C24.8456 17.6198 25.0657 19.1286 25.36 20.0585L25.895 21.7493L26.2716 20.4759C26.4787 19.7755 26.7964 18.2703 26.9776 17.131Z" fill="#343176"/>
</svg>
