<svg width="24" height="24" viewBox="0 0 24 24" fill="none" xmlns="http://www.w3.org/2000/svg">
<rect x="0.5" y="0.5" width="23" height="23" rx="11.5" stroke="#4DB6A5"/>
<path d="M13.0253 6.05676C13.2714 6.05676 13.4794 6.14172 13.6494 6.31164C13.8193 6.48156 13.9042 6.68957 13.9042 6.93566C13.9042 7.17589 13.8164 7.3839 13.6406 7.55968C13.4707 7.7296 13.2656 7.81456 13.0253 7.81456C12.7851 7.81456 12.5771 7.7296 12.4013 7.55968C12.2314 7.3839 12.1465 7.17589 12.1465 6.93566C12.1465 6.68957 12.2314 6.48156 12.4013 6.31164C12.5713 6.14172 12.7793 6.05676 13.0253 6.05676ZM13.1396 9.54598L11.3994 15.7071C11.2822 16.1231 11.2236 16.3721 11.2236 16.4541C11.2236 16.5479 11.25 16.624 11.3027 16.6826C11.3613 16.7412 11.4287 16.7705 11.5049 16.7705C11.5927 16.7705 11.6982 16.7236 11.8213 16.6299C12.1552 16.3662 12.4922 15.9912 12.832 15.5049L13.1396 15.7071C12.7412 16.3164 12.2724 16.8291 11.7334 17.2451C11.3349 17.5557 10.9541 17.7109 10.5908 17.7109C10.3506 17.7109 10.1543 17.6406 10.0019 17.5C9.8496 17.3535 9.77343 17.1719 9.77343 16.9551C9.77343 16.7383 9.84667 16.3779 9.99315 15.874L11.1357 11.9366C11.3232 11.2921 11.417 10.8878 11.417 10.7237C11.417 10.5948 11.3701 10.4893 11.2763 10.4073C11.1885 10.3253 11.0654 10.2843 10.9072 10.2843C10.7783 10.2843 10.5117 10.3165 10.1074 10.3809V10.0382L13.1396 9.54598Z" fill="#4DB6A5"/>
</svg>
