<svg width="16" height="16" viewBox="0 0 16 16" fill="none" xmlns="http://www.w3.org/2000/svg">
<rect x="0.5" y="0.5" width="15" height="15" rx="7.5" stroke="#E14142"/>
<path d="M8.69531 3.87305C8.9375 3.87305 9.14062 3.95703 9.30469 4.125C9.47266 4.29297 9.55664 4.49609 9.55664 4.73438C9.55664 4.97266 9.47266 5.17578 9.30469 5.34375C9.13672 5.51172 8.93359 5.5957 8.69531 5.5957C8.46094 5.5957 8.25977 5.51172 8.0918 5.34375C7.92383 5.17578 7.83984 4.97266 7.83984 4.73438C7.83984 4.49609 7.92188 4.29297 8.08594 4.125C8.25391 3.95703 8.45703 3.87305 8.69531 3.87305ZM9.05859 6.56836L7.85742 10.7344C7.79102 10.9727 7.75781 11.1289 7.75781 11.2031C7.75781 11.2461 7.77539 11.2871 7.81055 11.3262C7.8457 11.3613 7.88281 11.3789 7.92188 11.3789C7.98828 11.3789 8.05469 11.3496 8.12109 11.291C8.29688 11.1465 8.50781 10.8848 8.75391 10.5059L8.95312 10.623C8.36328 11.6504 7.73633 12.1641 7.07227 12.1641C6.81836 12.1641 6.61523 12.0938 6.46289 11.9531C6.31445 11.8086 6.24023 11.627 6.24023 11.4082C6.24023 11.2637 6.27344 11.0801 6.33984 10.8574L7.1543 8.05664C7.23242 7.78711 7.27148 7.58398 7.27148 7.44727C7.27148 7.36133 7.23438 7.28516 7.16016 7.21875C7.08594 7.15234 6.98438 7.11914 6.85547 7.11914C6.79688 7.11914 6.72656 7.12109 6.64453 7.125L6.7207 6.89062L8.70703 6.56836H9.05859Z" fill="#E14142"/>
</svg>
