<svg width="71" height="80" viewBox="0 0 71 80" fill="none" xmlns="http://www.w3.org/2000/svg">
<path d="M4.67705 73.4539V72.8928C4.67705 72.7805 4.58353 72.687 4.47131 72.687H3.76993C3.6577 72.687 3.56419 72.7805 3.56419 72.8928V73.4539C0.693193 73.4632 0.46875 75.5112 0.46875 76.1378C0.46875 76.7644 0.693193 78.8124 3.56419 78.8218V79.5138C3.56419 79.626 3.6577 79.7195 3.76993 79.7195H4.47131C4.58353 79.7195 4.67705 79.626 4.67705 79.5138V78.8218C7.54804 78.8124 7.77249 76.7644 7.77249 76.1378C7.77249 75.5206 7.54804 73.4726 4.67705 73.4539ZM4.67705 77.7557V74.5293C6.38842 74.5293 6.64092 75.5393 6.64092 76.1472C6.64092 76.7457 6.37907 77.7557 4.67705 77.7557ZM3.56419 74.5293V77.7557C1.85281 77.7557 1.60031 76.7457 1.60031 76.1472C1.60031 75.5393 1.85281 74.5387 3.56419 74.5293Z" fill="#333435"/>
<path d="M16.4679 72.9487H13.1667C13.0545 72.9487 12.9609 73.0422 12.9609 73.1545V79.523C12.9609 79.6352 13.0545 79.7288 13.1667 79.7288H16.4679C16.5801 79.7288 16.6736 79.6352 16.6736 79.523V78.8591C16.6736 78.7468 16.5801 78.6533 16.4679 78.6533H14.0738V76.5866H16.393C16.5053 76.5866 16.5988 76.4931 16.5988 76.3808V75.7169C16.5988 75.6046 16.5053 75.5111 16.393 75.5111H14.0738V74.0242H16.4679C16.5801 74.0242 16.6736 73.9307 16.6736 73.8184V73.1545C16.6642 73.0422 16.5801 72.9487 16.4679 72.9487Z" fill="#333435"/>
<path d="M26.7488 72.9487H26.0474C25.9352 72.9487 25.8417 73.0422 25.8417 73.1545V75.5392H22.98V73.1545C22.98 73.0422 22.8865 72.9487 22.7743 72.9487H22.0729C21.9607 72.9487 21.8672 73.0422 21.8672 73.1545V79.523C21.8672 79.6352 21.9607 79.7288 22.0729 79.7288H22.7743C22.8865 79.7288 22.98 79.6352 22.98 79.523V76.6146H25.8417V79.523C25.8417 79.6352 25.9352 79.7288 26.0474 79.7288H26.7488C26.861 79.7288 26.9546 79.6352 26.9546 79.523V73.1545C26.9452 73.0422 26.861 72.9487 26.7488 72.9487Z" fill="#333435"/>
<path d="M37.6668 72.7522L33.5894 77.4842V73.1449C33.5894 73.0327 33.4959 72.9392 33.3837 72.9392H32.6823C32.5701 72.9392 32.4766 73.0327 32.4766 73.1449V79.8034C32.4766 79.8876 32.5327 79.9624 32.6075 79.9904C32.6262 79.9998 32.6542 79.9998 32.6729 79.9998C32.7291 79.9998 32.7852 79.9717 32.8226 79.9343L36.9 75.2023V79.5229C36.9 79.6351 36.9935 79.7286 37.1057 79.7286H37.8164C37.9286 79.7286 38.0222 79.6351 38.0222 79.5229V72.8831C38.0222 72.7989 37.9661 72.7241 37.8912 72.6961C37.8071 72.668 37.7229 72.6961 37.6668 72.7522Z" fill="#333435"/>
<path d="M45.4344 76.1284L48.2773 73.2948C48.3334 73.2387 48.3521 73.1545 48.3241 73.0704C48.296 72.9956 48.2212 72.9488 48.1371 72.9488H47.1832C47.1271 72.9488 47.0803 72.9675 47.0429 73.0049L44.6769 75.3896V73.1452C44.6769 73.033 44.5834 72.9395 44.4712 72.9395H43.7604C43.6482 72.9395 43.5547 73.033 43.5547 73.1452V79.5138C43.5547 79.626 43.6482 79.7195 43.7604 79.7195H44.4712C44.5834 79.7195 44.6769 79.626 44.6769 79.5138V76.9233L47.1084 79.654C47.1458 79.6914 47.2019 79.7195 47.258 79.7195H48.2306C48.3147 79.7195 48.3802 79.6727 48.4176 79.5979C48.4457 79.5231 48.4363 79.4389 48.3802 79.3828L45.4344 76.1284Z" fill="#333435"/>
<path d="M56.4725 72.8457C54.4618 72.8457 52.9375 74.3607 52.9375 76.362C52.9375 78.3445 54.4431 79.8408 56.4351 79.8408C56.8559 79.8408 57.6695 79.7567 58.4737 79.1862C58.5299 79.1488 58.5579 79.0833 58.5579 79.0179V78.1388C58.5579 78.0546 58.5112 77.9798 58.4363 77.9518C58.3615 77.9144 58.268 77.9424 58.2119 77.9985C58.0716 78.1388 57.8378 78.3445 57.5292 78.4942C57.1832 78.6719 56.7998 78.7654 56.4351 78.7654C55.4531 78.7654 54.0691 78.0172 54.0691 76.3713C54.0691 74.9966 55.1071 73.9212 56.4257 73.9212C56.753 73.9212 57.1177 74.0053 57.4357 74.155C57.6975 74.2765 57.9875 74.4823 58.2119 74.7067C58.268 74.7628 58.3522 74.7815 58.4363 74.7535C58.5112 74.7254 58.5579 74.6506 58.5579 74.5664V73.6874C58.5579 73.6219 58.5299 73.5658 58.4831 73.5284C57.8846 73.0701 57.2206 72.8457 56.4725 72.8457Z" fill="#333435"/>
<path d="M69.9253 75.7912H67.1665V73.0324C67.1665 72.9202 67.073 72.8267 66.9608 72.8267H66.2874C66.1752 72.8267 66.0817 72.9202 66.0817 73.0324V75.7912H63.3229C63.2107 75.7912 63.1172 75.8847 63.1172 75.9969V76.6702C63.1172 76.7825 63.2107 76.876 63.3229 76.876H66.0817V79.6348C66.0817 79.747 66.1752 79.8405 66.2874 79.8405H66.9608C67.073 79.8405 67.1665 79.747 67.1665 79.6348V76.876H69.9253C70.0375 76.876 70.131 76.7825 70.131 76.6702V75.9969C70.1217 75.8753 70.0375 75.7912 69.9253 75.7912Z" fill="#333435"/>
<path fill-rule="evenodd" clip-rule="evenodd" d="M55.2348 46.7354C60.4998 49.1575 70.5997 47.9698 70.5997 47.9698V20.5691C70.5997 20.5691 70.6278 18.9419 69.9638 17.0996L51.625 43.2846C52.3357 44.6032 53.4579 45.9124 55.2348 46.7354Z" fill="#343176"/>
<path fill-rule="evenodd" clip-rule="evenodd" d="M66.0579 12.6572C60.6994 10.1977 50.375 11.2731 50.375 11.2731V38.6738C50.375 38.6738 50.3937 40.9931 51.6094 43.2656L69.9483 17.0806C69.3685 15.4627 68.2649 13.6765 66.0579 12.6572Z" fill="#EE7656"/>
<path fill-rule="evenodd" clip-rule="evenodd" d="M25.1758 58.1166L42.0931 33.9516L25.1758 9.78662V58.1166Z" fill="#4DB6A5"/>
<path fill-rule="evenodd" clip-rule="evenodd" d="M25.1758 58.1164V64.1202C25.1758 64.1202 35.2757 65.3079 40.5407 62.8858C45.3663 60.6694 45.385 54.8339 45.385 54.8339V29.2568L25.1758 58.1164Z" fill="#EE7656"/>
<path fill-rule="evenodd" clip-rule="evenodd" d="M42.094 33.9514L45.3858 29.2569V0.238296C45.3858 0.238296 35.0615 -0.846509 29.7029 1.61301C24.999 3.77327 25.1767 9.51525 25.1767 9.51525V9.77711L42.094 33.9514Z" fill="#343176"/>
<path fill-rule="evenodd" clip-rule="evenodd" d="M15.9823 46.3799L0.046875 23.6177V47.9603C0.046875 47.9603 10.8949 49.2322 15.9636 46.4454C15.9729 46.4173 15.9729 46.408 15.9823 46.3799Z" fill="#E14142"/>
<path fill-rule="evenodd" clip-rule="evenodd" d="M6.51562 32.9232L15.9329 46.3804C20.1318 43.977 20.2066 38.6839 20.2066 38.6839V13.3687L6.51562 32.9232Z" fill="#4DB6A5"/>
<path fill-rule="evenodd" clip-rule="evenodd" d="M6.51906 32.9228L20.2101 13.3682V11.2827C20.2101 11.2827 9.8857 10.1979 4.52713 12.6668C-0.176807 14.8177 0.000876638 20.5597 0.000876638 20.5597V23.6177L6.51906 32.9228Z" fill="#343176"/>
</svg>
