<svg width="127" height="36" viewBox="0 0 127 36" fill="none" xmlns="http://www.w3.org/2000/svg">
<path d="M54.6025 14.8409V14.2272C54.6025 14.1044 54.5002 14.0022 54.3775 14.0022H53.6104C53.4877 14.0022 53.3854 14.1044 53.3854 14.2272V14.8409C50.2455 14.8511 50 17.091 50 17.7763C50 18.4615 50.2455 20.7014 53.3854 20.7116V21.4685C53.3854 21.5913 53.4877 21.6935 53.6104 21.6935H54.3775C54.5002 21.6935 54.6025 21.5913 54.6025 21.4685V20.7116C57.7424 20.7014 57.9879 18.4615 57.9879 17.7763C57.9879 17.1012 57.7424 14.8613 54.6025 14.8409ZM54.6025 19.5457V16.0171C56.4742 16.0171 56.7503 17.1217 56.7503 17.7865C56.7503 18.4411 56.4639 19.5457 54.6025 19.5457ZM53.3854 16.0171V19.5457C51.5137 19.5457 51.2376 18.4411 51.2376 17.7865C51.2376 17.1217 51.5137 16.0273 53.3854 16.0171Z" fill="white"/>
<path d="M67.4965 14.2884H63.8861C63.7634 14.2884 63.6611 14.3907 63.6611 14.5134V21.4786C63.6611 21.6013 63.7634 21.7036 63.8861 21.7036H67.4965C67.6193 21.7036 67.7215 21.6013 67.7215 21.4786V20.7524C67.7215 20.6296 67.6193 20.5274 67.4965 20.5274H64.8782V18.267H67.4147C67.5375 18.267 67.6397 18.1647 67.6397 18.042V17.3158C67.6397 17.1931 67.5375 17.0908 67.4147 17.0908H64.8782V15.4646H67.4965C67.6193 15.4646 67.7215 15.3623 67.7215 15.2396V14.5134C67.7113 14.3907 67.6193 14.2884 67.4965 14.2884Z" fill="white"/>
<path d="M78.7412 14.2884H77.9741C77.8514 14.2884 77.7491 14.3907 77.7491 14.5134V17.1215H74.6194V14.5134C74.6194 14.3907 74.5172 14.2884 74.3944 14.2884H73.6274C73.5046 14.2884 73.4023 14.3907 73.4023 14.5134V21.4786C73.4023 21.6013 73.5046 21.7036 73.6274 21.7036H74.3944C74.5172 21.7036 74.6194 21.6013 74.6194 21.4786V18.2977H77.7491V21.4786C77.7491 21.6013 77.8514 21.7036 77.9741 21.7036H78.7412C78.864 21.7036 78.9662 21.6013 78.9662 21.4786V14.5134C78.956 14.3907 78.864 14.2884 78.7412 14.2884Z" fill="white"/>
<path d="M90.6813 14.0734L86.222 19.2487V14.503C86.222 14.3802 86.1197 14.278 85.997 14.278H85.2299C85.1072 14.278 85.0049 14.3802 85.0049 14.503V21.7852C85.0049 21.8773 85.0662 21.9591 85.1481 21.9898C85.1685 22 85.1992 22 85.2197 22C85.281 22 85.3424 21.9693 85.3833 21.9284L89.8426 16.7531V21.4784C89.8426 21.6011 89.9449 21.7034 90.0676 21.7034H90.8449C90.9677 21.7034 91.0699 21.6011 91.0699 21.4784V14.2166C91.0699 14.1245 91.0086 14.0427 90.9268 14.012C90.8347 13.9814 90.7427 14.012 90.6813 14.0734Z" fill="white"/>
<path d="M99.1769 17.7659L102.286 14.6669C102.347 14.6055 102.368 14.5135 102.337 14.4214C102.307 14.3396 102.225 14.2884 102.133 14.2884H101.089C101.028 14.2884 100.977 14.3089 100.936 14.3498L98.3484 16.9579V14.5032C98.3484 14.3805 98.2461 14.2782 98.1234 14.2782H97.3461C97.2234 14.2782 97.1211 14.3805 97.1211 14.5032V21.4684C97.1211 21.5911 97.2234 21.6934 97.3461 21.6934H98.1234C98.2461 21.6934 98.3484 21.5911 98.3484 21.4684V18.6353L101.008 21.6218C101.049 21.6627 101.11 21.6934 101.171 21.6934H102.235C102.327 21.6934 102.399 21.6423 102.44 21.5605C102.47 21.4786 102.46 21.3866 102.399 21.3252L99.1769 17.7659Z" fill="white"/>
<path d="M111.25 14.1757C109.051 14.1757 107.384 15.8326 107.384 18.0214C107.384 20.1897 109.03 21.8261 111.209 21.8261C111.669 21.8261 112.559 21.7341 113.439 21.1102C113.5 21.0693 113.531 20.9977 113.531 20.9261V19.9647C113.531 19.8726 113.48 19.7908 113.398 19.7601C113.316 19.7192 113.214 19.7499 113.152 19.8112C112.999 19.9647 112.743 20.1897 112.406 20.3533C112.027 20.5477 111.608 20.6499 111.209 20.6499C110.135 20.6499 108.621 19.8317 108.621 18.0316C108.621 16.5281 109.757 15.3519 111.199 15.3519C111.557 15.3519 111.956 15.4439 112.303 15.6076C112.59 15.7406 112.907 15.9656 113.152 16.211C113.214 16.2724 113.306 16.2929 113.398 16.2622C113.48 16.2315 113.531 16.1497 113.531 16.0576V15.0962C113.531 15.0246 113.5 14.9632 113.449 14.9223C112.794 14.4212 112.068 14.1757 111.25 14.1757Z" fill="white"/>
<path d="M125.962 17.3971H122.945V14.3799C122.945 14.2571 122.843 14.1549 122.72 14.1549H121.984C121.861 14.1549 121.759 14.2571 121.759 14.3799V17.3971H118.742C118.619 17.3971 118.517 17.4994 118.517 17.6221V18.3585C118.517 18.4812 118.619 18.5835 118.742 18.5835H121.759V21.6007C121.759 21.7235 121.861 21.8258 121.984 21.8258H122.72C122.843 21.8258 122.945 21.7235 122.945 21.6007V18.5835H125.962C126.085 18.5835 126.187 18.4812 126.187 18.3585V17.6221C126.177 17.4891 126.085 17.3971 125.962 17.3971Z" fill="white"/>
<path fill-rule="evenodd" clip-rule="evenodd" d="M31.2952 26.1207C34.2781 27.4744 40.0003 26.8106 40.0003 26.8106V11.4962C40.0003 11.4962 40.0162 10.5868 39.64 9.55708L29.25 24.192C29.6527 24.929 30.2885 25.6607 31.2952 26.1207Z" fill="#343176"/>
<path fill-rule="evenodd" clip-rule="evenodd" d="M37.4263 7.07419C34.3904 5.69955 28.541 6.30063 28.541 6.30063V21.6151C28.541 21.6151 28.5516 22.9113 29.2404 24.1814L39.6304 9.54645C39.3019 8.64222 38.6767 7.64391 37.4263 7.07419Z" fill="#EE7656"/>
<path fill-rule="evenodd" clip-rule="evenodd" d="M14.2637 32.4816L23.8483 18.9757L14.2637 5.46971V32.4816Z" fill="#4DB6A5"/>
<path fill-rule="evenodd" clip-rule="evenodd" d="M14.2637 32.4817V35.8373C14.2637 35.8373 19.9859 36.5011 22.9688 35.1473C25.7027 33.9086 25.7133 30.6471 25.7133 30.6471V16.3519L14.2637 32.4817Z" fill="#EE7656"/>
<path fill-rule="evenodd" clip-rule="evenodd" d="M23.8488 18.9757L25.7138 16.3518V0.133185C25.7138 0.133185 19.8645 -0.473119 16.8286 0.90152C14.1635 2.1089 14.2642 5.31814 14.2642 5.31814V5.46449L23.8488 18.9757Z" fill="#343176"/>
<path fill-rule="evenodd" clip-rule="evenodd" d="M9.0547 25.922L0.0263672 13.2001V26.8053C0.0263672 26.8053 6.17241 27.5162 9.0441 25.9586C9.0494 25.9429 9.0494 25.9377 9.0547 25.922Z" fill="#E14142"/>
<path fill-rule="evenodd" clip-rule="evenodd" d="M3.69141 18.401L9.02681 25.9223C11.4058 24.579 11.4481 21.6207 11.4481 21.6207V7.47182L3.69141 18.401Z" fill="#4DB6A5"/>
<path fill-rule="evenodd" clip-rule="evenodd" d="M3.69342 18.4009L11.4502 7.4717V6.30613C11.4502 6.30613 5.60082 5.69982 2.56488 7.07969C-0.100171 8.28185 0.000496666 11.4911 0.000496666 11.4911V13.2002L3.69342 18.4009Z" fill="#343176"/>
</svg>
