<svg width="433" height="8" viewBox="0 0 433 8" fill="none" xmlns="http://www.w3.org/2000/svg">
<path d="M432.354 4.35355C432.549 4.15829 432.549 3.84171 432.354 3.64645L429.172 0.464466C428.976 0.269204 428.66 0.269204 428.464 0.464466C428.269 0.659728 428.269 0.976311 428.464 1.17157L431.293 4L428.464 6.82843C428.269 7.02369 428.269 7.34027 428.464 7.53553C428.66 7.7308 428.976 7.7308 429.172 7.53553L432.354 4.35355ZM0 4.5H1.5V3.5H0V4.5ZM4.5 4.5H7.5V3.5H4.5V4.5ZM10.5 4.5H13.5V3.5H10.5V4.5ZM16.5 4.5H19.5V3.5H16.5V4.5ZM22.5 4.5H25.5V3.5H22.5V4.5ZM28.5 4.5H31.5V3.5H28.5V4.5ZM34.5 4.5H37.5V3.5H34.5V4.5ZM40.5 4.5H43.5V3.5H40.5V4.5ZM46.5 4.5H49.5V3.5H46.5V4.5ZM52.5 4.5H55.5V3.5H52.5V4.5ZM58.5 4.5H61.5V3.5H58.5V4.5ZM64.5 4.5H67.5V3.5H64.5V4.5ZM70.5 4.5H73.5V3.5H70.5V4.5ZM76.5 4.5H79.5V3.5H76.5V4.5ZM82.5 4.5H85.5V3.5H82.5V4.5ZM88.5 4.5H91.5V3.5H88.5V4.5ZM94.5 4.5H97.5V3.5H94.5V4.5ZM100.5 4.5H103.5V3.5H100.5V4.5ZM106.5 4.5H109.5V3.5H106.5V4.5ZM112.5 4.5H115.5V3.5H112.5V4.5ZM118.5 4.5H121.5V3.5H118.5V4.5ZM124.5 4.5H127.5V3.5H124.5V4.5ZM130.5 4.5H133.5V3.5H130.5V4.5ZM136.5 4.5H139.5V3.5H136.5V4.5ZM142.5 4.5H145.5V3.5H142.5V4.5ZM148.5 4.5H151.5V3.5H148.5V4.5ZM154.5 4.5H157.5V3.5H154.5V4.5ZM160.5 4.5H163.5V3.5H160.5V4.5ZM166.5 4.5H169.5V3.5H166.5V4.5ZM172.5 4.5H175.5V3.5H172.5V4.5ZM178.5 4.5H181.5V3.5H178.5V4.5ZM184.5 4.5H187.5V3.5H184.5V4.5ZM190.5 4.5H193.5V3.5H190.5V4.5ZM196.5 4.5H199.5V3.5H196.5V4.5ZM202.5 4.5H205.5V3.5H202.5V4.5ZM208.5 4.5H211.5V3.5H208.5V4.5ZM214.5 4.5H217.5V3.5H214.5V4.5ZM220.5 4.5H223.5V3.5H220.5V4.5ZM226.5 4.5H229.5V3.5H226.5V4.5ZM232.5 4.5H235.5V3.5H232.5V4.5ZM238.5 4.5H241.5V3.5H238.5V4.5ZM244.5 4.5H247.5V3.5H244.5V4.5ZM250.5 4.5H253.5V3.5H250.5V4.5ZM256.5 4.5H259.5V3.5H256.5V4.5ZM262.5 4.5H265.5V3.5H262.5V4.5ZM268.5 4.5H271.5V3.5H268.5V4.5ZM274.5 4.5H277.5V3.5H274.5V4.5ZM280.5 4.5H283.5V3.5H280.5V4.5ZM286.5 4.5H289.5V3.5H286.5V4.5ZM292.5 4.5H295.5V3.5H292.5V4.5ZM298.5 4.5H301.5V3.5H298.5V4.5ZM304.5 4.5H307.5V3.5H304.5V4.5ZM310.5 4.5H313.5V3.5H310.5V4.5ZM316.5 4.5H319.5V3.5H316.5V4.5ZM322.5 4.5H325.5V3.5H322.5V4.5ZM328.5 4.5H331.5V3.5H328.5V4.5ZM334.5 4.5H337.5V3.5H334.5V4.5ZM340.5 4.5H343.5V3.5H340.5V4.5ZM346.5 4.5H349.5V3.5H346.5V4.5ZM352.5 4.5H355.5V3.5H352.5V4.5ZM358.5 4.5H361.5V3.5H358.5V4.5ZM364.5 4.5H367.5V3.5H364.5V4.5ZM370.5 4.5H373.5V3.5H370.5V4.5ZM376.5 4.5H379.5V3.5H376.5V4.5ZM382.5 4.5H385.5V3.5H382.5V4.5ZM388.5 4.5H391.5V3.5H388.5V4.5ZM394.5 4.5H397.5V3.5H394.5V4.5ZM400.5 4.5H403.5V3.5H400.5V4.5ZM406.5 4.5H409.5V3.5H406.5V4.5ZM412.5 4.5H415.5V3.5H412.5V4.5ZM418.5 4.5H421.5V3.5H418.5V4.5ZM424.5 4.5H427.5V3.5H424.5V4.5ZM430.5 4.5H432V3.5H430.5V4.5Z" fill="#343176"/>
</svg>
