<svg width="16" height="17" viewBox="0 0 16 17" fill="none" xmlns="http://www.w3.org/2000/svg">
<path d="M5.5327 13.1822C9.2006 16.8501 12.0197 17.7708 15.3425 14.448C15.8625 13.914 16.3489 13.2393 15.6588 12.5494L12.9691 10.4926C12.1202 10.0358 11.7887 10.3607 11.3869 10.8089C9.9185 12.448 8.3343 11.904 7.27337 10.8089L5.69116 9.22672C4.59611 8.16568 4.05214 6.58131 5.69116 5.11318C6.1396 4.71142 6.46425 4.37978 6.00754 3.53098L3.95069 0.841257C3.26064 0.151205 2.58593 0.63757 2.05195 1.15763C-1.27069 4.48027 -0.350126 7.29937 3.31778 10.9674L5.5327 13.1822Z" fill="white"/>
</svg>
