<svg width="16" height="16" viewBox="0 0 16 16" fill="none" xmlns="http://www.w3.org/2000/svg">
<g clip-path="url(#clip0_7956_72815)">
<path d="M5.84111 12.0969C9.05052 15.3063 11.5172 16.1119 14.4247 13.2045C14.8797 12.7373 15.3053 12.1469 14.7015 11.5432L12.348 9.74348C11.6052 9.34387 11.3151 9.62808 10.9635 10.0203C9.67869 11.4545 8.29251 10.9785 7.3642 10.0203L5.97977 8.63588C5.0216 7.70747 4.54562 6.32115 5.97977 5.03654C6.37215 4.68499 6.65621 4.39481 6.2566 3.65211L4.45685 1.2986C3.85306 0.694804 3.26269 1.12037 2.79546 1.57543C-0.111852 4.48274 0.69364 6.94945 3.90305 10.159L5.84111 12.0969Z" stroke="#333435"/>
</g>
<defs>
<clipPath id="clip0_7956_72815">
<rect width="16" height="16" fill="white"/>
</clipPath>
</defs>
</svg>
