<svg width="12" height="12" viewBox="0 0 12 12" fill="none" xmlns="http://www.w3.org/2000/svg">
<rect x="0.5" y="0.5" width="11" height="11" rx="5.5" stroke="#343176"/>
<path d="M5.63672 7.33594V6.97656C5.63672 6.70573 5.67188 6.49219 5.74219 6.33594C5.8125 6.17969 5.91536 6.04818 6.05078 5.94141C6.1862 5.83464 6.35026 5.72005 6.54297 5.59766C6.7487 5.46224 6.89453 5.32031 6.98047 5.17188C7.06901 5.02083 7.11328 4.86589 7.11328 4.70703C7.11328 4.46745 7.03125 4.27734 6.86719 4.13672C6.70312 3.99609 6.48177 3.92578 6.20312 3.92578C5.89583 3.92578 5.65495 4.01693 5.48047 4.19922C5.30599 4.37891 5.21875 4.6276 5.21875 4.94531H4.25C4.25 4.57812 4.33203 4.25521 4.49609 3.97656C4.66016 3.69792 4.88932 3.48047 5.18359 3.32422C5.47786 3.16797 5.82031 3.08984 6.21094 3.08984C6.57812 3.08984 6.90234 3.15625 7.18359 3.28906C7.46745 3.42188 7.6888 3.60417 7.84766 3.83594C8.00651 4.06771 8.08594 4.33464 8.08594 4.63672C8.08594 5.22266 7.81901 5.69531 7.28516 6.05469C7.11849 6.16667 6.98047 6.26823 6.87109 6.35938C6.76432 6.44792 6.6849 6.54557 6.63281 6.65234C6.58073 6.75651 6.55469 6.88802 6.55469 7.04688V7.33594H5.63672ZM6.10547 9.07031C5.9362 9.07031 5.79297 9.01172 5.67578 8.89453C5.55859 8.77474 5.5 8.63151 5.5 8.46484C5.5 8.29557 5.55859 8.15234 5.67578 8.03516C5.79297 7.91797 5.9362 7.85938 6.10547 7.85938C6.27214 7.85938 6.41406 7.91797 6.53125 8.03516C6.64844 8.15234 6.70703 8.29557 6.70703 8.46484C6.70703 8.63151 6.64844 8.77474 6.53125 8.89453C6.41406 9.01172 6.27214 9.07031 6.10547 9.07031Z" fill="#343176"/>
</svg>
