<svg width="48" height="64" viewBox="0 0 48 64" fill="none" xmlns="http://www.w3.org/2000/svg">
<mask id="mask0_7963_55972" style="mask-type:alpha" maskUnits="userSpaceOnUse" x="0" y="0" width="48" height="64">
<path d="M48 24.0921C48 10.6323 37.0586 0 24 0C10.5883 0 0 10.6323 0 24.0921C0 36.1447 8.47036 46.0668 20.1179 47.8356V63.7808C32.8235 57.0477 47.6469 43.2263 48 25.5124C48 25.1573 48 24.4471 48 24.0921Z" fill="#343176"/>
</mask>
<g mask="url(#mask0_7963_55972)">
<path d="M48 24.0921C48 10.6323 37.0586 0 24 0C10.5883 0 0 10.6323 0 24.0921C0 36.1447 8.47036 46.0668 20.1179 47.8356V63.7808C32.8235 57.0477 47.6469 43.2263 48 25.5124C48 25.1573 48 24.4471 48 24.0921Z" fill="#343176"/>
<path fill-rule="evenodd" clip-rule="evenodd" d="M5.94995 57.397V70.7523C5.94995 70.7523 28.0397 73.3943 39.555 68.0064C50.109 63.0762 50.15 50.0953 50.15 50.0953V-6.79999L5.94995 57.397Z" fill="#EE7656"/>
<path fill-rule="evenodd" clip-rule="evenodd" d="M-3 101L43 55L-3 9V101Z" fill="#4DB6A5"/>
</g>
</svg>
