<svg width="20" height="18" viewBox="0 0 20 18" fill="none" xmlns="http://www.w3.org/2000/svg">
<path fill-rule="evenodd" clip-rule="evenodd" d="M18.0145 0.171517C17.2268 0.39053 8.33064 2.9644 1.08704 5.04534C0.510457 5.22796 0.093898 5.69505 0.0121594 6.20843C-0.0695792 6.72182 0.270902 7.16241 0.729434 7.2914C1.121 7.41113 5.0469 8.54425 5.0469 8.54425L5.16355 15.119L9.22352 12.7273L6.0196 8.02289L14 5.17045L7.28847 9.51007L9.22352 12.4011C9.33702 12.5479 11.7056 16.1548 11.8758 16.375C12.1596 16.7422 12.5931 17.458 12.861 17.4951C13.3297 17.5599 13.9007 16.983 14.2548 16.0481C14.5987 15.1775 16.9291 9.13788 19.9212 1.09103C20.2652 0.220386 19.4559 -0.285026 18.0145 0.171517Z" fill="white"/>
</svg>
