<svg width="20" height="21" viewBox="0 0 20 21" fill="none" xmlns="http://www.w3.org/2000/svg">
<path fill-rule="evenodd" clip-rule="evenodd" d="M18.0145 1.67152C17.2268 1.89053 8.33064 4.4644 1.08704 6.54534C0.510457 6.72796 0.093898 7.19505 0.0121594 7.70843C-0.0695792 8.22182 0.270902 8.66241 0.729434 8.7914C1.121 8.91113 5.0469 10.0443 5.0469 10.0443L5.16355 16.619L9.22352 14.2273L6.0196 9.52289L14 6.67045L7.28847 11.0101L9.22352 13.9011C9.33702 14.0479 11.7056 17.6548 11.8758 17.875C12.1596 18.2422 12.5931 18.958 12.861 18.9951C13.3297 19.0599 13.9007 18.483 14.2548 17.5481C14.5987 16.6775 16.9291 10.6379 19.9212 2.59103C20.2652 1.72039 19.4559 1.21497 18.0145 1.67152Z" fill="#528DF0"/>
</svg>
