<svg width="28" height="28" viewBox="0 0 28 28" fill="none" xmlns="http://www.w3.org/2000/svg">
<path fill-rule="evenodd" clip-rule="evenodd" d="M18 9.5C18 11.433 16.433 13 14.5 13C12.567 13 11 11.433 11 9.5C11 7.567 12.567 6 14.5 6C16.433 6 18 7.567 18 9.5ZM16.899 13.3079C18.1615 12.5109 19 11.1034 19 9.5C19 7.01472 16.9853 5 14.5 5C12.0147 5 10 7.01472 10 9.5C10 11.1034 10.8385 12.5109 12.101 13.3079C11.6807 13.4176 11.2676 13.5562 10.8645 13.7231C9.71191 14.2006 8.66464 14.9003 7.78249 15.7825C6.90033 16.6646 6.20056 17.7119 5.72314 18.8645C5.24572 20.0171 5 21.2524 5 22.5H6C6 21.3838 6.21986 20.2785 6.64702 19.2472C7.07419 18.2159 7.70029 17.2789 8.48959 16.4896C9.27889 15.7003 10.2159 15.0742 11.2472 14.647C12.2785 14.2199 13.3838 14 14.5 14C15.6162 14 16.7215 14.2199 17.7528 14.647C18.7841 15.0742 19.7211 15.7003 20.5104 16.4896C21.2997 17.2789 21.9258 18.2159 22.353 19.2472C22.7801 20.2785 23 21.3838 23 22.5H24C24 21.2524 23.7543 20.0171 23.2769 18.8645C22.7994 17.7119 22.0997 16.6646 21.2175 15.7825C20.3354 14.9003 19.2881 14.2006 18.1355 13.7231C17.7324 13.5562 17.3193 13.4176 16.899 13.3079Z" fill="white"/>
</svg>
