<svg width="15" height="15" viewBox="0 0 15 15" fill="none" xmlns="http://www.w3.org/2000/svg">
<path fill-rule="evenodd" clip-rule="evenodd" d="M7.5 0C3.35453 0 0 3.35266 0 7.5C0 9.06407 0.476974 10.5108 1.32422 11.7539C1.35575 11.8006 1.37635 11.8539 1.38446 11.9097C1.39258 11.9655 1.38801 12.0224 1.37109 12.0762L0.609375 14.625L3.10547 13.7637C3.15882 13.7459 3.21549 13.7404 3.27128 13.7475C3.32706 13.7546 3.38053 13.7741 3.42773 13.8047C4.5969 14.5633 5.99654 15 7.5 15C11.6474 15 15 11.6474 15 7.5C15 3.35255 11.6474 0 7.5 0ZM4.42969 3.26953L5.79492 5.5254L5.22656 6.0879C5.1687 6.14629 5.13162 6.22206 5.12103 6.30358C5.11045 6.38509 5.12694 6.46783 5.16797 6.53906C6.03531 8.04106 7.06297 9.20957 8.50195 9.84375C8.57091 9.87438 8.6475 9.8835 8.72172 9.86991C8.79594 9.85632 8.86434 9.82066 8.91797 9.76759L9.52148 9.16406L11.7246 10.541C11.4807 11.0901 11.1626 11.417 10.7988 11.6074C10.3774 11.8281 9.86275 11.8698 9.27539 11.748C8.10068 11.5045 6.68173 10.5812 5.52539 9.39844C4.36906 8.21567 3.47422 6.77743 3.24609 5.60741C3.13203 5.02241 3.18242 4.5186 3.39844 4.11915C3.58443 3.77522 3.90037 3.48077 4.42969 3.26953Z" fill="#50B550"/>
</svg>
