<svg width="20" height="20" viewBox="0 0 20 20" fill="none" xmlns="http://www.w3.org/2000/svg">
<path fill-rule="evenodd" clip-rule="evenodd" d="M10 0C4.47271 0 0 4.47022 0 10C0 12.0854 0.635965 14.0144 1.76563 15.6719C1.80767 15.7342 1.83513 15.8052 1.84595 15.8796C1.85677 15.954 1.85068 16.0299 1.82813 16.1016L0.8125 19.5L4.14062 18.3516C4.21177 18.3279 4.28732 18.3205 4.3617 18.33C4.43608 18.3394 4.50737 18.3655 4.57031 18.4062C6.1292 19.4177 7.99539 20 10 20C15.5299 20 20 15.5299 20 10C20 4.47007 15.5299 0 10 0ZM5.90625 4.35938L7.72656 7.3672L6.96875 8.1172C6.8916 8.19505 6.84216 8.29608 6.82804 8.40477C6.81393 8.51346 6.83592 8.62378 6.89062 8.71875C8.04708 10.7214 9.4173 12.2794 11.3359 13.125C11.4279 13.1658 11.53 13.178 11.629 13.1599C11.7279 13.1418 11.8191 13.0942 11.8906 13.0235L12.6953 12.2188L15.6328 14.0547C15.3075 14.7868 14.8835 15.2226 14.3984 15.4766C13.8366 15.7708 13.1503 15.8265 12.3672 15.6641C10.8009 15.3393 8.90897 14.1083 7.36719 12.5312C5.82541 10.9542 4.63229 9.03657 4.32812 7.47655C4.17604 6.69655 4.24323 6.0248 4.53125 5.4922C4.77924 5.03363 5.20049 4.64103 5.90625 4.35938Z" fill="white"/>
</svg>
