<svg width="20" height="21" viewBox="0 0 20 21" fill="none" xmlns="http://www.w3.org/2000/svg">
<path fill-rule="evenodd" clip-rule="evenodd" d="M10 0.5C4.47271 0.5 0 4.97022 0 10.5C0 12.5854 0.635965 14.5144 1.76563 16.1719C1.80767 16.2342 1.83513 16.3052 1.84595 16.3796C1.85677 16.454 1.85068 16.5299 1.82813 16.6016L0.8125 20L4.14062 18.8516C4.21177 18.8279 4.28732 18.8205 4.3617 18.83C4.43608 18.8394 4.50737 18.8655 4.57031 18.9062C6.1292 19.9177 7.99539 20.5 10 20.5C15.5299 20.5 20 16.0299 20 10.5C20 4.97007 15.5299 0.5 10 0.5ZM5.90625 4.85938L7.72656 7.8672L6.96875 8.6172C6.8916 8.69505 6.84216 8.79608 6.82804 8.90477C6.81393 9.01346 6.83592 9.12378 6.89062 9.21875C8.04708 11.2214 9.4173 12.7794 11.3359 13.625C11.4279 13.6658 11.53 13.678 11.629 13.6599C11.7279 13.6418 11.8191 13.5942 11.8906 13.5235L12.6953 12.7188L15.6328 14.5547C15.3075 15.2868 14.8835 15.7226 14.3984 15.9766C13.8366 16.2708 13.1503 16.3265 12.3672 16.1641C10.8009 15.8393 8.90897 14.6083 7.36719 13.0312C5.82541 11.4542 4.63229 9.53657 4.32812 7.97655C4.17604 7.19655 4.24323 6.5248 4.53125 5.9922C4.77924 5.53363 5.20049 5.14103 5.90625 4.85938Z" fill="#50B550"/>
</svg>
