<svg width="96" height="96" viewBox="0 0 96 96" fill="none" xmlns="http://www.w3.org/2000/svg">
<mask id="mask0_7956_69103" style="mask-type:alpha" maskUnits="userSpaceOnUse" x="0" y="4" width="96" height="90">
<path d="M68.5714 25.2921C68.5714 36.6097 59.3613 45.7844 48 45.7844C36.6387 45.7844 27.4286 36.6097 27.4286 25.2921C27.4286 13.9745 36.6387 4.7998 48 4.7998C59.3613 4.7998 68.5714 13.9745 68.5714 25.2921Z" fill="#D9D9D9"/>
<path d="M96 93.5998C96 80.9184 90.9429 68.7564 81.9411 59.7892C72.9394 50.8221 60.7304 45.7844 48 45.7844C35.2696 45.7844 23.0606 50.8221 14.0589 59.7892C5.05713 68.7563 1.92224e-06 80.9184 0 93.5998L96 93.5998Z" fill="#D9D9D9"/>
</mask>
<g mask="url(#mask0_7956_69103)">
<path fill-rule="evenodd" clip-rule="evenodd" d="M68.5714 25.2902C68.5714 36.6077 59.3613 45.7825 48 45.7825C36.6387 45.7825 27.4286 36.6077 27.4286 25.2902C27.4286 13.9726 36.6387 4.79785 48 4.79785C59.3613 4.79785 68.5714 13.9726 68.5714 25.2902ZM48 45.7825C60.7304 45.7825 72.9394 50.8201 81.9411 59.7873C90.9429 68.7544 96 80.9164 96 93.5979L0 93.5978C3.8147e-06 80.9164 5.05713 68.7544 14.0589 59.7873C23.0606 50.8201 35.2696 45.7825 48 45.7825ZM115.2 124.798C115.2 136.728 105.53 146.398 93.6002 146.398C81.6709 146.398 72.0002 136.728 72.0002 124.798C72.0002 112.869 81.6709 103.198 93.6002 103.198C105.53 103.198 115.2 112.869 115.2 124.798ZM52.8 196.798H144C144 183.431 138.69 170.612 129.238 161.16C119.787 151.708 106.967 146.398 93.6002 146.398C80.2333 146.398 67.4138 151.708 57.962 161.16C53.8085 165.314 50.4548 170.117 48.0001 175.332C45.5454 170.117 42.1917 165.314 38.0382 161.16C28.5864 151.708 15.7669 146.398 2.4 146.398C14.3294 146.398 24 136.728 24 124.798C24 112.869 14.3294 103.198 2.4 103.198C-9.52935 103.198 -19.2 112.869 -19.2 124.798C-19.2 136.728 -9.52935 146.398 2.4 146.398C-10.9669 146.398 -23.7863 151.708 -33.2382 161.16C-42.69 170.612 -48 183.431 -48 196.798H43.2002H52.8Z" fill="white"/>
<path d="M21.6001 93.5994L84.0001 -21.6006V93.5994H21.6001Z" fill="#4DB6A5"/>
<path d="M31.2002 93.5992L96.0002 31.1992V93.5992H31.2002Z" fill="#E14142"/>
<path d="M52.7998 93.5992L-12.0002 31.1992V93.5992H52.7998Z" fill="#EE7656"/>
<path d="M26.3999 196.799L144 64.7988V196.799H26.3999Z" fill="#EE7656"/>
</g>
</svg>
