<svg width="443" height="178" viewBox="0 0 443 178" fill="none" xmlns="http://www.w3.org/2000/svg">
<mask id="mask0_8421_81036" style="mask-type:alpha" maskUnits="userSpaceOnUse" x="6" y="0" width="431" height="178">
<path d="M6.86358 137.586V110.286L82.1117 3.49326H125.356V110.171H147.724V137.586H125.356V174.407H92.206V137.586H6.86358ZM92.206 110.171V37.2173H91.9766L40.9317 109.942V110.171H92.206ZM221.605 177.16C207.229 177.16 194.878 173.605 184.555 166.493C174.231 159.304 166.278 149.134 160.696 135.98C155.19 122.751 152.437 107.112 152.437 89.0651C152.437 70.9413 155.19 55.2646 160.696 42.035C166.278 28.8054 174.231 18.6347 184.555 11.5228C194.878 4.33444 207.229 0.740275 221.605 0.740275C235.905 0.740275 248.217 4.33444 258.541 11.5228C268.865 18.6347 276.818 28.8054 282.4 42.035C287.983 55.2646 290.774 70.9413 290.774 89.0651C290.774 107.189 287.983 122.827 282.4 135.98C276.818 149.134 268.865 159.304 258.541 166.493C248.217 173.605 235.905 177.16 221.605 177.16ZM221.605 148.942C232.694 148.942 241.45 143.628 247.873 132.998C254.297 122.292 257.509 107.648 257.509 89.0651C257.509 70.406 254.297 55.7234 247.873 45.0174C241.45 34.3113 232.694 28.9583 221.605 28.9583C210.44 28.9583 201.646 34.3113 195.223 45.0174C188.875 55.7234 185.702 70.406 185.702 89.0651C185.702 107.648 188.875 122.292 195.223 132.998C201.646 143.628 210.44 148.942 221.605 148.942ZM295.257 137.586V110.286L370.505 3.49326H413.75V110.171H436.118V137.586H413.75V174.407H380.599V137.586H295.257ZM380.599 110.171V37.2173H380.37L329.325 109.942V110.171H380.599Z" fill="#343176"/>
</mask>
<g mask="url(#mask0_8421_81036)">
<path d="M6.92578 137.609V110.308L82.1739 3.51575H125.419V110.194H147.787V137.609H125.419V174.43H92.2682V137.609H6.92578ZM92.2682 110.194V37.2398H92.0388L40.9939 109.964V110.194H92.2682Z" fill="#343176"/>
<path d="M221.667 177.183C207.291 177.183 194.941 173.627 184.617 166.515C174.293 159.327 166.34 149.156 160.758 136.003C155.252 122.773 152.499 107.135 152.499 89.0876C152.499 70.9638 155.252 55.2871 160.758 42.0575C166.34 28.8279 174.293 18.6571 184.617 11.5453C194.941 4.35694 207.291 0.762772 221.667 0.762772C235.968 0.762772 248.28 4.35694 258.603 11.5453C268.927 18.6571 276.88 28.8279 282.462 42.0575C288.045 55.2871 290.836 70.9638 290.836 89.0876C290.836 107.211 288.045 122.85 282.462 136.003C276.88 149.156 268.927 159.327 258.603 166.515C248.28 173.627 235.968 177.183 221.667 177.183ZM221.667 148.965C232.756 148.965 241.512 143.65 247.935 133.021C254.359 122.315 257.571 107.67 257.571 89.0876C257.571 70.4285 254.359 55.7459 247.935 45.0399C241.512 34.3338 232.756 28.9808 221.667 28.9808C210.503 28.9808 201.708 34.3338 195.285 45.0399C188.938 55.7459 185.764 70.4285 185.764 89.0876C185.764 107.67 188.938 122.315 195.285 133.021C201.708 143.65 210.503 148.965 221.667 148.965Z" fill="#343176"/>
<path d="M295.319 137.609V110.308L370.567 3.51575H413.812V110.194H436.18V137.609H413.812V174.43H380.661V137.609H295.319ZM380.661 110.194V37.2398H380.432L329.387 109.964V110.194H380.661Z" fill="#343176"/>
<path fill-rule="evenodd" clip-rule="evenodd" d="M236.801 281.759V350.124C236.801 350.124 349.98 363.648 408.98 336.068C463.055 310.83 463.265 244.381 463.265 244.381V-46.8656L236.801 281.759Z" fill="#EE7656"/>
<path fill-rule="evenodd" clip-rule="evenodd" d="M285.664 342.165V440.3C285.664 440.3 123.174 459.713 38.4684 420.123C-39.1657 383.895 -39.4666 288.511 -39.4666 288.511V-129.558L285.664 342.165Z" fill="#E14142"/>
<path fill-rule="evenodd" clip-rule="evenodd" d="M41.3477 178.659H450.111L212.84 -29.0116L41.3477 178.659Z" fill="#4DB6A5"/>
<path fill-rule="evenodd" clip-rule="evenodd" d="M152 268H384L152 -31V268Z" fill="#343176"/>
<path fill-rule="evenodd" clip-rule="evenodd" d="M134 242.39L290 264V33L134 242.39Z" fill="#EE7656"/>
</g>
</svg>
