<svg width="36" height="26" viewBox="0 0 36 26" fill="none" xmlns="http://www.w3.org/2000/svg">
<path fill-rule="evenodd" clip-rule="evenodd" d="M9.08197 0.346629C15.0183 -0.115543 20.9817 -0.115543 26.918 0.346629L30.9057 0.657088C33.1268 0.830015 34.9438 2.4866 35.311 4.67337C36.2297 10.1449 36.2297 15.7301 35.311 21.2016C34.9438 23.3884 33.1268 25.045 30.9057 25.2179L26.918 25.5284C20.9817 25.9905 15.0183 25.9905 9.08197 25.5284L5.09433 25.2179C2.87321 25.045 1.05616 23.3884 0.688996 21.2016C-0.229665 15.7301 -0.229665 10.1449 0.688996 4.67337C1.05616 2.4866 2.87321 0.830015 5.09433 0.657088L9.08197 0.346629ZM14.4407 17.3121V8.56289C14.4407 8.14991 14.8934 7.89483 15.2492 8.1073L22.5759 12.4819C22.9215 12.6883 22.9215 13.1867 22.5759 13.3931L15.2492 17.7677C14.8934 17.9802 14.4407 17.7251 14.4407 17.3121Z" fill="#E43122"/>
</svg>
