<svg width="36" height="36" viewBox="0 0 36 36" fill="none" xmlns="http://www.w3.org/2000/svg">
<path fill-rule="evenodd" clip-rule="evenodd" d="M9.08197 5.34663C15.0183 4.88446 20.9817 4.88446 26.918 5.34663L30.9057 5.65709C33.1268 5.83001 34.9438 7.4866 35.311 9.67337C36.2297 15.1449 36.2297 20.7301 35.311 26.2016C34.9438 28.3884 33.1268 30.045 30.9057 30.2179L26.918 30.5284C20.9817 30.9905 15.0183 30.9905 9.08197 30.5284L5.09433 30.2179C2.87321 30.045 1.05616 28.3884 0.688996 26.2016C-0.229665 20.7301 -0.229665 15.1449 0.688996 9.67337C1.05616 7.4866 2.87321 5.83001 5.09433 5.65709L9.08197 5.34663ZM14.4407 22.3121V13.5629C14.4407 13.1499 14.8934 12.8948 15.2492 13.1073L22.5759 17.4819C22.9215 17.6883 22.9215 18.1867 22.5759 18.3931L15.2492 22.7677C14.8934 22.9802 14.4407 22.7251 14.4407 22.3121Z" fill="white"/>
</svg>
