<svg width="32" height="32" viewBox="0 0 32 32" fill="none" xmlns="http://www.w3.org/2000/svg">
<path d="M16.6396 0C23.8804 0 27.5015 -0.000386071 29.751 2.24902C32.0004 4.49844 32 8.11955 32 15.3604V16.6396C32 23.8804 32.0004 27.5015 29.751 29.751C27.5015 32.0004 23.8804 32 16.6396 32H15.3604C8.11955 32 4.49844 32.0004 2.24902 29.751C-0.000386072 27.5015 0 23.8804 0 16.6396V15.3604C0 8.11955 -0.000396637 4.49844 2.24902 2.24902C4.49844 -0.000396637 8.11955 0 15.3604 0H16.6396ZM5 10C5.17864 18.1201 9.46588 23 16.9824 23H17.4082V18.3545C20.1702 18.6148 22.2594 20.5275 23.0977 23H27C25.9282 19.3045 23.1115 17.2614 21.3525 16.4805C23.1114 15.5174 25.5849 13.175 26.1758 10H22.6299C21.8604 12.5766 19.5793 14.9194 17.4082 15.1406V10H13.8633V19.0049C11.6647 18.4844 8.8893 15.96 8.76562 10H5Z" fill="#2E75EF"/>
</svg>
