<svg width="36" height="36" viewBox="0 0 36 36" fill="none" xmlns="http://www.w3.org/2000/svg">
<path fill-rule="evenodd" clip-rule="evenodd" d="M4.24942 4.24942C2 6.49884 2 10.1192 2 17.36V18.64C2 25.8808 2 29.5011 4.24942 31.7506C6.49884 34 10.1192 34 17.36 34H18.64C25.8808 34 29.5011 34 31.7506 31.7506C34 29.5011 34 25.8808 34 18.64V17.36C34 10.1192 34 6.49884 31.7506 4.24942C29.5011 2 25.8808 2 18.64 2H17.36C10.1192 2 6.49884 2 4.24942 4.24942ZM7 12C7.17864 20.1201 11.4659 25 18.9824 25H19.4086V20.3544C22.1706 20.6146 24.2591 22.5275 25.0973 25H29C27.9282 21.3043 25.111 19.2613 23.3521 18.4805C25.111 17.5175 27.5845 15.1752 28.1754 12H24.63C23.8605 14.5766 21.5797 16.9189 19.4086 17.1401V12H15.8631V21.005C13.6645 20.4845 10.8888 17.96 10.7651 12H7Z" fill="white"/>
</svg>
