<svg width="32" height="32" viewBox="0 0 32 32" fill="none" xmlns="http://www.w3.org/2000/svg">
<mask id="mask0_9602_155765" style="mask-type:luminance" maskUnits="userSpaceOnUse" x="0" y="0" width="32" height="32">
<path d="M32 0H0V32H32V0Z" fill="white"/>
</mask>
<g mask="url(#mask0_9602_155765)">
<path d="M15.9324 31.9943H16.06C22.4136 31.9943 26.1015 31.3546 28.7138 28.8185C31.3774 26.1283 31.9925 22.4154 31.9925 16.0866V15.9077C31.9925 9.58077 31.3774 5.89279 28.7138 3.17582C26.1034 0.639733 22.3888 0 16.0619 0H15.9343C9.58078 0 5.89087 0.639733 3.27864 3.17582C0.614983 5.86613 0 9.58077 0 15.9077V16.0866C0 22.4135 0.614983 26.1016 3.27864 28.8185C5.86614 31.3546 9.58078 31.9943 15.9324 31.9943Z" fill="white"/>
<path d="M28.1838 15.7548C28.1838 15.6329 28.0848 15.532 27.9629 15.5263C23.59 15.3607 20.9288 14.8029 19.0669 12.9411C17.2012 11.0754 16.6453 8.41213 16.4797 4.02978C16.4759 3.90795 16.375 3.80896 16.2513 3.80896H15.7411C15.6192 3.80896 15.5183 3.90795 15.5126 4.02978C15.347 8.41023 14.7911 11.0754 12.9255 12.9411C11.0617 14.8048 8.40224 15.3607 4.02942 15.5263C3.90758 15.5301 3.80859 15.631 3.80859 15.7548V16.265C3.80859 16.3868 3.90758 16.4877 4.02942 16.4934C8.40224 16.659 11.0636 17.2168 12.9255 19.0787C14.7873 20.9405 15.3432 23.5963 15.5107 27.9613C15.5145 28.0832 15.6154 28.1822 15.7392 28.1822H16.2513C16.3731 28.1822 16.474 28.0832 16.4797 27.9613C16.6472 23.5963 17.2031 20.9405 19.065 19.0787C20.9288 17.2149 23.5881 16.659 27.961 16.4934C28.0829 16.4896 28.1819 16.3887 28.1819 16.265V15.7548H28.1838Z" fill="#211F21"/>
</g>
</svg>
