<svg width="36" height="36" viewBox="0 0 36 36" fill="none" xmlns="http://www.w3.org/2000/svg">
<mask id="mask0_8958_5810" style="mask-type:luminance" maskUnits="userSpaceOnUse" x="2" y="2" width="32" height="32">
<path d="M34 2H2V34H34V2Z" fill="white"/>
</mask>
<g mask="url(#mask0_8958_5810)">
<path d="M17.9324 33.9943H18.06C24.4136 33.9943 28.1015 33.3546 30.7138 30.8185C33.3774 28.1283 33.9925 24.4154 33.9925 18.0866V17.9077C33.9925 11.5808 33.3774 7.89279 30.7138 5.17582C28.1034 2.63973 24.3888 2 18.0619 2H17.9343C11.5808 2 7.89087 2.63973 5.27864 5.17582C2.61498 7.86613 2 11.5808 2 17.9077V18.0866C2 24.4135 2.61498 28.1016 5.27864 30.8185C7.86614 33.3546 11.5808 33.9943 17.9324 33.9943Z" fill="#202022"/>
<path d="M30.1838 17.7544C30.1838 17.6326 30.0848 17.5317 29.9629 17.526C25.59 17.3603 22.9288 16.8025 21.0669 14.9407C19.2012 13.0751 18.6453 10.4118 18.4797 6.02942C18.4759 5.90758 18.375 5.80859 18.2513 5.80859H17.7411C17.6192 5.80859 17.5183 5.90758 17.5126 6.02942C17.347 10.4099 16.7911 13.0751 14.9255 14.9407C13.0617 16.8045 10.4022 17.3603 6.02942 17.526C5.90758 17.5298 5.80859 17.6307 5.80859 17.7544V18.2646C5.80859 18.3864 5.90758 18.4873 6.02942 18.493C10.4022 18.6587 13.0636 19.2164 14.9255 21.0783C16.7873 22.9401 17.3432 25.5959 17.5107 29.9609C17.5145 30.0828 17.6154 30.1818 17.7392 30.1818H18.2513C18.3731 30.1818 18.474 30.0828 18.4797 29.9609C18.6472 25.5959 19.2031 22.9401 21.065 21.0783C22.9288 19.2145 25.5881 18.6587 29.961 18.493C30.0829 18.4892 30.1819 18.3883 30.1819 18.2646V17.7544H30.1838Z" fill="white"/>
</g>
</svg>
