<svg width="32" height="32" viewBox="0 0 32 32" fill="none" xmlns="http://www.w3.org/2000/svg">
<path d="M15.8905 0C12.1812 0.0252609 8.59592 1.33859 5.74801 3.71533C2.9001 6.09206 0.966516 9.38451 0.278031 13.0294C-0.410454 16.6743 0.188944 20.4452 1.97369 23.697C3.75843 26.9488 6.61761 29.4794 10.0621 30.856C9.83061 29.341 9.83061 27.7997 10.0621 26.2847L11.9478 18.285C11.6493 17.5605 11.5016 16.7828 11.5135 15.9994C11.5135 13.7823 12.8049 12.1138 14.4048 12.1138C14.6946 12.1095 14.982 12.1678 15.2472 12.2849C15.5124 12.4019 15.7492 12.5749 15.9413 12.792C16.1334 13.009 16.2763 13.2651 16.3602 13.5425C16.4442 13.82 16.4671 14.1123 16.4276 14.3995C16.4276 15.2836 16.0666 16.4526 15.6876 17.6801C15.4787 18.3566 15.2643 19.0509 15.1019 19.725C15.0035 20.0787 14.9918 20.451 15.0678 20.8103C15.1438 21.1696 15.3052 21.5052 15.5384 21.7889C15.7716 22.0725 16.0697 22.2958 16.4075 22.4399C16.7453 22.5839 17.1128 22.6444 17.479 22.6163C20.3132 22.6163 22.5074 19.6107 22.5074 15.2908C22.5359 14.413 22.3811 13.5389 22.0529 12.7243C21.7247 11.9096 21.2303 11.1723 20.6013 10.5594C19.9722 9.94647 19.2223 9.4714 18.3994 9.16447C17.5765 8.85755 16.6987 8.72552 15.8219 8.77681C14.8858 8.7366 13.9513 8.88676 13.0749 9.21818C12.1986 9.54961 11.3986 10.0554 10.7233 10.705C10.0481 11.3546 9.51174 12.1344 9.14665 12.9973C8.78156 13.8602 8.59536 14.7882 8.59931 15.7251C8.58661 17.0304 8.98658 18.3063 9.74213 19.3707C9.79706 19.4318 9.8362 19.5054 9.85613 19.585C9.87605 19.6647 9.87615 19.7481 9.85641 19.8278C9.73064 20.3309 9.45641 21.4278 9.41071 21.6449C9.365 21.862 9.17072 21.9992 8.87359 21.862C6.87366 20.9249 5.628 18.0107 5.628 15.6565C5.628 10.6167 9.29643 5.97692 16.199 5.97692C21.7417 5.97692 26.0615 9.93105 26.0615 15.2223C26.0615 20.7306 22.6331 25.1648 17.7533 25.1648C17.0379 25.1896 16.3276 25.0354 15.687 24.7161C15.0463 24.3968 14.4956 23.9225 14.0848 23.3363L13.0906 27.1418C12.614 28.6208 11.9454 30.0309 11.1021 31.3359C12.6561 31.7952 14.2702 32.0187 15.8905 31.9988C20.1338 31.9988 24.2033 30.3131 27.2037 27.3127C30.2042 24.3122 31.8899 20.2427 31.8899 15.9994C31.8899 11.7561 30.2042 7.68658 27.2037 4.68611C24.2033 1.68565 20.1338 0 15.8905 0Z" fill="#D32D30"/>
</svg>
