<svg width="36" height="36" viewBox="0 0 36 36" fill="none" xmlns="http://www.w3.org/2000/svg">
<path d="M17.8905 2C14.1812 2.02526 10.5959 3.33859 7.74801 5.71533C4.9001 8.09206 2.96652 11.3845 2.27803 15.0294C1.58955 18.6743 2.18894 22.4452 3.97369 25.697C5.75843 28.9488 8.61761 31.4794 12.0621 32.856C11.8306 31.341 11.8306 29.7997 12.0621 28.2847L13.9478 20.285C13.6493 19.5605 13.5016 18.7828 13.5135 17.9994C13.5135 15.7823 14.8049 14.1138 16.4048 14.1138C16.6946 14.1095 16.982 14.1678 17.2472 14.2849C17.5124 14.4019 17.7492 14.5749 17.9413 14.792C18.1334 15.009 18.2763 15.2651 18.3602 15.5425C18.4442 15.82 18.4671 16.1123 18.4276 16.3995C18.4276 17.2836 18.0666 18.4526 17.6876 19.6801C17.4787 20.3566 17.2643 21.0509 17.1019 21.725C17.0035 22.0787 16.9918 22.451 17.0678 22.8103C17.1438 23.1696 17.3052 23.5052 17.5384 23.7889C17.7716 24.0725 18.0697 24.2958 18.4075 24.4399C18.7453 24.5839 19.1128 24.6444 19.479 24.6163C22.3132 24.6163 24.5074 21.6107 24.5074 17.2908C24.5359 16.413 24.3811 15.5389 24.0529 14.7243C23.7247 13.9096 23.2303 13.1723 22.6013 12.5594C21.9722 11.9465 21.2223 11.4714 20.3994 11.1645C19.5765 10.8576 18.6987 10.7255 17.8219 10.7768C16.8858 10.7366 15.9513 10.8868 15.0749 11.2182C14.1986 11.5496 13.3986 12.0554 12.7233 12.705C12.0481 13.3546 11.5117 14.1344 11.1467 14.9973C10.7816 15.8602 10.5954 16.7882 10.5993 17.7251C10.5866 19.0304 10.9866 20.3063 11.7421 21.3707C11.7971 21.4318 11.8362 21.5054 11.8561 21.585C11.876 21.6647 11.8761 21.7481 11.8564 21.8278C11.7306 22.3309 11.4564 23.4278 11.4107 23.6449C11.365 23.862 11.1707 23.9992 10.8736 23.862C8.87366 22.9249 7.628 20.0107 7.628 17.6565C7.628 12.6167 11.2964 7.97692 18.199 7.97692C23.7417 7.97692 28.0615 11.9311 28.0615 17.2223C28.0615 22.7306 24.6331 27.1648 19.7533 27.1648C19.0379 27.1896 18.3276 27.0354 17.687 26.7161C17.0463 26.3968 16.4956 25.9225 16.0848 25.3363L15.0906 29.1418C14.614 30.6208 13.9454 32.0309 13.1021 33.3359C14.6561 33.7952 16.2702 34.0187 17.8905 33.9988C22.1338 33.9988 26.2033 32.3131 29.2037 29.3127C32.2042 26.3122 33.8899 22.2427 33.8899 17.9994C33.8899 13.7561 32.2042 9.68658 29.2037 6.68611C26.2033 3.68565 22.1338 2 17.8905 2Z" fill="white"/>
</svg>
