<svg width="36" height="36" viewBox="0 0 36 36" fill="none" xmlns="http://www.w3.org/2000/svg">
<path d="M18 2C14.8355 2 11.7421 2.93838 9.11088 4.69649C6.4797 6.45459 4.42894 8.95345 3.21793 11.8771C2.00693 14.8007 1.69008 18.0177 2.30744 21.1214C2.92481 24.2251 4.44866 27.0761 6.6863 29.3137C8.92394 31.5513 11.7749 33.0752 14.8786 33.6926C17.9823 34.3099 21.1993 33.9931 24.1229 32.7821C27.0466 31.5711 29.5454 29.5203 31.3035 26.8891C33.0616 24.2579 34 21.1645 34 18C34.0002 15.8988 33.5864 13.8181 32.7824 11.8769C31.9784 9.93557 30.7999 8.17167 29.3141 6.6859C27.8283 5.20013 26.0644 4.02159 24.1231 3.21757C22.1819 2.41356 20.1012 1.99983 18 2ZM23.0872 26.2439C23.0273 26.3933 22.9362 26.5281 22.82 26.6393C22.7037 26.7505 22.565 26.8356 22.4132 26.8889C22.2614 26.9422 22.1 26.9623 21.9397 26.9481C21.7794 26.9339 21.6241 26.8855 21.484 26.8063L17.1405 23.4313L14.3528 26.0032C14.2882 26.051 14.2125 26.0817 14.1328 26.0926C14.0531 26.1035 13.972 26.0942 13.8968 26.0655L14.4312 21.284L14.4483 21.2975L14.4593 21.2031C14.4593 21.2031 22.2753 14.0871 22.5937 13.7839C22.916 13.4815 22.8097 13.4159 22.8097 13.4159C22.828 13.0471 22.2312 13.4159 22.2312 13.4159L11.8752 20.0784L7.56242 18.6096C7.56242 18.6096 6.90002 18.372 6.83762 17.8496C6.77202 17.3312 7.58401 17.0496 7.58401 17.0496L24.7312 10.2376C24.7312 10.2376 26.1408 9.60955 26.1408 10.6496L23.0872 26.2439Z" fill="white"/>
</svg>
