<svg width="96" height="86" viewBox="0 0 96 86" fill="none" xmlns="http://www.w3.org/2000/svg">
<path d="M24.2529 7.58303C24.1518 7.68408 24.0508 7.68408 24.0508 7.78513C24.0508 7.88618 24.0508 7.98724 24.0508 7.98724C24.2529 8.08829 24.556 8.39145 24.9603 8.59355C25.1624 8.69461 25.4655 8.79566 25.7687 8.89671C26.0718 8.99776 26.375 8.99776 26.6782 8.99776C28.0929 9.09882 29.4066 8.4925 30.0129 8.39145C30.114 8.39145 30.114 8.29039 30.215 8.18934C30.215 8.08829 30.215 7.98724 30.215 7.98724C30.114 7.78513 29.8108 7.48197 29.4066 7.27987C29.0024 6.97671 28.3961 6.7746 27.6887 6.67355C26.375 6.5725 24.7582 7.27987 24.2529 7.58303Z" fill="#343176"/>
<path d="M23.6465 6.77447C24.1517 6.26921 25.4654 5.15763 26.1728 3.74289C26.4759 3.03552 26.678 2.4292 26.678 1.92394C26.678 1.41867 26.678 1.01446 26.577 0.812356C26.577 0.711304 26.4759 0.711304 26.3749 0.711304C26.2738 0.711304 26.1728 0.711304 26.0717 0.812356C25.4654 1.11551 23.9496 2.4292 23.3433 3.74289C23.1412 4.04605 23.0401 4.45026 23.0401 4.75342C22.9391 5.05657 22.9391 5.35973 23.0401 5.66289C23.0401 6.16815 23.2423 6.57237 23.2423 6.77447C23.2423 6.87552 23.3433 6.87552 23.4444 6.87552C23.4444 6.87552 23.5454 6.87552 23.6465 6.77447Z" fill="#343176"/>
<path d="M18.5937 12.5346C18.4927 12.6357 18.3916 12.7367 18.3916 12.8378C18.3916 12.9388 18.3916 13.0399 18.4927 13.0399C18.9979 13.343 20.2106 13.8483 21.8274 13.6462C22.6358 13.5451 23.4442 13.242 24.0506 12.9388C24.6569 12.6357 25.1621 12.3325 25.4653 12.1304C25.5664 12.1304 25.5663 12.0293 25.5663 11.9283C25.5663 11.8272 25.5664 11.7262 25.4653 11.7262C25.0611 11.423 23.9495 10.5135 22.3327 10.7157C21.9284 10.7157 21.5242 10.8167 21.12 11.0188C20.7158 11.1199 20.3116 11.322 20.0084 11.5241C19.4021 11.9283 18.8969 12.3325 18.5937 12.5346Z" fill="#343176"/>
<path d="M19.4021 4.45022C19.099 4.75338 18.5937 5.3597 18.0884 6.06707C17.5832 6.77444 17.0779 7.58286 16.8758 8.49233C16.4716 10.3113 17.0779 11.5239 17.3811 11.9281C17.3811 12.0292 17.4821 12.0292 17.5832 12.0292C17.6842 12.0292 17.7853 11.9281 17.7853 11.9281C17.9874 11.625 18.4927 11.0187 18.8969 10.3113C19.099 9.90707 19.3011 9.60392 19.5032 9.19971C19.7053 8.79549 19.9074 8.39128 20.0084 7.98707C20.5137 6.26917 20.1095 4.95549 19.9074 4.45022C19.9074 4.34917 19.8063 4.34917 19.7053 4.34917C19.6042 4.24812 19.5032 4.34917 19.4021 4.45022Z" fill="#343176"/>
<path d="M13.541 19.2038C13.4399 19.3048 13.4399 19.4059 13.4399 19.5069C13.4399 19.608 13.541 19.7091 13.541 19.7091C13.8442 19.8101 14.3494 19.9112 15.0568 19.9112C15.3599 19.9112 15.7642 19.9112 16.1684 19.8101C16.5726 19.7091 16.9768 19.608 17.381 19.5069C18.2905 19.2038 19.0989 18.6985 19.7052 18.2943C20.4126 17.8901 20.9178 17.3848 21.221 17.1827C21.3221 17.0817 21.3221 16.9806 21.3221 16.9806C21.3221 16.8796 21.3221 16.7785 21.221 16.7785C20.7157 16.4754 19.301 15.869 17.381 16.3743C16.4715 16.6775 15.6631 17.1827 14.9557 17.7891C14.7536 17.8901 14.6526 18.0922 14.4505 18.1933C14.3494 18.2943 14.1473 18.4964 14.0463 18.5975C13.8442 18.7996 13.642 19.0017 13.541 19.2038Z" fill="#343176"/>
<path d="M12.7325 9.90722C12.4293 10.3114 11.9241 11.1199 11.5198 12.0293C11.1156 12.9388 10.8125 14.0504 10.7114 15.162C10.7114 15.6672 10.7114 16.1725 10.8125 16.5767C10.9135 16.9809 11.0146 17.3851 11.2167 17.6883C11.5198 18.2946 11.9241 18.6988 12.1262 18.9009C12.2272 19.002 12.3283 19.002 12.4293 18.9009C12.5304 18.9009 12.6314 18.7999 12.6314 18.6988V18.5978C12.7325 18.3957 12.8335 18.0925 13.0356 17.7893C13.1367 17.5872 13.1367 17.3851 13.2377 17.183C13.3388 16.9809 13.4399 16.7788 13.4399 16.5767C13.743 15.6672 14.0462 14.6567 14.1472 13.6462C14.3493 11.6251 13.642 10.2104 13.3388 9.70512C13.3388 9.60407 13.2377 9.60406 13.0356 9.60406C12.9346 9.70512 12.8335 9.80617 12.7325 9.90722Z" fill="#343176"/>
<path d="M9.70079 27.8945C9.59974 27.9956 9.59974 28.1977 9.70079 28.2987C9.70079 28.3998 9.80184 28.5008 9.90289 28.5008C10.2061 28.5008 10.9134 28.5008 11.6208 28.2987C12.025 28.1977 12.4292 28.0966 12.8334 27.8945C13.2376 27.6924 13.6418 27.4903 14.1471 27.1871C14.5513 26.884 14.9555 26.5808 15.3597 26.2777C15.5619 26.0755 15.6629 25.9745 15.865 25.7724C15.9661 25.6713 16.0671 25.5703 16.0671 25.4692C16.1682 25.3682 16.2692 25.2671 16.2692 25.2671C16.8755 24.6608 17.2797 24.0545 17.5829 23.6503C17.5829 23.6503 17.5829 23.6503 17.5829 23.5492C17.5829 23.4482 17.684 23.3471 17.5829 23.2461C17.5829 23.145 17.4819 23.044 17.3808 23.044C16.6734 22.8419 15.0566 22.4376 13.1366 23.5492C11.3176 24.6608 10.0039 26.884 9.70079 27.8945Z" fill="#343176"/>
<path d="M6.56863 17.8904C6.36653 18.3957 6.06337 19.4062 5.76021 20.5178C5.76021 20.6189 5.65916 20.821 5.65916 20.922C5.65916 21.0231 5.65916 21.2252 5.55811 21.3262C5.55811 21.7304 5.55811 22.0336 5.55811 22.3368C5.55811 22.9431 5.55811 23.5494 5.65916 24.1557C5.76021 24.762 5.96232 25.2673 6.16442 25.6715C6.36653 26.0757 6.66969 26.4799 6.87179 26.7831C7.37706 27.3894 7.88232 27.6926 8.18548 27.8947C8.28653 27.8947 8.38758 27.8947 8.48864 27.8947C8.58969 27.7936 8.58969 27.6926 8.69074 27.5915V27.4905C8.7918 26.4799 9.29706 23.9536 8.9939 21.6294C8.69074 19.3052 7.57916 17.8904 7.0739 17.3852C6.97284 17.2841 6.87179 17.2841 6.77074 17.3852C6.66969 17.5873 6.56863 17.6883 6.56863 17.8904Z" fill="#343176"/>
<path d="M8.08398 37.4946C8.08398 37.5956 8.08398 37.7977 8.18504 37.8988C8.28609 37.9998 8.38714 38.1009 8.4882 37.9998C8.89241 37.8988 9.49872 37.6967 10.3071 37.3935C10.7114 37.1914 11.1156 36.9893 11.5198 36.6862C11.7219 36.5851 11.924 36.383 12.1261 36.1809C12.3282 35.9788 12.5303 35.7767 12.7324 35.5746C13.1366 35.1704 13.4398 34.7661 13.7429 34.2609C13.844 34.0588 14.0461 33.8567 14.1472 33.5535C14.2482 33.3514 14.4503 33.1493 14.5514 32.9472C15.0566 32.1388 15.3598 31.3304 15.4608 30.9261C15.4608 30.9261 15.4608 30.9261 15.4608 30.8251C15.4608 30.724 15.4608 30.623 15.4608 30.5219C15.4608 30.4209 15.3598 30.3198 15.2587 30.3198C14.8545 30.3198 14.1472 30.3198 13.3387 30.5219C12.5303 30.724 11.6208 31.1282 10.7114 31.9367C8.89241 33.5535 8.18504 36.383 8.08398 37.4946Z" fill="#343176"/>
<path d="M2.12203 27.4902C2.02097 28.0965 1.91992 29.3091 1.91992 30.6228C1.91992 30.926 1.91992 31.3302 2.02097 31.6333C2.12203 31.9365 2.12203 32.3407 2.22308 32.6439C2.32413 33.3512 2.62729 33.9576 2.8294 34.5639C2.93045 34.867 3.13256 35.1702 3.23361 35.3723C3.43571 35.6755 3.63782 35.8776 3.73887 36.0797C4.14308 36.4839 4.44624 36.787 4.85045 37.0902C5.55782 37.5955 6.26519 37.7976 6.56835 37.8986C6.6694 37.8986 6.77046 37.8986 6.87151 37.7976C6.97256 37.6965 6.97256 37.5955 6.97256 37.4944V37.3933C6.87151 36.2818 6.6694 33.3512 5.75993 31.027C5.35572 29.8144 4.64835 28.9049 4.04203 28.1975C3.53677 27.5912 2.93045 27.187 2.62729 26.9849C2.52624 26.8839 2.42519 26.9849 2.32413 27.086C2.22308 27.187 2.12203 27.2881 2.12203 27.4902Z" fill="#343176"/>
<path d="M9.09515 48.2062C9.09515 48.4083 9.1962 48.5094 9.29726 48.6104C9.39831 48.7115 9.49936 48.7115 9.60041 48.7115C10.0046 48.5094 10.6109 48.1052 11.3183 47.4989C12.0257 46.8925 12.7331 45.9831 13.3394 44.9725C13.6425 44.4673 13.8446 43.861 14.0467 43.2547C14.1478 42.9515 14.2488 42.7494 14.2488 42.4462C14.3499 42.1431 14.4509 41.941 14.4509 41.6378C14.6531 40.6273 14.8552 39.7178 14.8552 39.2125C14.8552 39.2125 14.8552 39.2125 14.8552 39.1115C14.8552 39.0104 14.8552 38.9094 14.7541 38.8083C14.6531 38.7073 14.552 38.7073 14.4509 38.7073C13.6425 38.9094 11.5204 39.4146 10.1057 41.6378C9.39831 42.7494 9.09515 44.0631 8.89305 45.2757C8.79199 45.882 8.79199 46.4883 8.79199 46.9936C8.9941 47.4989 9.09515 47.9031 9.09515 48.2062Z" fill="#343176"/>
<path d="M0 39.2123C0.101053 39.9197 0.202106 41.2334 0.70737 42.6481C0.808422 42.9513 0.909475 43.3555 1.11158 43.7597C1.21263 44.1639 1.41474 44.4671 1.61684 44.7702C1.92 45.4776 2.32421 46.0839 2.82948 46.6902C3.84001 47.8018 4.85053 48.4081 5.76001 48.7113C6.66948 49.0144 7.37685 49.1155 7.88212 49.1155C7.98317 49.1155 8.08422 49.0144 8.08422 48.9134C8.08422 48.8123 8.08422 48.7113 8.08422 48.5092V48.4081C7.57896 47.2965 6.56843 44.265 4.95159 41.9407C3.33474 39.6165 1.21263 38.707 0.404211 38.5049C0.303158 38.5049 0.202105 38.5049 0.101053 38.7071C-9.78773e-08 38.8081 0 39.0102 0 39.2123Z" fill="#343176"/>
<path d="M13.4402 58.8166C13.5412 59.0187 13.6423 59.1198 13.7433 59.1198C13.8444 59.2208 14.0465 59.1198 14.0465 59.1198C14.3496 58.8166 14.956 58.2103 15.4612 57.3008C15.9665 56.3914 16.4718 55.2798 16.7749 53.9661C17.0781 52.6524 17.0781 51.3387 16.977 50.2271C16.977 49.1156 16.7749 48.2061 16.7749 47.5998C16.7749 47.5998 16.7749 47.5998 16.7749 47.4987C16.7749 47.3977 16.6739 47.2966 16.5728 47.2966C16.4718 47.1956 16.3707 47.1956 16.2697 47.2966C15.4612 47.7008 13.3391 48.9135 12.5307 51.6419C12.3286 52.3493 12.2275 53.0566 12.2275 53.764C12.2275 54.4714 12.3286 55.1787 12.4296 55.8861C12.5307 56.4924 12.7328 57.1998 12.9349 57.705C13.137 58.1093 13.3391 58.5135 13.4402 58.8166Z" fill="#343176"/>
<path d="M1.21288 52.1471C1.51604 52.9555 2.12235 54.2692 3.03183 55.5829C3.9413 56.8966 5.15394 58.3113 6.56868 59.2208C7.98342 60.1303 9.2971 60.4335 10.3076 60.4335C11.3182 60.4335 12.1266 60.2313 12.6318 60.1303C12.7329 60.1303 12.834 60.0292 12.834 59.8271C12.834 59.7261 12.834 59.625 12.7329 59.4229V59.3219C12.5308 59.0187 12.2276 58.7156 11.9245 58.2103C11.5203 57.8061 11.2171 57.3008 10.7118 56.6945C10.2066 56.1892 9.80237 55.5829 9.19605 55.0777C8.69079 54.5724 8.08447 53.9661 7.47815 53.4608C5.05288 51.5408 2.62762 51.1366 1.71814 51.1366C1.61709 51.1366 1.51604 51.2377 1.51604 51.3387C1.11183 51.7429 1.11183 51.945 1.21288 52.1471Z" fill="#343176"/>
<path d="M21.5243 68.4167C21.6254 68.5178 21.8275 68.6188 21.9285 68.6188C22.0296 68.6188 22.2317 68.6188 22.2317 68.5178C22.4338 68.1136 22.838 67.2041 23.0401 66.1936C23.2422 65.082 23.4443 63.7683 23.2422 62.3535C23.1412 60.9388 22.6359 59.5241 22.2317 58.4125C22.1306 58.1093 22.0296 57.9072 21.9285 57.6041C21.8275 57.3009 21.7264 57.0988 21.6254 56.8967C21.4233 56.4925 21.2212 56.0883 21.1201 55.8862C21.1201 55.8862 21.1201 55.8862 21.1201 55.7851C21.0191 55.6841 21.0191 55.583 20.8169 55.583C20.7159 55.583 20.6148 55.583 20.5138 55.6841C19.8064 56.3914 17.9875 58.3114 18.0885 61.343C18.0885 61.7472 18.1896 62.1514 18.1896 62.4546C18.2906 62.8588 18.3917 63.162 18.4927 63.5662C18.6948 64.2736 19.099 64.9809 19.4022 65.6883C19.7054 66.2946 20.1096 66.9009 20.5138 67.4062C20.918 67.7093 21.3222 68.1136 21.5243 68.4167Z" fill="#343176"/>
<path d="M6.6689 65.385C6.97206 65.7893 7.37627 66.1935 7.88154 66.6987C8.1847 67.0019 8.3868 67.204 8.68996 67.5071C8.99312 67.8103 9.29628 68.1135 9.70049 68.3156C11.1152 69.4271 12.8331 70.4377 14.551 70.9429C16.2689 71.3472 17.7847 71.2461 18.8963 70.9429C20.0079 70.6398 20.7152 70.1345 21.1195 69.8314C21.2205 69.7303 21.2205 69.6293 21.2205 69.5282C21.2205 69.4271 21.1195 69.3261 21.0184 69.225C21.0184 69.225 21.0184 69.225 20.9173 69.124C20.6142 68.9219 20.21 68.6187 19.7047 68.3156C19.1994 68.0124 18.5931 67.6082 17.8858 67.204C17.2794 66.7998 16.471 66.3956 15.7637 65.9914C15.3594 65.7892 14.9552 65.5871 14.6521 65.4861C14.2479 65.284 13.8437 65.1829 13.4394 64.9808C13.0352 64.8798 12.631 64.6777 12.2268 64.5766C11.8226 64.4756 11.5194 64.3745 11.1152 64.2735C10.4079 64.1724 9.70049 64.0714 9.19522 64.0714C7.98259 64.0714 7.17417 64.2735 6.6689 64.3745C6.56785 64.3745 6.4668 64.5766 6.4668 64.6777C6.4668 64.9808 6.4668 65.1829 6.6689 65.385Z" fill="#343176"/>
<path d="M32.539 74.9851C32.7411 75.0862 32.8421 75.0862 33.0442 75.0862C33.2463 75.0862 33.2463 74.9851 33.3474 74.783C33.4484 74.2778 33.4484 73.2672 33.3474 72.0546C33.2463 70.842 32.8421 69.5283 32.2358 68.1135C31.9326 67.4062 31.5284 66.7999 31.1242 66.1935C30.9221 65.8904 30.72 65.5872 30.5179 65.2841C30.3158 64.9809 30.1137 64.7788 29.9116 64.4756C29.1032 63.4651 28.3958 62.6567 27.9916 62.2525C27.9916 62.2525 27.9916 62.2525 27.8905 62.2525C27.7895 62.1514 27.6884 62.1514 27.5874 62.1514C27.4863 62.1514 27.3853 62.2525 27.2842 62.3535C26.9811 62.8588 26.5768 63.6672 26.3747 64.7788C26.1726 65.8904 26.0716 67.3051 26.6779 68.922C26.9811 69.6293 27.3853 70.4378 27.8905 71.1451C28.0926 71.4483 28.3958 71.8525 28.699 72.1557C29.0021 72.4588 29.3053 72.762 29.5074 72.9641C30.72 73.9746 31.9326 74.682 32.539 74.9851Z" fill="#343176"/>
<path d="M32.64 76.2987C32.5389 76.1976 32.4379 76.0966 32.3368 75.9955H32.2358C31.4274 75.7934 30.1137 75.3892 28.4968 75.0861C28.0926 74.985 27.6884 74.884 27.2842 74.884C26.7789 74.6819 26.2737 74.6819 25.8695 74.5808C24.96 74.4798 24.0505 74.2776 23.141 74.2776C21.3221 74.1766 19.7052 74.4797 18.4926 74.884C17.28 75.2882 16.3705 75.7934 15.9663 76.0966C15.8652 76.1976 15.8652 76.2987 15.8652 76.5008C15.9663 76.7029 16.0673 76.804 16.2694 77.0061C17.0779 77.5113 18.5937 78.4208 20.4126 79.1282C20.9179 79.3303 21.3221 79.4313 21.8273 79.6334C22.3326 79.7345 22.8379 79.8355 23.3431 79.9366C24.3537 80.1387 25.3642 80.2398 26.3747 80.1387C28.2947 80.0377 29.8105 79.3303 30.821 78.6229C31.8316 77.9155 32.4379 77.1071 32.7411 76.7029C32.7411 76.5008 32.741 76.3998 32.64 76.2987Z" fill="#343176"/>
<path d="M45.8782 77.6124C46.0803 77.6124 46.2824 77.6124 46.3834 77.5114C46.4845 77.4103 46.5855 77.3093 46.5855 77.2082C46.4845 76.6019 46.1813 75.5914 45.575 74.4798C44.9687 73.3682 44.1603 72.0545 43.0487 70.9429C42.4424 70.3366 41.836 69.8313 41.2297 69.3261C40.6234 68.8208 40.0171 68.4166 39.4108 68.1134C38.8045 67.7092 38.2992 67.4061 37.895 67.204C37.4908 66.9008 37.0866 66.6987 36.7834 66.5977C36.7834 66.5977 36.7834 66.5977 36.6824 66.5977C36.5813 66.5977 36.4802 66.5977 36.3792 66.5977C36.2781 66.5977 36.1771 66.7998 36.1771 66.9008C36.076 67.5071 35.975 68.5177 36.076 69.7303C36.1771 70.3366 36.2781 71.044 36.5813 71.7513C36.8845 72.4587 37.2887 73.1661 37.7939 73.8735C38.0971 74.1766 38.4003 74.4798 38.7034 74.7829C38.9055 74.884 39.0066 75.0861 39.2087 75.1871C39.4108 75.2882 39.6129 75.4903 39.7139 75.5914C40.1181 75.7935 40.4213 76.0966 40.8255 76.2987C41.2297 76.5008 41.6339 76.7029 42.0382 76.804C43.5539 77.2082 45.0697 77.5114 45.8782 77.6124Z" fill="#343176"/>
<path d="M45.9789 78.6231H45.8778C45.0694 78.7242 43.5536 78.8252 41.7347 79.1284C41.3304 79.2294 40.8252 79.2294 40.3199 79.3305C39.8147 79.4315 39.4104 79.4315 38.9052 79.5326C38.3999 79.6336 37.8947 79.7347 37.4904 79.8357C36.9852 79.9368 36.4799 80.0378 36.0757 80.24C35.1662 80.5431 34.2568 80.8463 33.5494 81.2505C32.842 81.6547 32.1346 82.0589 31.6294 82.4631C30.5178 83.2715 29.8104 84.08 29.4062 84.4842C29.3052 84.5852 29.3052 84.7873 29.5073 84.8884C29.6083 85.0905 29.8104 85.1915 30.1136 85.1915C30.6189 85.2926 31.3262 85.4947 32.2357 85.5958C33.1452 85.6968 34.0546 85.8989 35.1662 85.8989C35.6715 85.8989 36.2778 85.8989 36.7831 85.8989C37.2883 85.8989 37.8947 85.7979 38.3999 85.6968C39.5115 85.5958 40.522 85.1915 41.5326 84.7873C43.4526 83.9789 44.6652 82.7663 45.4736 81.6547C46.282 80.5431 46.5852 79.5326 46.6862 79.0273C46.6862 78.9263 46.6862 78.7242 46.4841 78.6231C46.282 78.7242 46.0799 78.6231 45.9789 78.6231Z" fill="#343176"/>
<path d="M35.8743 1.2166C35.4701 1.2166 34.8638 1.11555 34.0553 1.2166C33.6511 1.2166 33.2469 1.31766 32.8427 1.41871C32.4385 1.51976 31.9332 1.62081 31.529 1.82292C31.1248 2.02503 30.6195 2.22713 30.3164 2.42924C30.1143 2.53029 29.9122 2.63134 29.8111 2.7324C29.609 2.83345 29.508 3.03555 29.3059 3.13661C28.6995 3.64187 28.2953 4.14714 27.9922 4.45029C27.8911 4.55135 27.8911 4.6524 27.8911 4.75345C27.9922 4.85451 28.0932 4.8545 28.1943 4.8545C28.5985 4.8545 29.2048 4.75345 30.0132 4.55135C30.2153 4.55135 30.4174 4.45029 30.5185 4.45029C30.7206 4.45029 30.9227 4.34924 31.1248 4.34924C31.529 4.24819 31.9332 4.14714 32.3374 3.94503C32.7416 3.74292 33.1459 3.54082 33.5501 3.33871C33.9543 3.13661 34.2574 2.9345 34.5606 2.7324C35.1669 2.32818 35.6722 1.92397 35.9753 1.62082C36.0764 1.51976 36.1774 1.41871 36.0764 1.31766C36.1774 1.2166 36.0764 1.2166 35.8743 1.2166Z" fill="#343176"/>
<path d="M72.3538 6.77453C72.4549 6.87559 72.556 6.87558 72.657 6.87558C72.7581 6.87558 72.8591 6.87559 72.8591 6.77453C72.9602 6.57243 73.0612 6.16822 73.0612 5.66295C73.0612 5.35979 73.0612 5.15769 73.0612 4.75348C73.0612 4.45032 72.9602 4.04611 72.7581 3.74295C72.0507 2.32821 70.636 1.11558 70.0296 0.812417H69.9286C69.8275 0.812417 69.7265 0.711365 69.6254 0.711365C69.5244 0.711365 69.4233 0.812417 69.4233 0.812417C69.4233 1.01452 69.3223 1.41873 69.3223 1.924C69.3223 2.42926 69.5244 3.03558 69.8275 3.74295C70.5349 5.15769 71.8486 6.26927 72.3538 6.77453Z" fill="#343176"/>
<path d="M71.7472 7.68403C71.1409 7.27981 69.6251 6.6735 68.2104 6.77455C67.503 6.77455 66.8967 7.07771 66.4925 7.38087C66.0883 7.68403 65.7851 7.98718 65.6841 8.08824C65.6841 8.18929 65.583 8.18929 65.6841 8.29034C65.6841 8.3914 65.7851 8.39139 65.8862 8.49245C66.4925 8.69455 67.8062 9.30087 69.2209 9.09876C69.6251 9.09876 69.9283 8.99771 70.1304 8.99771C70.4336 8.89666 70.6357 8.79561 70.9388 8.69455C71.343 8.49245 71.7472 8.29034 71.8483 8.08824C71.9493 8.08824 71.9493 7.98718 71.8483 7.88613C71.9493 7.78508 71.8483 7.68403 71.7472 7.68403Z" fill="#343176"/>
<path d="M78.2147 11.8273C78.3158 11.9284 78.4168 12.0294 78.5179 12.0294C78.6189 12.0294 78.72 12.0294 78.72 11.9284C79.0231 11.5242 79.6294 10.3115 79.2252 8.49259C79.0231 7.58312 78.5179 6.77469 78.0126 6.06732C77.5073 5.35996 77.0021 4.75364 76.6989 4.45048H76.5979C76.4968 4.34943 76.3958 4.34943 76.2947 4.34943C76.1937 4.34943 76.0926 4.34943 76.0926 4.45048C75.8905 4.95574 75.4863 6.26943 75.9915 7.98733C76.0926 8.39154 76.2947 8.79575 76.4968 9.19996C76.6989 9.60417 76.901 9.90733 77.1031 10.3115C77.5073 10.9179 77.9116 11.5242 78.2147 11.8273Z" fill="#343176"/>
<path d="M70.5345 12.2312C70.8377 12.4334 71.3429 12.7365 71.9492 13.0397C72.5556 13.3428 73.364 13.5449 74.1724 13.747C75.7893 13.9491 77.0019 13.4439 77.5072 13.1407C77.6082 13.1407 77.6082 13.0397 77.6082 12.9386C77.6082 12.8376 77.5072 12.7365 77.5072 12.7365C77.204 12.5344 76.6987 12.1302 75.9914 11.726C75.6882 11.5239 75.284 11.3218 74.8798 11.2207C74.4756 11.1197 74.0714 11.0186 73.6672 10.9176C72.0503 10.7155 70.9387 11.6249 70.5345 11.9281C70.4335 12.0291 70.4335 12.0291 70.4335 12.1302C70.3324 12.0291 70.4335 12.1302 70.5345 12.2312Z" fill="#343176"/>
<path d="M83.3683 18.5978C83.4694 18.6988 83.4694 18.7999 83.5704 18.9009C83.6715 18.9009 83.7725 18.9009 83.8736 18.9009C84.0757 18.6988 84.4799 18.2946 84.7831 17.6883C84.9852 17.3851 85.0862 16.9809 85.1873 16.5767C85.2883 16.1725 85.3894 15.6672 85.2883 15.162C85.1873 14.1514 84.8841 13.0399 84.4799 12.0293C84.0757 11.1199 83.5704 10.3114 83.2673 9.90722V9.80617C83.1662 9.70512 83.0652 9.60406 82.9641 9.60406C82.863 9.60406 82.762 9.60407 82.6609 9.70512C82.3578 10.2104 81.5494 11.7262 81.8525 13.6462C81.9536 14.6567 82.2567 15.6672 82.5599 16.5767C82.6609 16.7788 82.762 16.9809 82.762 17.183C82.8631 17.3851 82.863 17.5872 82.9641 17.7893C83.1662 18.1936 83.2673 18.3957 83.3683 18.5978Z" fill="#343176"/>
<path d="M74.7788 17.183C75.0819 17.4862 75.5872 17.8904 76.2946 18.2946C76.9009 18.7998 77.7093 19.2041 78.6188 19.5072C79.023 19.6083 79.4272 19.7093 79.8314 19.8104C80.2356 19.9114 80.6398 19.9114 80.943 19.9114C81.6504 19.9114 82.1556 19.8104 82.4588 19.7093C82.5598 19.7093 82.5598 19.6083 82.5598 19.5072C82.5598 19.4062 82.5598 19.3051 82.4588 19.2041V19.103C82.3577 18.9009 82.1556 18.6988 81.8525 18.3956C81.7514 18.2946 81.6504 18.0925 81.4482 17.9914C81.2461 17.8904 81.1451 17.6883 80.943 17.5872C80.2356 16.9809 79.4272 16.4756 78.5177 16.1725C76.6988 15.6672 75.284 16.2735 74.6777 16.5767C74.5767 16.5767 74.5767 16.6777 74.5767 16.7788C74.6777 16.9809 74.7788 17.0819 74.7788 17.183Z" fill="#343176"/>
<path d="M87.3094 27.5913C87.3094 27.6924 87.4104 27.8945 87.5115 27.8945C87.6125 27.9955 87.7136 27.9955 87.8146 27.8945C88.1178 27.6924 88.6231 27.3892 89.1283 26.7829C89.4315 26.4797 89.6336 26.0755 89.8357 25.6713C90.0378 25.2671 90.2399 24.7618 90.341 24.1555C90.442 23.5492 90.442 22.9429 90.442 22.3366C90.442 22.0334 90.442 21.7302 90.341 21.4271C90.341 21.225 90.341 21.1239 90.2399 21.0229C90.2399 20.9218 90.1389 20.7197 90.1389 20.6187C89.8357 19.5071 89.5325 18.4966 89.3304 17.9913V17.8902C89.2294 17.7892 89.2294 17.6881 89.1283 17.5871C89.0273 17.486 88.9262 17.486 88.8252 17.5871C88.3199 18.0923 87.1073 19.5071 86.9052 21.8313C86.7031 24.0545 87.2083 26.4797 87.3094 27.5913Z" fill="#343176"/>
<path d="M78.5182 23.6504C78.7203 24.0546 79.2255 24.6609 79.8319 25.2672C79.9329 25.3683 80.034 25.4693 80.034 25.4693C80.135 25.5704 80.2361 25.6715 80.2361 25.7725C80.4382 25.9746 80.5392 26.0757 80.7413 26.2778C81.1455 26.5809 81.5498 26.8841 81.954 27.1872C82.4592 27.4904 82.8634 27.6925 83.2677 27.8946C83.6719 28.0967 84.0761 28.1978 84.4803 28.2988C85.1877 28.5009 85.794 28.5009 86.1982 28.5009C86.2992 28.5009 86.4003 28.3999 86.4003 28.2988C86.4003 28.1978 86.4003 28.0967 86.4003 27.9957V27.8946C86.0971 26.9851 84.7834 24.762 82.9645 23.6504C81.0445 22.6399 79.3266 22.943 78.7203 23.1451C78.6192 23.1451 78.5182 23.2462 78.5182 23.3472C78.4171 23.4483 78.4171 23.5493 78.5182 23.6504Z" fill="#343176"/>
<path d="M89.0269 37.3935C89.0269 37.5956 89.0269 37.6966 89.1279 37.7977C89.229 37.8988 89.33 37.8987 89.4311 37.8987C89.8353 37.7977 90.4416 37.5956 91.149 37.0903C91.5532 36.7872 91.8563 36.484 92.2605 36.0798C92.4627 35.8777 92.6648 35.6756 92.7658 35.3724C92.9679 35.0693 93.069 34.8672 93.17 34.564C93.4732 33.9577 93.6753 33.2503 93.7763 32.644C93.8774 32.3408 93.8774 31.9366 93.9784 31.6335C94.0795 31.3303 93.9784 30.9261 94.0795 30.6229C94.0795 29.3093 93.9784 28.0966 93.8774 27.4903V27.3893C93.8774 27.2882 93.7763 27.0861 93.6753 27.0861C93.5742 26.985 93.4732 26.985 93.3721 26.985C93.069 27.1872 92.4627 27.5914 91.8563 28.1977C91.25 28.9051 90.6437 29.8145 90.1384 31.0272C89.229 33.4524 89.1279 36.2819 89.0269 37.3935Z" fill="#343176"/>
<path d="M80.6396 30.926C80.8418 31.3303 81.0439 32.1387 81.5491 32.9471C81.6502 33.1492 81.8523 33.3513 81.9533 33.5534C82.0544 33.7555 82.2565 33.9576 82.3575 34.2608C82.6607 34.665 82.9639 35.1703 83.3681 35.5745C83.5702 35.7766 83.7723 35.9787 83.9744 36.1808C84.1765 36.3829 84.3786 36.4839 84.5807 36.6861C84.9849 36.9892 85.3891 37.1913 85.7933 37.3934C86.5007 37.7976 87.2081 37.9997 87.6123 37.9997C87.7133 37.9997 87.8144 37.9997 87.9154 37.8987C88.0165 37.7976 88.0165 37.6966 88.0165 37.5955V37.4945C87.9154 36.3829 87.2081 33.6545 85.3891 32.0376C84.4797 31.2292 83.5702 30.825 82.7618 30.6229C81.9533 30.4208 81.246 30.4208 80.8418 30.4208C80.7407 30.4208 80.6396 30.5218 80.6396 30.6229C80.6396 30.6229 80.6396 30.825 80.6396 30.926Z" fill="#343176"/>
<path d="M87.9156 48.4083C87.8146 48.6104 87.8146 48.7115 87.9156 48.8126C87.9156 48.9136 88.0167 49.0147 88.1177 49.0147C88.5219 49.0147 89.3304 49.0147 90.2399 48.6104C91.1493 48.3073 92.2609 47.701 93.1704 46.5894C93.6756 45.9831 94.0799 45.3768 94.383 44.6694C94.5851 44.3662 94.6862 43.962 94.8883 43.6589C94.9893 43.2546 95.1914 42.9515 95.2925 42.5473C95.7978 41.1325 95.8988 39.8189 95.9999 39.1115V39.0104C95.9999 38.8083 95.9999 38.7073 95.8988 38.6062C95.7978 38.5052 95.6967 38.4041 95.5956 38.4041C94.7872 38.6062 92.7662 39.5157 91.0483 41.8399C89.4314 44.2652 88.4209 47.2968 87.9156 48.4083Z" fill="#343176"/>
<path d="M81.0439 39.1115C81.0439 39.6167 81.246 40.5262 81.4481 41.5367C81.5492 41.8399 81.5492 42.042 81.6502 42.3452C81.7513 42.6483 81.8523 42.8504 81.8523 43.1536C82.0545 43.7599 82.2566 44.2652 82.5597 44.8715C83.166 45.9831 83.8734 46.7915 84.5808 47.3978C85.2881 48.0041 85.8945 48.4083 86.2987 48.6104C86.3997 48.7115 86.5008 48.6104 86.6018 48.5094C86.7029 48.4083 86.7029 48.3073 86.8039 48.2062V48.1052C86.8039 47.802 86.905 47.3978 86.905 46.8925C86.905 46.3873 86.905 45.7809 86.8039 45.1746C86.7029 43.962 86.2987 42.6483 85.5913 41.5367C84.1766 39.3136 82.0545 38.8083 81.246 38.6062C81.145 38.6062 81.0439 38.6062 80.9429 38.7073C81.0439 38.9094 81.0439 39.0104 81.0439 39.1115Z" fill="#343176"/>
<path d="M83.4702 59.423C83.3691 59.524 83.2681 59.7262 83.2681 59.8272C83.2681 59.9283 83.3691 60.0293 83.4702 60.1304C83.8744 60.2314 84.7839 60.4335 85.7944 60.4335C86.8049 60.4335 88.2197 60.1304 89.5333 59.2209C90.9481 58.3114 92.1607 56.9977 93.0702 55.583C93.9797 54.2693 94.586 52.8546 94.8891 52.1472V52.0461C94.8891 51.844 94.9902 51.743 94.8891 51.6419C94.8891 51.4398 94.7881 51.4398 94.687 51.4398C93.7776 51.4398 91.3523 51.844 88.927 53.764C88.3207 54.2693 87.7144 54.7746 87.2091 55.3809C86.6028 55.8861 86.1986 56.4925 85.6933 56.9977C85.1881 57.503 84.7839 58.0083 84.4807 58.5135C83.8744 58.7156 83.6723 59.1198 83.4702 59.423Z" fill="#343176"/>
<path d="M79.2251 47.5997C79.124 48.105 79.0229 49.1155 79.0229 50.2271C79.0229 51.3387 79.023 52.6524 79.2251 53.9661C79.5282 55.2797 79.9324 56.3913 80.5387 57.3008C81.044 58.2103 81.6503 58.8166 81.9535 59.1198C82.0545 59.2208 82.1556 59.2208 82.2566 59.1198C82.3577 59.1198 82.4587 59.0187 82.5598 58.8166V58.7155C82.6608 58.4124 82.863 58.0082 83.0651 57.5029C83.2672 56.9976 83.3682 56.3913 83.5703 55.684C83.6714 55.0776 83.7724 54.2692 83.7724 53.5618C83.7724 52.8545 83.6714 52.1471 83.4693 51.4397C82.6609 48.7113 80.5387 47.4987 79.7303 47.0945C79.6293 46.9934 79.5282 47.0945 79.4272 47.0945C79.3261 47.3976 79.2251 47.4987 79.2251 47.5997Z" fill="#343176"/>
<path d="M75.1835 69.1241C75.0825 69.2252 74.8804 69.3262 74.8804 69.5283C74.8804 69.6294 74.8804 69.8315 74.9814 69.8315C75.3856 70.1347 76.1941 70.6399 77.2046 70.9431C78.3162 71.2462 79.7309 71.3473 81.5499 70.9431C83.2678 70.4378 84.9857 69.4273 86.4004 68.3157C86.7036 68.0126 87.1078 67.7094 87.4109 67.5073C87.7141 67.2041 88.0172 66.901 88.2193 66.6989C88.7246 66.1936 89.1288 65.6883 89.432 65.3852C89.432 65.3852 89.432 65.2841 89.533 65.2841C89.6341 65.1831 89.7351 64.981 89.7351 64.7789C89.7351 64.5768 89.7351 64.4757 89.533 64.4757C89.0278 64.3747 88.1183 64.1725 87.0067 64.1725C86.4004 64.1725 85.7941 64.2736 85.0867 64.3747C84.7835 64.4757 84.3793 64.4757 83.9751 64.6778C83.5709 64.7789 83.1667 64.8799 82.7625 65.082C82.3583 65.1831 81.9541 65.3852 81.5499 65.5873C81.1456 65.7894 80.7414 65.9915 80.4383 66.0926C79.7309 66.4968 78.9225 66.901 78.3162 67.3052C77.7099 67.7094 77.0025 68.1136 76.4972 68.4168C75.8909 68.7199 75.4867 68.922 75.1835 69.1241Z" fill="#343176"/>
<path d="M74.7786 55.7852C74.6775 56.0883 74.4754 56.3915 74.2733 56.7957C74.1723 56.9978 74.0712 57.301 73.9702 57.5031C73.8691 57.7052 73.7681 58.0084 73.667 58.3115C73.2628 59.4231 72.8586 60.8378 72.6565 62.2526C72.4544 63.6673 72.6565 64.981 72.8586 66.0926C73.0607 67.2042 73.4649 68.0126 73.667 68.4168C73.7681 68.5178 73.8691 68.6189 73.9702 68.5178C74.0712 68.5178 74.1723 68.4168 74.3744 68.3157C74.3744 68.3157 74.3744 68.3157 74.4754 68.2147C74.6775 67.9115 75.0817 67.6084 75.3849 67.1031C75.6881 66.5978 76.0923 66.0926 76.4965 65.3852C76.7996 64.7789 77.2038 64.0715 77.4059 63.2631C77.507 62.8589 77.6081 62.5557 77.7091 62.1515C77.8102 61.7473 77.8102 61.3431 77.8102 61.0399C77.9112 58.0084 76.0923 56.0884 75.3849 55.381C75.2838 55.482 75.1828 55.482 75.0817 55.482C74.9807 55.482 74.8796 55.5831 74.7786 55.7852Z" fill="#343176"/>
<path d="M63.7642 75.9957C63.5621 76.0967 63.461 76.1978 63.36 76.2988C63.2589 76.3999 63.2589 76.602 63.36 76.703C63.6631 77.1073 64.2694 77.9157 65.28 78.623C66.2905 79.3304 67.7052 79.9367 69.7263 80.1388C70.7368 80.1388 71.7474 80.1388 72.7579 79.9367C73.2631 79.8357 73.7684 79.7346 74.2737 79.6336C74.7789 79.5325 75.1832 79.3304 75.6884 79.1283C77.5074 78.4209 79.0232 77.5115 79.8316 77.0062C79.8316 77.0062 79.9326 77.0062 79.9326 76.9051C80.0337 76.8041 80.2358 76.602 80.2358 76.5009C80.3368 76.2988 80.2358 76.1978 80.1347 76.0967C79.6295 75.7936 78.8211 75.2883 77.6084 74.8841C76.3958 74.4799 74.88 74.2778 72.96 74.2778C72.0505 74.2778 71.141 74.4799 70.2316 74.5809C69.7263 74.682 69.221 74.682 68.8168 74.783C68.4126 74.8841 68.0084 74.9851 67.6042 74.9851C65.9873 75.3894 64.5726 75.7936 63.7642 75.9957Z" fill="#343176"/>
<path d="M62.9556 75.0863C63.0567 75.0863 63.2588 75.0863 63.3598 75.0863H63.4609C64.1682 74.682 65.3809 73.9747 66.4925 72.9641C66.7956 72.661 67.0988 72.4589 67.3009 72.1557C67.604 71.8526 67.8061 71.5494 68.1093 71.1452C68.6146 70.5389 69.0188 69.7305 69.3219 68.922C69.9282 67.4062 69.8272 65.9915 69.6251 64.7789C69.423 63.6673 69.0188 62.7578 68.7156 62.3536C68.6146 62.2525 68.5135 62.1515 68.4125 62.1515C68.3114 62.1515 68.1093 62.1515 68.0083 62.3536C67.604 62.7578 66.8967 63.5662 66.0882 64.5768C65.8861 64.7789 65.684 65.082 65.4819 65.3852C65.2798 65.6883 65.0777 65.9915 64.8756 66.2947C64.4714 66.901 64.0672 67.5073 63.764 68.3157C63.1577 69.7304 62.7535 71.1452 62.6524 72.2568C62.5514 73.4694 62.5514 74.3789 62.6524 74.9852C62.6524 74.9852 62.7535 74.9852 62.9556 75.0863Z" fill="#343176"/>
<path d="M50.1219 78.6231C49.9198 78.6231 49.7177 78.6231 49.6167 78.7242C49.5156 78.8252 49.4146 78.9263 49.4146 79.1284C49.5156 79.7347 49.9198 80.6442 50.6272 81.7557C51.4356 82.8673 52.6482 84.08 54.5682 84.8884C55.5788 85.2926 56.5893 85.5957 57.7009 85.7979C58.2061 85.8989 58.8125 86 59.3177 86C59.823 86 60.4293 86 60.9346 86C61.9451 86 62.9556 85.7979 63.8651 85.6968C64.6735 85.4947 65.4819 85.3936 65.9872 85.2926H66.0883C66.2904 85.1915 66.4925 85.0905 66.5935 84.9894C66.6946 84.7873 66.7956 84.6863 66.6946 84.5852C66.2904 84.08 65.583 83.3726 64.4714 82.5642C63.9662 82.16 63.2588 81.7557 62.5514 81.3515C61.844 80.9473 60.9346 80.6442 60.0251 80.341C59.5198 80.1389 59.0146 80.0378 58.6104 79.9368C58.1051 79.8357 57.5998 79.7347 57.1956 79.6336C56.6904 79.5326 56.2861 79.4315 55.7809 79.4315C55.2756 79.3305 54.8714 79.2294 54.3661 79.2294C52.5472 78.8252 51.0314 78.7242 50.1219 78.6231Z" fill="#343176"/>
<path d="M50.0209 77.6125C50.1219 77.6125 50.1219 77.6125 50.0209 77.6125C50.9303 77.5115 52.4461 77.2083 53.9619 76.602C54.3661 76.3999 54.7703 76.2989 55.1746 76.0968C55.5788 75.8947 55.983 75.6925 56.2861 75.3894C56.4882 75.2883 56.6904 75.1873 56.7914 74.9852C56.9935 74.8841 57.0946 74.682 57.2967 74.581C57.5998 74.2778 57.903 73.9746 58.2061 73.6715C58.7114 72.9641 59.1156 72.2568 59.4188 71.5494C59.7219 70.842 59.823 70.1346 59.924 69.5283C60.1261 68.3157 59.924 67.3052 59.823 66.6988C59.823 66.5978 59.7219 66.4967 59.6209 66.3957C59.5198 66.3957 59.3177 66.3957 59.2167 66.3957C58.9135 66.4967 58.5093 66.7999 58.1051 67.002C57.5998 67.2041 57.0946 67.6083 56.5893 67.9115C55.983 68.3157 55.4777 68.7199 54.7703 69.1241C54.164 69.6294 53.5577 70.1346 52.9514 70.741C51.8398 71.9536 50.9303 73.1662 50.4251 74.2778C49.8188 75.3894 49.5156 76.3999 49.4146 77.0062C49.4146 77.1073 49.4145 77.3094 49.6167 77.3094C49.7177 77.6125 49.9198 77.6125 50.0209 77.6125Z" fill="#343176"/>
<path d="M59.9243 1.72201C60.2274 2.02517 60.7327 2.42938 61.339 2.83359C61.6422 3.0357 61.9453 3.2378 62.3495 3.43991C62.7538 3.64202 63.0569 3.84412 63.5622 4.04623C63.9664 4.24833 64.3706 4.34939 64.7748 4.45044C64.9769 4.45044 65.179 4.55149 65.3811 4.55149C65.5832 4.65254 65.7853 4.65254 65.8864 4.65254C66.5938 4.85465 67.2001 4.85465 67.7053 4.9557C67.8064 4.9557 68.0085 4.9557 68.0085 4.85465C68.1096 4.7536 68.0085 4.65254 67.9074 4.55149C67.6043 4.24833 67.2001 3.74307 66.5938 3.2378C66.4927 3.13675 66.2906 2.93465 66.0885 2.83359C65.8864 2.73254 65.7853 2.63149 65.5832 2.53043C65.179 2.32833 64.7748 2.12622 64.3706 1.92412C63.9664 1.72201 63.4611 1.62096 63.0569 1.51991C62.6527 1.41885 62.2485 1.41885 61.8443 1.3178C61.0359 1.21675 60.4295 1.3178 60.0253 1.3178C59.9243 1.3178 59.8232 1.41885 59.7222 1.51991C59.8232 1.41885 59.8232 1.62096 59.9243 1.72201Z" fill="#343176"/>
<path d="M51.2263 47.1386H50.2434C56.5503 39.2065 54.2569 34.001 53.6836 33.0094L52.6188 26.3169L56.7142 22.2682C58.1067 25.8212 62.2024 37.802 51.2263 47.1386ZM52.2911 33.9185C52.7825 34.8274 54.6664 39.6195 48.1137 47.1386H46.6393C50.0795 40.198 49.1785 34.662 48.1137 31.7705L52.2911 33.9185ZM37.7115 21.4418L43.2813 20.6155C43.527 20.6155 43.7728 20.3677 43.8547 20.2024L46.3939 15.0796L48.9331 20.2024C49.015 20.4503 49.2608 20.6155 49.5065 20.6155L55.0764 21.4418L51.0628 25.4078C50.899 25.5731 50.8171 25.9036 50.8171 26.1515L51.7181 31.77L46.7217 29.126C46.6398 29.0434 46.476 29.0434 46.3121 29.0434C46.1483 29.0434 46.0664 29.0434 45.9026 29.126L40.9061 31.77L41.9709 26.1515C42.0528 25.9036 41.889 25.573 41.7252 25.4078L37.7115 21.4418ZM41.1517 33.588L46.0662 31.0265C46.9673 33.0096 49.0968 39.1236 44.7557 47.1387H42.4622C45.3291 41.4377 42.4622 35.6535 41.1517 33.588ZM41.4793 48.7912H51.3084C51.7999 48.7912 52.1275 49.1217 52.1275 49.6174V50.8568H40.6602V49.6174C40.6602 49.1217 41.0697 48.7912 41.4793 48.7912ZM56.0589 57.8803C56.0589 58.376 55.7313 58.7066 55.2398 58.7066H37.6292C37.1377 58.7066 36.8101 58.376 36.8101 57.8803V53.3358C36.8101 52.8401 37.1377 52.5096 37.6292 52.5096H55.2398C55.7313 52.5096 56.0589 52.8401 56.0589 53.3358V57.8803Z" fill="#343176"/>
</svg>
