<svg width="24" height="24" viewBox="0 0 24 24" fill="none" xmlns="http://www.w3.org/2000/svg">
<mask id="mask0_7956_69027" style="mask-type:alpha" maskUnits="userSpaceOnUse" x="0" y="1" width="24" height="23">
<path d="M17.1429 6.32327C17.1429 9.15267 14.8403 11.4464 12 11.4464C9.15968 11.4464 6.85714 9.15267 6.85714 6.32327C6.85714 3.49388 9.15968 1.2002 12 1.2002C14.8403 1.2002 17.1429 3.49388 17.1429 6.32327Z" fill="#D9D9D9"/>
<path d="M24 23.4002C24 20.2298 22.7357 17.1893 20.4853 14.9476C18.2348 12.7058 15.1826 11.4464 12 11.4464C8.8174 11.4463 5.76516 12.7058 3.51472 14.9475C1.26428 17.1893 4.80559e-07 20.2298 0 23.4002L24 23.4002Z" fill="#D9D9D9"/>
</mask>
<g mask="url(#mask0_7956_69027)">
<path fill-rule="evenodd" clip-rule="evenodd" d="M17.1429 6.32308C17.1429 9.15247 14.8403 11.4462 12 11.4462C9.15968 11.4462 6.85714 9.15247 6.85714 6.32308C6.85714 3.49368 9.15968 1.2 12 1.2C14.8403 1.2 17.1429 3.49368 17.1429 6.32308ZM12 11.4462C15.1826 11.4462 18.2348 12.7056 20.4853 14.9474C22.7357 17.1891 24 20.2296 24 23.4L0 23.4C9.53674e-07 20.2296 1.26428 17.1891 3.51472 14.9474C5.76516 12.7056 8.8174 11.4462 12 11.4462ZM28.8 31.2C28.8 34.1823 26.3823 36.6 23.4 36.6C20.4177 36.6 18 34.1823 18 31.2C18 28.2177 20.4177 25.8 23.4 25.8C26.3823 25.8 28.8 28.2177 28.8 31.2ZM13.2 49.2H36C36 45.8583 34.6725 42.6534 32.3095 40.2905C29.9466 37.9275 26.7417 36.6 23.4 36.6C20.0583 36.6 16.8534 37.9275 14.4905 40.2905C13.4521 41.3288 12.6137 42.5297 12 43.8334C11.3863 42.5297 10.5479 41.3288 9.50955 40.2905C7.14659 37.9275 3.94173 36.6 0.6 36.6C3.58234 36.6 6 34.1823 6 31.2C6 28.2177 3.58234 25.8 0.6 25.8C-2.38234 25.8 -4.8 28.2177 -4.8 31.2C-4.8 34.1823 -2.38234 36.6 0.6 36.6C-2.74173 36.6 -5.94659 37.9275 -8.30954 40.2905C-10.6725 42.6534 -12 45.8583 -12 49.2H10.8H13.2Z" fill="#343176"/>
<path d="M5.3999 23.4001L20.9999 -5.3999V23.4001H5.3999Z" fill="#4DB6A5"/>
<path d="M7.7998 23.3998L23.9998 7.7998V23.3998H7.7998Z" fill="#E14142"/>
<path d="M13.2002 23.3998L-2.99981 7.7998V23.3998H13.2002Z" fill="#EE7656"/>
<path d="M6.6001 49.2002L36.0001 16.2002V49.2002H6.6001Z" fill="#EE7656"/>
</g>
</svg>
